<svg width="14" height="10" viewBox="0 0 14 10" fill="currentColor" xmlns="http://www.w3.org/2000/svg">
<path fill-rule="evenodd" clip-rule="evenodd" d="M5.00556 0.874082C5.06199 0.930375 5.10677 0.997249 5.13732 1.07087C5.16787 1.1445 5.18359 1.22343 5.18359 1.30314C5.18359 1.38285 5.16787 1.46178 5.13732 1.5354C5.10677 1.60902 5.06199 1.6759 5.00556 1.73219L1.79735 4.93919L5.00556 8.14619C5.11935 8.25998 5.18328 8.41431 5.18328 8.57524C5.18328 8.73617 5.11935 8.8905 5.00556 9.00429C4.89176 9.11809 4.73743 9.18201 4.5765 9.18201C4.41558 9.18201 4.26124 9.11809 4.14745 9.00429L0.511396 5.36824C0.454961 5.31195 0.410186 5.24508 0.379635 5.17145C0.349085 5.09783 0.333359 5.0189 0.333359 4.93919C0.333359 4.85948 0.349085 4.78055 0.379635 4.70692C0.410186 4.6333 0.454961 4.56643 0.511396 4.51013L4.14745 0.874082C4.20374 0.817647 4.27062 0.772871 4.34424 0.742321C4.41786 0.71177 4.49679 0.696045 4.5765 0.696045C4.65621 0.696045 4.73514 0.71177 4.80876 0.742321C4.88239 0.772871 4.94926 0.817647 5.00556 0.874082Z" fill="#0097FF"/>
<path fill-rule="evenodd" clip-rule="evenodd" d="M13.667 4.93914C13.667 5.09986 13.6031 5.254 13.4895 5.36765C13.3758 5.4813 13.2217 5.54515 13.061 5.54515L2.15283 5.54515C1.9921 5.54515 1.83796 5.4813 1.72431 5.36765C1.61067 5.254 1.54682 5.09986 1.54682 4.93914C1.54682 4.77842 1.61067 4.62427 1.72431 4.51063C1.83796 4.39698 1.9921 4.33313 2.15283 4.33313L13.061 4.33313C13.2217 4.33313 13.3758 4.39698 13.4895 4.51063C13.6031 4.62427 13.667 4.77841 13.667 4.93914Z" fill="#0097FF"/>
</svg>
