<svg width="18" height="18" viewBox="0 0 18 18" fill="none" xmlns="http://www.w3.org/2000/svg">
<path d="M16.292 17.3333H11.0837C10.7907 17.3333 10.5438 17.2329 10.3431 17.0322C10.1424 16.8314 10.042 16.5846 10.042 16.2916V11.0833C10.042 10.7903 10.1424 10.5435 10.3431 10.3427C10.5438 10.142 10.7907 10.0416 11.0837 10.0416H16.292C16.585 10.0416 16.8318 10.142 17.0326 10.3427C17.2333 10.5435 17.3337 10.7903 17.3337 11.0833V16.2916C17.3337 16.5846 17.2333 16.8314 17.0326 17.0322C16.8318 17.2329 16.585 17.3333 16.292 17.3333ZM16.292 11.0833H11.0837V16.2916H16.292V11.0833ZM16.292 7.95829H11.0837C10.7907 7.95829 10.5438 7.85792 10.3431 7.65719C10.1424 7.45645 10.042 7.2096 10.042 6.91663V1.70829C10.042 1.41532 10.1424 1.16847 10.3431 0.967733C10.5438 0.766995 10.7907 0.666626 11.0837 0.666626H16.292C16.585 0.666626 16.8318 0.766995 17.0326 0.967733C17.2333 1.16847 17.3337 1.41532 17.3337 1.70829V6.91663C17.3337 7.2096 17.2333 7.45645 17.0326 7.65719C16.8318 7.85792 16.585 7.95829 16.292 7.95829ZM16.292 1.70829H11.0837V6.91663H16.292V1.70829ZM6.91699 17.3333H1.70866C1.41569 17.3333 1.16884 17.2329 0.968099 17.0322C0.767361 16.8314 0.666992 16.5846 0.666992 16.2916V11.0833C0.666992 10.7903 0.767361 10.5435 0.968099 10.3427C1.16884 10.142 1.41569 10.0416 1.70866 10.0416H6.91699C7.20996 10.0416 7.45681 10.142 7.65755 10.3427C7.85829 10.5435 7.95866 10.7903 7.95866 11.0833V16.2916C7.95866 16.5846 7.85829 16.8314 7.65755 17.0322C7.45681 17.2329 7.20996 17.3333 6.91699 17.3333ZM6.91699 11.0833H1.70866V16.2916H6.91699V11.0833ZM6.91699 7.95829H1.70866C1.41569 7.95829 1.16884 7.85792 0.968099 7.65719C0.767361 7.45645 0.666992 7.2096 0.666992 6.91663V1.70829C0.666992 1.41532 0.767361 1.16847 0.968099 0.967733C1.16884 0.766995 1.41569 0.666626 1.70866 0.666626H6.91699C7.20996 0.666626 7.45681 0.766995 7.65755 0.967733C7.85829 1.16847 7.95866 1.41532 7.95866 1.70829V6.91663C7.95866 7.2096 7.85829 7.45645 7.65755 7.65719C7.45681 7.85792 7.20996 7.95829 6.91699 7.95829ZM6.91699 1.70829H1.70866V6.91663H6.91699V1.70829Z" fill="#D03427"/>
</svg>
