<svg width="18" height="12" viewBox="0 0 18 12" fill="none" xmlns="http://www.w3.org/2000/svg">
<path d="M2.22949 4.83329H1.18783C1.04677 4.83329 0.924696 4.89102 0.821615 5.00647C0.718533 5.12192 0.666992 5.25864 0.666992 5.41663V6.58329C0.666992 6.74128 0.718533 6.878 0.821615 6.99345C0.924696 7.1089 1.04677 7.16663 1.18783 7.16663H2.22949C2.37055 7.16663 2.49262 7.1089 2.5957 6.99345C2.69878 6.878 2.75033 6.74128 2.75033 6.58329V5.41663C2.75033 5.25864 2.69878 5.12192 2.5957 5.00647C2.49262 4.89102 2.37055 4.83329 2.22949 4.83329ZM16.8128 5.41663H5.87533C5.73427 5.41663 5.6122 5.47435 5.50911 5.5898C5.40603 5.70526 5.35449 5.84197 5.35449 5.99996C5.35449 6.15795 5.40603 6.29467 5.50911 6.41012C5.6122 6.52557 5.73427 6.58329 5.87533 6.58329H16.8128C16.9539 6.58329 17.076 6.52557 17.179 6.41012C17.2821 6.29467 17.3337 6.15795 17.3337 5.99996C17.3337 5.84197 17.2821 5.70526 17.179 5.5898C17.076 5.47435 16.9539 5.41663 16.8128 5.41663ZM2.22949 9.49996H1.18783C1.04677 9.49996 0.924696 9.55769 0.821615 9.67314C0.718533 9.78859 0.666992 9.92531 0.666992 10.0833V11.25C0.666992 11.4079 0.718533 11.5447 0.821615 11.6601C0.924696 11.7756 1.04677 11.8333 1.18783 11.8333H2.22949C2.37055 11.8333 2.49262 11.7756 2.5957 11.6601C2.69878 11.5447 2.75033 11.4079 2.75033 11.25V10.0833C2.75033 9.92531 2.69878 9.78859 2.5957 9.67314C2.49262 9.55769 2.37055 9.49996 2.22949 9.49996ZM16.8128 10.0833H5.87533C5.73427 10.0833 5.6122 10.141 5.50911 10.2565C5.40603 10.3719 5.35449 10.5086 5.35449 10.6666C5.35449 10.8246 5.40603 10.9613 5.50911 11.0768C5.6122 11.1922 5.73427 11.25 5.87533 11.25H16.8128C16.9539 11.25 17.076 11.1922 17.179 11.0768C17.2821 10.9613 17.3337 10.8246 17.3337 10.6666C17.3337 10.5086 17.2821 10.3719 17.179 10.2565C17.076 10.141 16.9539 10.0833 16.8128 10.0833ZM2.22949 0.166626H1.18783C1.04677 0.166626 0.924696 0.224352 0.821615 0.339803C0.718533 0.455254 0.666992 0.591973 0.666992 0.749959V1.91663C0.666992 2.07461 0.718533 2.21133 0.821615 2.32678C0.924696 2.44223 1.04677 2.49996 1.18783 2.49996H2.22949C2.37055 2.49996 2.49262 2.44223 2.5957 2.32678C2.69878 2.21133 2.75033 2.07461 2.75033 1.91663V0.749959C2.75033 0.591973 2.69878 0.455254 2.5957 0.339803C2.49262 0.224352 2.37055 0.166626 2.22949 0.166626ZM5.87533 1.91663H16.8128C16.9539 1.91663 17.076 1.8589 17.179 1.74345C17.2821 1.628 17.3337 1.49128 17.3337 1.33329C17.3337 1.17531 17.2821 1.03859 17.179 0.923137C17.076 0.807685 16.9539 0.749959 16.8128 0.749959H5.87533C5.73427 0.749959 5.6122 0.807685 5.50911 0.923137C5.40603 1.03859 5.35449 1.17531 5.35449 1.33329C5.35449 1.49128 5.40603 1.628 5.50911 1.74345C5.6122 1.8589 5.73427 1.91663 5.87533 1.91663Z" fill="#8F9BB3"/>
</svg>
