<svg width="22" height="22" viewBox="0 0 22 22" fill="currentColor" xmlns="http://www.w3.org/2000/svg">
<path d="M19.858 20.8173L19.8582 20.8175C20.005 20.9643 20.1791 21.0416 20.3768 21.0416C20.5731 21.0416 20.7443 20.9687 20.8857 20.8273C21.0279 20.6851 21.1 20.5103 21.1 20.3087C21.1 20.1087 21.0323 19.9366 20.8954 19.7998L14.9032 13.769C16.0869 12.3261 16.6794 10.6651 16.6794 8.78968C16.6794 7.35734 16.3276 6.03516 15.6239 4.82509C14.9206 3.61555 13.9602 2.65857 12.7443 1.95531C11.528 1.25178 10.2059 0.9 8.77994 0.9C7.35401 0.9 6.03509 1.25179 4.82509 1.95542C3.61569 2.65872 2.65872 3.61569 1.95542 4.82509C1.25174 6.03516 0.9 7.35734 0.9 8.78968C0.9 10.222 1.25174 11.5442 1.95542 12.7543C2.65872 13.9637 3.61569 14.9206 4.8251 15.6239C6.03516 16.3276 7.35734 16.6794 8.78968 16.6794C10.7172 16.6794 12.4175 16.0548 13.8865 14.8073L19.858 20.8173ZM8.78968 15.2525C7.61262 15.2525 6.52987 14.9617 5.53943 14.3802C4.54807 13.7981 3.76524 13.0121 3.18969 12.0209C2.61446 11.0302 2.32687 9.95376 2.32687 8.78968C2.32687 7.6256 2.61446 6.54916 3.18969 5.55849C3.76524 4.56726 4.54807 3.78121 5.53943 3.19919C6.52996 2.61765 7.60948 2.32687 8.77994 2.32687C9.95041 2.32687 11.0299 2.61765 12.0205 3.19919C13.0118 3.78121 13.7946 4.56726 14.3702 5.55849C14.9454 6.54916 15.233 7.6256 15.233 8.78968C15.233 9.28824 15.1755 9.78034 15.0604 10.2661C14.9453 10.7524 14.7823 11.206 14.5717 11.6271C14.3605 12.0496 14.1076 12.4497 13.8131 12.8275C13.5193 13.2043 13.1873 13.5394 12.8171 13.833C12.446 14.1274 12.0494 14.3801 11.6271 14.5912C11.206 14.8018 10.7524 14.9647 10.2661 15.0799C9.78034 15.195 9.28824 15.2525 8.78968 15.2525Z" fill="black" stroke="black" stroke-width="0.2"/>
</svg>
