<?xml version="1.0" standalone="no"?>
<!DOCTYPE svg PUBLIC "-//W3C//DTD SVG 20010904//EN"
 "http://www.w3.org/TR/2001/REC-SVG-20010904/DTD/svg10.dtd">
<svg version="1.0" xmlns="http://www.w3.org/2000/svg"
 width="1080.000000pt" height="1080.000000pt" viewBox="0 0 1080.000000 1080.000000"
 preserveAspectRatio="xMidYMid meet">

<g transform="translate(0.000000,1080.000000) scale(0.100000,-0.100000)"
fill="#000000" stroke="none">
<path d="M0 5400 l0 -5400 5400 0 5400 0 -2 1968 -3 1967 -115 -3 c-63 -2
-155 -5 -205 -7 -49 -2 -116 -5 -147 -6 -32 -2 -58 -5 -58 -8 0 -3 -28 -6 -62
-7 -107 -2 -129 -4 -125 -11 3 -5 -27 -8 -66 -8 -40 0 -94 -6 -122 -13 -98
-26 -130 -34 -157 -37 -16 -2 -49 -14 -75 -26 -27 -12 -51 -23 -54 -23 -15 -2
-69 -50 -69 -61 0 -33 -74 -33 -96 0 -9 14 -20 23 -24 20 -12 -7 -18 39 -9 64
5 11 18 31 30 44 12 12 19 15 15 7 -6 -12 -5 -12 6 1 14 16 97 59 115 59 6 0
30 11 54 24 24 13 54 23 67 21 12 -1 22 3 22 8 0 5 6 7 14 4 7 -3 23 7 34 23
15 20 33 29 65 34 56 9 74 1 82 -34 5 -23 11 -28 28 -24 24 6 144 16 195 17
17 0 32 3 32 6 0 12 493 -1 586 -15 l44 -6 0 226 0 226 -22 -9 c-13 -5 -59
-11 -103 -15 -44 -4 -97 -9 -119 -12 -27 -4 -36 -3 -32 5 4 6 11 9 15 7 4 -3
37 4 72 14 35 11 75 20 89 20 14 0 42 5 63 11 l37 10 0 3169 0 3170 -1514 0
-1514 0 10 -35 c6 -19 15 -32 19 -29 4 2 11 -5 14 -17 4 -12 12 -18 21 -15 12
5 18 -5 16 -25 -1 -4 9 -5 21 -2 16 3 18 2 9 -5 -11 -7 -11 -10 2 -15 8 -3 17
-1 19 6 3 8 15 2 31 -15 15 -16 22 -28 16 -28 -5 0 -10 -5 -10 -11 0 -5 4 -8
9 -5 5 3 11 -1 14 -9 4 -10 1 -12 -11 -9 -15 5 -15 4 -2 -8 8 -8 20 -19 26
-26 8 -9 9 -5 6 18 -3 19 0 30 8 30 7 0 10 7 6 16 -3 8 -2 12 4 9 6 -3 10 -15
10 -26 0 -10 7 -19 15 -19 12 0 21 -21 13 -32 -1 -2 4 -13 10 -25 8 -14 9 -24
2 -28 -6 -4 -8 -10 -5 -15 3 -5 1 -11 -4 -15 -13 -8 -2 -35 14 -35 7 0 16 -6
19 -12 3 -7 4 -4 1 7 -6 24 9 50 23 41 6 -3 13 -20 17 -36 4 -17 10 -28 15
-25 5 3 11 1 15 -5 4 -6 11 -8 16 -5 5 3 6 -1 3 -9 -9 -24 11 -19 29 7 14 19
18 20 26 7 13 -19 14 -33 2 -26 -5 3 -14 -1 -21 -9 -11 -14 -7 -19 12 -16 4 0
5 -6 2 -14 -4 -10 0 -15 11 -15 9 0 13 -4 10 -10 -3 -5 -2 -10 4 -10 5 0 11 6
14 13 3 6 4 2 4 -9 -1 -15 -6 -20 -16 -16 -10 4 -12 2 -5 -9 13 -21 14 -41 4
-58 -8 -14 -9 -14 -10 -1 0 9 -9 16 -19 16 -11 0 -18 -3 -15 -7 2 -4 -2 -9 -8
-12 -8 -2 -9 -8 -4 -13 5 -5 11 -4 13 3 3 9 11 8 29 -3 22 -15 24 -15 24 0 0
10 5 13 17 9 11 -4 12 -8 5 -11 -7 -2 -12 -13 -12 -25 0 -16 -3 -18 -12 -9
-18 18 -38 15 -37 -5 0 -11 3 -13 6 -5 8 20 26 13 20 -9 -5 -17 -3 -18 11 -7
13 11 15 11 9 -4 -9 -25 3 -55 14 -36 12 18 11 31 -1 23 -6 -3 -7 1 -3 10 5
13 7 14 14 3 7 -10 9 -10 10 2 1 8 1 21 0 28 -2 10 5 9 23 -5 14 -10 25 -25
25 -33 0 -12 -2 -12 -13 3 -18 23 -23 22 -30 -8 -8 -33 4 -56 16 -29 8 18 8
18 5 -1 -2 -13 -9 -19 -20 -17 -9 2 -17 -2 -17 -8 0 -5 5 -10 11 -10 6 0 8 -7
4 -17 -4 -13 -1 -12 15 5 11 12 31 22 43 21 19 -1 18 -2 -8 -14 -16 -8 -24
-14 -16 -15 8 0 5 -7 -9 -18 -18 -14 -19 -19 -7 -19 9 0 14 5 10 10 -8 13 40
-3 49 -17 4 -6 8 -16 8 -22 0 -7 7 -14 15 -18 8 -3 15 -10 15 -16 0 -6 -3 -9
-8 -6 -4 2 -16 -3 -27 -11 -16 -13 -17 -15 -2 -10 12 5 17 1 17 -12 0 -12 11
-23 30 -30 37 -12 39 -20 5 -16 -14 1 -28 -2 -32 -8 -3 -6 -2 -7 3 -4 16 9 97
-31 91 -46 -3 -9 6 -13 30 -14 25 -1 33 3 29 13 -3 7 -1 16 5 20 6 3 8 13 5
21 -3 8 -1 11 4 8 6 -3 10 2 10 11 0 16 1 16 16 -2 8 -10 13 -13 9 -7 -3 7 1
25 10 40 14 25 15 25 9 4 -4 -17 -3 -21 6 -16 9 5 11 4 6 -4 -4 -6 -11 -9 -16
-6 -5 3 -8 -4 -7 -15 1 -21 17 -29 17 -9 0 9 4 8 14 0 11 -9 13 -5 12 19 -1
16 -4 30 -8 30 -5 0 -8 7 -8 15 0 8 -5 15 -11 15 -5 0 -8 4 -4 9 3 5 -9 12
-27 14 -28 3 -27 4 10 5 30 2 41 6 36 14 -5 7 -3 8 7 2 22 -13 41 -14 36 -1
-3 7 -11 11 -18 9 -11 -3 -11 -1 -2 9 6 6 9 17 7 24 -3 7 4 11 18 11 16 -1 24
5 26 21 2 13 13 24 28 27 16 4 24 13 24 27 0 16 5 20 20 16 17 -4 20 0 21 26
2 40 2 38 -7 62 l-7 20 20 -20 c11 -11 18 -23 16 -28 -9 -16 -14 -62 -5 -49 8
11 10 11 15 -2 4 -9 10 -15 14 -14 4 0 21 -4 36 -10 34 -14 40 -15 33 -3 -4 5
0 12 6 14 7 3 -1 3 -19 0 -25 -4 -33 -1 -42 16 -7 11 -16 20 -20 18 -5 -1 -9
1 -10 6 -3 21 1 27 17 27 14 0 15 2 2 10 -8 5 -11 12 -7 16 3 4 13 2 20 -4 8
-7 17 -9 20 -5 4 3 7 3 7 -2 0 -4 -8 -14 -17 -22 -16 -13 -16 -13 5 -3 15 7
22 7 22 0 0 -5 -5 -10 -11 -10 -5 0 -7 -5 -4 -11 10 -15 34 20 35 49 0 13 -4
21 -10 17 -5 -3 -7 -13 -4 -23 3 -9 -1 -7 -8 6 -8 12 -17 19 -21 16 -4 -4 -7
-2 -7 4 0 7 -8 12 -17 12 -15 0 -16 2 -3 10 19 12 33 13 26 1 -3 -5 1 -12 10
-15 12 -5 14 -1 8 17 -9 30 -12 33 -26 19 -7 -7 -18 -12 -26 -12 -10 0 -10 4
3 16 12 12 25 14 53 9 42 -8 55 -21 41 -46 -6 -11 -4 -29 6 -53 17 -40 26 -48
17 -14 -3 13 -1 19 5 15 6 -4 13 3 17 16 5 19 8 20 17 7 9 -13 10 -13 6 0 -2
8 -12 14 -21 14 -20 -2 -21 12 -2 19 7 3 19 0 25 -6 8 -8 11 -8 11 1 0 7 -5
12 -11 12 -5 0 -7 5 -4 10 4 6 9 8 13 6 4 -2 7 6 7 18 0 15 -6 23 -20 24 -11
0 -15 -2 -10 -6 24 -17 13 -38 -18 -33 -5 1 -6 -3 -2 -9 3 -5 2 -10 -4 -10 -6
0 -15 9 -21 20 -9 17 -7 22 12 30 13 5 17 9 8 10 -12 0 -12 2 -2 9 8 4 25 7
40 5 15 -1 30 3 35 9 5 7 5 2 2 -12 -5 -16 -4 -21 4 -17 6 4 11 2 11 -4 0 -6
4 -8 10 -5 6 4 3 16 -6 31 -9 13 -14 27 -11 30 8 9 28 -6 22 -16 -3 -4 4 -10
14 -13 11 -3 22 1 25 9 3 9 0 11 -12 7 -14 -5 -15 -4 -4 8 11 12 17 10 38 -14
13 -15 24 -22 24 -15 0 10 2 10 9 0 7 -11 10 -10 15 3 9 23 8 24 -13 18 -22
-6 -34 10 -27 35 9 27 38 24 30 -2 -4 -17 -3 -18 5 -6 8 11 11 12 11 2 0 -7 5
-10 11 -6 8 5 8 9 -1 14 -7 4 -9 13 -6 19 4 6 0 11 -8 11 -9 0 -16 4 -16 8 0
4 9 8 19 8 11 0 19 -3 19 -6 -2 -20 4 -30 14 -24 8 5 9 2 5 -10 -4 -10 -1 -24
7 -32 13 -12 16 -12 25 3 8 14 9 7 5 -24 -4 -38 -2 -43 16 -43 12 0 20 -7 20
-17 0 -15 2 -16 10 -3 8 12 10 12 10 1 0 -8 2 -12 4 -10 3 2 1 20 -4 39 -4 19
-8 27 -9 18 -1 -10 -9 -16 -21 -15 -18 1 -18 2 -3 19 9 10 23 18 32 18 13 0
14 2 2 9 -10 7 -6 9 13 8 21 -2 24 -4 12 -13 -11 -8 -14 -21 -9 -47 5 -32 9
-37 32 -36 23 2 23 2 4 6 -14 3 -20 9 -16 19 4 11 11 8 31 -13 14 -16 30 -27
34 -25 12 3 10 -16 -3 -20 -6 -2 -7 -11 -3 -22 7 -18 8 -18 15 2 10 26 45 19
56 -12 13 -40 12 -47 -8 -41 -10 4 -19 2 -19 -4 0 -16 40 -24 55 -11 10 8 15
9 15 2 0 -6 -5 -14 -10 -17 -7 -4 -7 -11 -2 -18 17 -22 32 -101 21 -108 -7 -4
-4 -9 6 -12 10 -5 14 -3 9 5 -4 7 -3 8 5 4 6 -4 8 -12 5 -18 -5 -7 -1 -9 9 -5
9 3 21 -1 29 -11 11 -15 11 -16 -3 -4 -14 10 -20 10 -33 -4 -13 -13 -14 -19
-5 -31 7 -7 18 -12 26 -9 8 3 11 1 8 -5 -4 -5 -15 -7 -26 -4 -23 7 -25 -7 -4
-25 8 -7 13 -16 10 -20 -3 -5 3 -10 12 -12 14 -3 13 -5 -5 -10 -20 -6 -23 -3
-19 12 5 18 -19 37 -31 25 -3 -3 0 -5 6 -5 6 0 10 -8 10 -17 0 -10 4 -37 10
-61 10 -42 9 -44 -16 -54 -26 -11 -26 -12 -4 -15 23 -4 31 -23 10 -23 -6 0 -8
-3 -5 -6 4 -4 13 -1 21 5 11 9 16 9 22 0 5 -8 3 -9 -6 -4 -10 6 -12 4 -7 -7 5
-13 1 -15 -22 -8 -22 6 -27 4 -27 -11 0 -12 4 -15 12 -8 8 7 11 2 11 -15 1
-18 -4 -23 -16 -19 -13 4 -14 3 -1 -5 10 -8 18 -8 27 0 9 7 13 7 13 0 0 -19
-35 -32 -50 -19 -12 10 -12 9 -2 -5 7 -9 9 -18 5 -20 -4 -3 -2 -3 4 -2 7 2 18
-6 24 -18 8 -15 8 -19 0 -14 -13 8 -51 -2 -51 -13 0 -4 7 -8 15 -8 8 0 12 4 9
9 -7 11 18 10 36 -2 13 -8 12 -10 -4 -10 -20 0 -20 0 0 -15 22 -17 7 -19 -30
-5 -16 6 -27 6 -31 0 -4 -6 -2 -10 4 -10 5 0 22 -5 36 -10 23 -9 25 -13 14
-26 -9 -11 -10 -20 -2 -32 8 -13 6 -21 -5 -31 -12 -12 -13 -11 -8 10 7 22 6
23 -8 6 -13 -17 -14 -16 -13 15 1 18 7 33 14 33 6 0 14 3 17 6 12 12 -29 4
-49 -9 -14 -9 -16 -15 -7 -18 6 -3 12 -10 12 -16 0 -7 -4 -7 -13 0 -8 7 -18 7
-27 2 -9 -6 -17 -5 -22 3 -5 8 -8 4 -8 -10 0 -12 6 -24 13 -26 9 -4 9 -8 -2
-15 -9 -7 -10 -12 -2 -16 7 -5 14 4 17 23 6 26 9 29 25 20 24 -12 25 -31 2
-22 -16 6 -16 5 -4 -10 7 -9 18 -14 23 -10 6 3 9 0 7 -6 -3 -7 -8 -11 -12 -9
-3 2 -14 -8 -23 -20 -12 -17 -23 -23 -40 -19 -20 3 -22 2 -13 -9 13 -16 -4
-44 -26 -44 -6 0 -19 -8 -28 -18 -15 -17 -15 -18 4 -19 10 -1 17 2 14 8 -4 5
1 9 9 9 9 0 16 5 16 10 0 6 7 10 15 10 8 0 15 -5 15 -11 0 -8 4 -8 14 0 12 10
14 9 9 -7 -3 -15 -12 -18 -34 -16 -29 4 -40 -9 -16 -20 6 -3 0 -4 -15 -1 -21
4 -28 1 -28 -11 0 -10 -6 -14 -14 -11 -18 7 -28 -17 -13 -32 8 -8 8 -11 -1
-11 -7 0 -12 -9 -12 -21 0 -11 5 -17 10 -14 6 3 10 -1 10 -9 0 -10 -6 -13 -15
-10 -8 4 -15 18 -15 33 0 18 -5 28 -15 28 -8 0 -15 -7 -15 -16 0 -11 -3 -11
-16 5 -11 13 -17 15 -20 7 -9 -21 -27 -15 -21 7 3 13 0 20 -9 20 -8 0 -11 -6
-7 -16 3 -9 0 -20 -8 -25 -10 -6 -10 -9 -1 -9 6 0 12 -4 12 -10 0 -5 -9 -10
-20 -10 -13 0 -20 -7 -20 -20 0 -11 -4 -20 -10 -20 -5 0 -7 -15 -5 -32 l5 -33
-13 35 c-6 19 -16 41 -20 48 -5 7 -3 12 5 12 8 0 6 5 -4 11 -10 5 -18 19 -18
30 0 13 4 18 12 13 7 -4 8 -3 4 4 -4 7 -2 12 3 12 6 0 11 -9 11 -19 0 -10 7
-21 15 -24 24 -10 27 11 5 33 -21 21 -27 35 -10 25 6 -3 10 -1 10 4 0 17 -15
13 -34 -8 -10 -11 -25 -17 -34 -14 -14 4 -14 3 -3 -5 11 -8 12 -18 3 -52 -6
-23 -8 -48 -6 -55 3 -7 0 -16 -5 -20 -6 -3 -8 -11 -4 -18 4 -7 9 -4 15 9 5 13
6 9 4 -14 -5 -35 -16 -57 -16 -31 0 12 -2 11 -11 -1 -10 -13 -10 -13 -6 0 2 8
-2 21 -9 28 -8 7 -14 8 -14 3 0 -6 -6 -8 -14 -5 -8 3 -17 1 -21 -5 -8 -14 -25
-14 -25 -1 0 6 8 10 18 10 14 0 15 2 2 10 -13 9 -13 11 0 20 22 14 30 12 24
-5 -4 -8 -1 -15 4 -15 18 0 25 20 12 35 -7 9 -8 15 0 20 5 3 10 5 11 3 0 -2 2
-11 4 -21 5 -26 12 -30 19 -12 3 9 2 13 -4 10 -5 -3 -3 13 5 36 16 44 19 78 5
44 -6 -15 -9 -16 -11 -5 -2 17 -5 31 -9 43 -6 19 -5 33 5 40 6 5 4 7 -5 5 -8
-2 -15 2 -15 7 0 6 5 9 12 7 15 -3 16 7 4 26 -6 11 -10 10 -15 -4 -5 -14 -9
-15 -15 -6 -4 8 -8 -3 -8 -25 0 -21 2 -32 5 -25 2 6 8 9 13 6 6 -3 5 -11 -2
-20 -10 -12 -10 -14 1 -12 7 2 13 -7 15 -19 1 -14 -4 -23 -12 -23 -7 0 -13 -7
-13 -15 0 -13 4 -14 21 -5 18 10 20 9 17 -7 -4 -20 -38 -20 -50 0 -4 7 -10 -3
-14 -23 -6 -29 -9 -31 -15 -15 -4 11 -8 15 -8 8 -1 -13 -38 -6 -47 9 -4 6 2 8
14 4 11 -4 23 -2 27 4 3 6 11 7 17 4 6 -4 8 1 3 16 -4 13 -3 20 2 17 5 -3 17
3 26 14 9 10 12 19 7 19 -6 0 -13 -7 -17 -16 -5 -12 -7 -13 -14 -3 -5 8 -3 17
4 21 9 6 9 8 0 8 -6 0 -15 -5 -18 -10 -4 -6 -11 -7 -17 -4 -7 4 -8 2 -4 -5 4
-6 12 -8 18 -5 8 5 9 1 5 -10 -4 -10 -7 -21 -7 -24 0 -4 -5 0 -10 8 -8 13 -10
12 -10 -3 0 -10 -4 -15 -10 -12 -5 3 -18 2 -27 -4 -12 -6 -20 -5 -29 6 -13 19
-34 9 -34 -15 0 -15 2 -15 11 -2 9 13 10 13 6 0 -2 -9 -16 -15 -34 -16 -16 -1
-36 -4 -43 -9 -9 -5 -10 -2 -5 15 5 15 4 20 -4 16 -6 -4 -11 0 -11 9 0 9 -4
14 -10 10 -5 -3 -7 -12 -3 -20 4 -11 1 -13 -12 -9 -13 5 -16 3 -13 -7 3 -8 11
-14 19 -14 17 0 19 -40 2 -41 -7 -1 -14 -2 -15 -4 -10 -7 -37 -7 -32 1 3 5 0
9 -6 9 -6 0 -10 -8 -8 -17 2 -10 10 -17 17 -15 7 1 10 -2 6 -8 -3 -5 0 -10 7
-10 9 -1 8 -4 -3 -10 -17 -10 -24 -70 -8 -70 5 0 9 -5 9 -11 0 -6 -6 -9 -14
-6 -10 4 -12 0 -8 -15 4 -16 2 -19 -8 -13 -10 6 -12 4 -7 -7 4 -11 -1 -18 -14
-21 -10 -3 -19 -11 -18 -19 0 -10 2 -10 6 0 8 19 25 14 18 -7 -9 -28 4 -54 21
-40 7 6 19 9 26 6 8 -4 7 -6 -4 -6 -10 -1 -18 -5 -18 -11 0 -14 23 -12 39 3
11 10 12 9 7 -1 -4 -7 -1 -24 8 -37 10 -15 12 -26 6 -30 -16 -10 -31 5 -25 25
4 14 -1 19 -24 22 -24 4 -31 0 -35 -18 -3 -12 -3 -30 0 -38 3 -9 1 -16 -6 -16
-6 0 -8 -4 -5 -10 8 -13 -1 -13 -28 2 -20 10 -21 10 -8 -5 7 -10 21 -17 30
-17 14 -1 14 -2 -1 -14 -18 -13 -25 -32 -9 -22 19 12 42 -6 36 -28 -2 -11 -2
-15 1 -8 3 6 9 10 12 8 4 -2 12 2 19 9 9 10 6 14 -18 19 -40 8 -36 22 6 24 21
1 33 -3 30 -8 -4 -6 1 -13 10 -16 14 -6 13 -8 -5 -21 -11 -8 -18 -19 -15 -24
4 -5 0 -9 -7 -9 -8 0 -15 -10 -15 -22 -2 -16 0 -19 6 -10 6 11 13 8 29 -12 11
-14 25 -26 30 -26 6 0 13 -4 17 -10 3 -5 -7 -5 -25 1 -16 6 -30 15 -30 20 0 5
-7 9 -16 9 -9 0 -12 -5 -8 -12 4 -7 3 -8 -4 -4 -7 4 -12 14 -12 22 0 8 -8 14
-17 15 -15 0 -15 2 2 9 11 5 14 9 8 9 -7 1 -13 9 -13 18 0 12 -3 14 -11 6 -7
-7 -7 -27 0 -69 6 -32 11 -79 11 -104 0 -67 -34 -189 -73 -268 -43 -84 -67
-139 -67 -153 0 -18 -131 -280 -164 -329 -17 -25 -42 -58 -55 -73 -14 -15 -26
-35 -27 -43 -3 -20 -53 -66 -65 -59 -5 3 -6 -1 -3 -9 7 -19 -70 -104 -102
-112 -13 -3 -22 -10 -19 -14 7 -11 -22 -6 -32 5 -4 4 -3 5 3 2 7 -4 14 -1 17
6 3 9 -3 12 -22 9 -32 -4 -63 -58 -41 -72 7 -4 9 -13 5 -20 -6 -10 -12 -8 -23
6 -13 18 -14 18 -7 -3 3 -13 3 -23 -2 -23 -5 0 -9 -9 -10 -19 -2 -25 -43 -68
-43 -46 0 8 5 15 10 15 6 0 10 7 10 15 0 8 -5 14 -11 13 -19 -5 -34 53 -18 63
11 7 10 9 -4 9 -15 0 -15 3 -5 20 9 14 14 16 20 7 6 -9 8 -9 9 1 1 6 3 17 4
22 1 6 3 15 4 21 0 5 6 7 13 3 7 -5 8 -3 3 5 -4 7 2 22 15 36 12 13 20 28 17
33 -4 5 25 37 63 72 39 36 70 70 70 77 0 7 18 29 40 49 22 20 38 40 35 44 -3
4 4 10 15 13 11 3 20 11 20 19 0 10 -3 9 -10 -2 -6 -9 -10 -10 -10 -3 0 6 5
15 10 18 16 10 11 62 -10 100 -11 19 -21 45 -24 58 -2 13 -11 45 -20 71 -9 26
-16 52 -16 58 0 18 -44 78 -57 78 -6 0 -13 5 -15 10 -2 6 -13 12 -26 13 -12 0
-22 6 -22 12 0 6 -6 17 -12 24 -7 6 -13 15 -13 19 0 14 -28 72 -34 72 -9 -1
-57 -29 -49 -30 4 0 -7 -15 -25 -34 -52 -54 -97 -109 -97 -117 0 -5 -14 -24
-31 -44 -17 -19 -27 -35 -23 -35 5 0 2 -6 -7 -13 -9 -7 -40 -57 -68 -112 -29
-55 -57 -103 -62 -106 -5 -3 -12 -16 -14 -29 -2 -13 -10 -27 -16 -30 -6 -4
-10 -11 -9 -14 6 -20 -143 -216 -164 -216 -11 0 3 53 20 73 19 21 19 21 0 7
-18 -14 -19 -14 -7 8 7 13 10 26 8 29 -7 7 20 96 49 159 27 59 30 78 12 69 -7
-4 -5 0 5 8 9 8 17 22 17 31 0 9 5 16 10 16 6 0 10 9 10 20 0 10 15 35 34 53
18 19 40 51 47 71 8 21 28 55 46 76 18 20 30 40 26 43 -3 4 2 9 11 13 9 3 16
13 16 21 0 8 4 11 10 8 6 -3 7 1 4 9 -3 9 -2 16 3 16 5 0 17 15 28 33 10 17
27 41 37 51 10 11 18 26 18 33 0 7 4 13 9 13 5 0 21 25 35 55 l25 55 -21 72
c-11 40 -21 81 -23 91 -8 37 -18 62 -28 69 -10 6 -17 26 -19 56 -1 8 -9 11
-20 9 -14 -4 -18 -1 -14 11 5 17 -5 44 -17 44 -22 0 -47 12 -47 22 0 7 -7 13
-15 14 -8 1 -22 3 -30 4 -8 1 -16 5 -16 10 -1 4 -2 12 -3 17 0 5 -5 13 -10 18
-6 5 -6 2 -1 -7 7 -13 6 -13 -7 -2 -15 12 -15 16 0 45 9 18 15 47 13 65 -1 19
2 32 9 32 6 0 9 4 5 9 -3 5 -1 12 5 16 6 4 8 11 4 16 -3 5 0 17 7 26 19 22 18
103 -1 104 -9 0 -11 2 -3 5 7 3 9 12 6 21 -4 11 -2 14 5 9 7 -4 12 -3 12 2 0
6 -8 13 -17 16 -10 4 -13 10 -8 14 6 4 11 25 12 47 2 22 5 58 9 80 3 22 6 51
6 65 0 41 -27 152 -35 144 -4 -4 0 7 9 24 9 18 20 29 26 26 7 -4 8 -2 4 4 -4
6 -13 9 -20 6 -8 -3 -17 0 -22 7 -5 8 -3 10 7 4 14 -9 -18 34 -36 47 -6 5 -6
8 2 8 7 0 17 -8 22 -17 9 -16 10 -16 11 -1 0 9 -8 24 -17 34 -16 16 -16 16 7
10 24 -7 24 -7 5 9 -17 14 -18 17 -5 25 14 9 13 11 -9 14 -20 2 -25 18 -10 29
19 15 30 65 15 70 -8 3 -7 8 2 18 6 7 12 20 11 29 0 9 -4 6 -9 -7 -15 -36 -25
-27 -26 22 -1 35 3 45 15 45 14 1 13 2 -1 11 -10 5 -18 17 -18 24 0 8 -7 15
-16 15 -11 0 -14 6 -9 23 4 13 3 17 -2 10 -14 -20 -36 2 -36 36 0 16 -3 30 -6
29 -19 -2 -33 5 -56 27 -14 14 -25 31 -25 37 0 6 9 1 20 -12 11 -13 23 -21 26
-17 3 3 -8 19 -25 36 -17 17 -31 38 -31 48 0 13 -3 14 -8 6 -5 -9 -12 -1 -21
23 -9 25 -16 32 -21 24 -5 -8 -10 -2 -15 18 -3 18 -4 36 0 42 3 5 -1 10 -10
10 -9 0 -14 4 -11 9 4 5 1 11 -5 13 -16 5 -20 118 -5 118 22 0 13 40 -9 41
-17 1 -16 2 5 9 14 4 18 8 10 9 -9 1 -17 11 -17 23 -2 16 0 19 6 9 5 -8 11 -9
15 -3 3 6 -9 22 -26 37 -18 15 -36 39 -39 54 -3 14 -10 25 -15 24 -6 -1 -11 4
-11 12 0 8 5 11 11 8 6 -4 5 1 -3 11 -9 10 -14 37 -14 62 l1 44 -3649 0 -3649
0 0 -5400z m7983 5245 c-3 -9 -8 -14 -10 -11 -3 3 -2 9 2 15 9 16 15 13 8 -4z
m93 -90 c-3 -9 0 -15 10 -15 12 0 13 -3 2 -22 -12 -22 -14 -28 -17 -54 0 -6
-8 -11 -16 -11 -11 0 -12 4 -4 14 6 7 8 13 4 13 -4 0 -2 6 4 13 6 8 8 17 4 20
-3 4 -1 7 6 7 7 0 9 5 6 10 -4 6 -11 7 -17 4 -6 -4 -6 2 1 15 13 24 26 29 17
6z m87 -22 c-7 -2 -19 -2 -25 0 -7 3 -2 5 12 5 14 0 19 -2 13 -5z m28 -38 c5
4 9 1 9 -5 0 -7 -6 -10 -14 -7 -7 3 -19 0 -26 -6 -10 -9 -11 -9 -4 3 5 8 9 18
10 23 4 19 7 21 11 4 2 -9 9 -15 14 -12z m-53 -9 c-22 -16 -23 -26 -3 -26 8 0
15 -6 15 -13 0 -27 -28 -13 -38 20 -10 32 -9 33 16 33 25 -1 25 -2 10 -14z
m959 -28 c-3 -8 -6 -5 -6 6 -1 11 2 17 5 13 3 -3 4 -12 1 -19z m43 -12 c0 -2
-7 -7 -16 -10 -8 -3 -12 -2 -9 4 6 10 25 14 25 6z m-40 -43 c0 -12 -2 -12 -15
1 -8 8 -15 17 -15 20 0 3 7 3 15 0 8 -4 15 -13 15 -21z m-820 -14 c0 -5 -4 -9
-10 -9 -5 0 -10 7 -10 16 0 8 5 12 10 9 6 -3 10 -10 10 -16z m875 11 c-3 -5
-11 -10 -16 -10 -6 0 -7 5 -4 10 3 6 11 10 16 10 6 0 7 -4 4 -10z m95 0 c0 -5
-5 -10 -11 -10 -5 0 -7 5 -4 10 3 6 8 10 11 10 2 0 4 -4 4 -10z m-197 -34 c-4
-6 -8 -17 -10 -25 -1 -7 -7 -19 -13 -25 -9 -8 -10 -4 -4 18 4 18 2 31 -6 36
-7 5 -2 8 14 8 16 0 23 -5 19 -12z m-722 -28 c-10 -11 -11 -10 -5 5 5 13 2 16
-11 11 -12 -5 -15 -13 -10 -28 4 -11 8 -30 9 -41 2 -12 2 -13 -1 -2 -2 9 -8
17 -12 17 -4 0 -8 13 -9 29 -2 21 3 31 15 34 25 5 40 -10 24 -25z m769 22 c0
-5 -4 -10 -10 -10 -5 0 -10 5 -10 10 0 6 5 10 10 10 6 0 10 -4 10 -10z m160 6
c0 -3 -4 -8 -10 -11 -5 -3 -10 -1 -10 4 0 6 5 11 10 11 6 0 10 -2 10 -4z m35
-6 c3 -5 2 -10 -4 -10 -5 0 -13 5 -16 10 -3 6 -2 10 4 10 5 0 13 -4 16 -10z
m-402 -41 c-5 -5 -9 3 -11 19 -1 24 0 25 9 9 7 -11 7 -23 2 -28z m54 21 c-3
-11 -1 -20 4 -20 5 0 9 6 10 13 0 9 2 9 6 -1 2 -6 8 -10 12 -8 4 3 13 0 21 -5
13 -9 13 -10 0 -8 -34 3 -50 -2 -50 -16 0 -23 -26 -29 -52 -11 -12 9 -17 16
-10 16 7 0 17 10 22 23 7 17 9 18 9 5 1 -10 6 -18 11 -18 6 0 9 3 9 8 -3 17 1
42 7 42 4 0 4 -9 1 -20z m-139 -15 c-3 -3 -9 2 -12 12 -6 14 -5 15 5 6 7 -7
10 -15 7 -18z m212 15 c0 -5 -4 -10 -10 -10 -5 0 -10 5 -10 10 0 6 5 10 10 10
6 0 10 -4 10 -10z m-650 -32 c0 -13 -23 -5 -28 10 -2 7 2 10 12 6 9 -3 16 -11
16 -16z m227 -20 c-3 -8 -6 -5 -6 6 -1 11 2 17 5 13 3 -3 4 -12 1 -19z m158 1
c-4 -5 -1 -9 4 -9 6 0 11 -4 11 -8 0 -5 -6 -9 -13 -9 -7 0 -13 11 -13 23 0 12
4 20 8 18 5 -3 6 -10 3 -15z m610 11 c-3 -5 -11 -10 -16 -10 -6 0 -7 5 -4 10
3 6 11 10 16 10 6 0 7 -4 4 -10z m-1076 -26 c4 3 8 -4 8 -15 2 -17 0 -17 -13
-5 -8 8 -13 23 -13 33 1 17 2 17 6 0 2 -9 8 -15 12 -13z m508 20 c-3 -3 -12
-4 -19 -1 -8 3 -5 6 6 6 11 1 17 -2 13 -5z m13 -23 c0 -6 -4 -12 -8 -15 -5 -3
-9 1 -9 9 0 8 4 15 9 15 4 0 8 -4 8 -9z m-533 -43 c-3 -8 -6 -5 -6 6 -1 11 2
17 5 13 3 -3 4 -12 1 -19z m40 0 c-3 -8 -6 -5 -6 6 -1 11 2 17 5 13 3 -3 4
-12 1 -19z m1120 16 c-3 -3 -12 -4 -19 -1 -8 3 -5 6 6 6 11 1 17 -2 13 -5z
m106 -11 c-7 -2 -19 -2 -25 0 -7 3 -2 5 12 5 14 0 19 -2 13 -5z m-2099 -19 c3
-8 2 -12 -4 -9 -6 3 -10 10 -10 16 0 14 7 11 14 -7z m1511 -5 c-5 -15 -4 -19
4 -15 6 4 11 3 11 -3 0 -5 -4 -12 -9 -15 -12 -8 -22 20 -15 39 9 23 16 18 9
-6z m-658 -11 c-3 -8 -6 -5 -6 6 -1 11 2 17 5 13 3 -3 4 -12 1 -19z m533 12
c0 -5 -2 -10 -4 -10 -3 0 -8 5 -11 10 -3 6 -1 10 4 10 6 0 11 -4 11 -10z
m-316 -8 c3 -5 -1 -9 -9 -9 -8 0 -12 4 -9 9 3 4 7 8 9 8 2 0 6 -4 9 -8z m1007
-42 c6 0 7 -5 3 -11 -10 -16 -24 10 -22 41 1 24 1 24 5 -2 2 -16 9 -28 14 -28z
m-1163 15 c7 -15 8 -25 2 -25 -6 0 -10 7 -10 15 0 7 -8 19 -17 24 -15 9 -16
10 -2 11 9 0 21 -11 27 -25z m92 15 c0 -5 -5 -10 -11 -10 -5 0 -7 5 -4 10 3 6
8 10 11 10 2 0 4 -4 4 -10z m-168 -18 c3 -11 0 -19 -7 -19 -7 0 -10 8 -7 19 2
10 6 18 7 18 1 0 5 -8 7 -18z m122 10 c2 -4 -4 -8 -14 -8 -10 0 -16 4 -14 8 3
4 9 8 14 8 5 0 11 -4 14 -8z m-64 -12 c0 -5 -2 -10 -4 -10 -3 0 -8 5 -11 10
-3 6 -1 10 4 10 6 0 11 -4 11 -10z m-857 -25 c-7 -21 -12 -19 -10 4 0 11 5 18
9 15 4 -3 5 -11 1 -19z m1199 0 c-2 -14 -7 -25 -11 -26 -3 0 -13 -2 -22 -4 -9
-1 -16 3 -16 11 0 10 4 11 14 3 10 -9 15 -5 23 15 12 33 19 34 12 1z m64 5
c20 0 17 -17 -6 -40 -11 -11 -15 -20 -10 -20 6 0 10 -4 10 -10 0 -5 -11 -10
-25 -10 -14 0 -25 5 -25 11 0 5 5 7 10 4 6 -3 10 -1 10 4 0 6 -4 11 -10 11 -5
0 -10 5 -10 11 0 6 6 9 13 6 24 -9 40 8 22 23 -13 11 -15 10 -9 -6 6 -15 4
-17 -6 -7 -11 10 -11 15 1 29 8 10 15 12 17 5 2 -6 10 -11 18 -11z m44 -4 c0
-8 -4 -18 -10 -21 -5 -3 -10 3 -10 14 0 12 5 21 10 21 6 0 10 -6 10 -14z
m-377 -30 c-3 -4 -9 -2 -14 5 -13 22 -11 31 5 17 8 -7 12 -17 9 -22z m-26 -28
c-3 -8 -6 -5 -6 6 -1 11 2 17 5 13 3 -3 4 -12 1 -19z m293 8 c0 -15 -36 -14
-49 0 -3 4 2 4 11 1 10 -3 20 -2 23 3 9 14 15 12 15 -4z m-215 -16 c3 -6 -1
-7 -9 -4 -18 7 -21 14 -7 14 6 0 13 -4 16 -10z m77 -4 c7 4 8 2 4 -5 -9 -13
-26 -5 -25 12 0 9 2 8 6 -1 2 -6 10 -9 15 -6z m-97 -16 c3 -5 1 -10 -4 -10 -6
0 -11 5 -11 10 0 6 2 10 4 10 3 0 8 -4 11 -10z m-35 -9 c0 -6 -4 -12 -8 -15
-5 -3 -9 1 -9 9 0 8 4 15 9 15 4 0 8 -4 8 -9z m-33 -7 c-3 -3 -12 -4 -19 -1
-8 3 -5 6 6 6 11 1 17 -2 13 -5z m204 -11 c13 -16 12 -17 -3 -4 -10 7 -18 15
-18 17 0 8 8 3 21 -13z m37 8 c11 -7 10 -9 -3 -14 -9 -4 -14 -3 -10 2 3 5 -1
12 -7 14 -7 3 -8 6 -3 6 6 0 16 -3 23 -8z m72 -1 c0 -5 -4 -10 -10 -10 -5 0
-10 5 -10 10 0 6 5 10 10 10 6 0 10 -4 10 -10z m881 -17 c0 -25 1 -26 9 -8 8
19 9 19 9 -1 1 -26 -25 -39 -33 -18 -9 24 -7 54 4 54 6 0 10 -12 11 -27z
m-1147 -7 c-3 -9 -11 -16 -18 -16 -6 0 -4 -4 4 -10 8 -5 11 -12 7 -16 -9 -10
-17 -1 -22 25 -2 12 0 19 4 16 5 -3 12 2 15 11 4 9 9 15 11 12 3 -3 3 -13 -1
-22z m36 14 c0 -5 -4 -10 -10 -10 -5 0 -10 5 -10 10 0 6 5 10 10 10 6 0 10 -4
10 -10z m20 -30 c0 -5 -5 -10 -11 -10 -5 0 -7 5 -4 10 3 6 8 10 11 10 2 0 4
-4 4 -10z m70 -10 c6 -11 8 -20 6 -20 -3 0 -10 9 -16 20 -6 11 -8 20 -6 20 3
0 10 -9 16 -20z m89 15 c-3 -2 -14 -6 -25 -8 -10 -1 -25 -6 -31 -10 -7 -5 -13
-4 -13 2 0 5 6 12 13 14 16 7 62 8 56 2z m-132 -47 c-3 -8 -6 -5 -6 6 -1 11 2
17 5 13 3 -3 4 -12 1 -19z m30 -10 c-3 -8 -6 -5 -6 6 -1 11 2 17 5 13 3 -3 4
-12 1 -19z m1110 -17 c0 -11 -5 -18 -9 -15 -4 3 -5 11 -1 19 7 21 12 19 10 -4z
m-1167 -5 c0 -2 -9 -6 -20 -9 -11 -3 -20 -1 -20 4 0 5 9 9 20 9 11 0 20 -2 20
-4z m103 -12 c18 -7 22 -16 11 -27 -4 -3 -13 1 -21 9 -15 15 -38 10 -28 -7 4
-5 1 -9 -5 -9 -7 0 -9 7 -6 16 3 9 6 20 6 26 0 5 6 7 13 4 6 -3 20 -9 30 -12z
m1007 6 c0 -5 -2 -10 -4 -10 -3 0 -8 5 -11 10 -3 6 -1 10 4 10 6 0 11 -4 11
-10z m-1167 -6 c-7 -3 -9 -13 -6 -22 4 -14 3 -14 -5 -2 -12 16 -7 30 11 29 9
0 9 -2 0 -5z m41 -15 c-3 -6 0 -15 7 -20 8 -5 10 -9 4 -9 -5 0 -17 5 -25 10
-13 9 -13 11 0 20 20 13 23 12 14 -1z m56 3 c0 -13 -12 -22 -22 -16 -10 6 -1
24 13 24 5 0 9 -4 9 -8z m10 -50 c0 -11 -3 -12 -13 -3 -8 6 -17 8 -20 4 -4 -3
-7 -1 -7 5 0 6 9 10 20 9 11 -1 20 -8 20 -15z m-1400 -54 c67 -32 170 -141
208 -219 28 -60 84 -129 104 -129 4 0 8 -6 8 -14 0 -8 11 -27 24 -43 20 -24
24 -39 23 -80 -1 -28 -5 -49 -9 -46 -5 2 -8 -1 -8 -7 0 -6 -5 -8 -12 -4 -8 5
-9 2 -5 -9 3 -9 3 -16 -1 -15 -15 3 -62 -15 -62 -23 0 -5 -8 -9 -18 -9 -10 0
-27 -7 -39 -15 -20 -14 -22 -24 -22 -113 -1 -103 -2 -119 -16 -167 -13 -46
-69 -193 -103 -265 -59 -129 -73 -165 -93 -244 -11 -45 -24 -85 -29 -91 -4 -5
-6 -18 -5 -28 2 -9 -1 -15 -6 -11 -5 3 -9 -5 -9 -18 0 -13 -16 -68 -35 -123
-20 -55 -37 -113 -40 -130 -2 -16 -10 -52 -16 -80 -7 -27 -11 -52 -10 -54 2
-2 -1 -7 -6 -10 -17 -12 -61 -123 -77 -193 -3 -15 -11 -40 -18 -55 -6 -15 -12
-32 -13 -38 -3 -24 -19 -72 -30 -95 -7 -14 -19 -40 -25 -57 -7 -18 -17 -33
-22 -33 -5 0 -7 -4 -4 -9 3 -4 1 -23 -5 -42 -6 -19 -13 -47 -16 -64 -3 -16
-11 -45 -19 -63 -20 -50 2 -87 79 -127 27 -14 37 -25 33 -38 -2 -10 0 -15 7
-11 7 3 4 -1 -5 -9 -10 -8 -18 -19 -18 -26 0 -6 -5 -11 -11 -11 -5 0 -7 4 -4
10 6 10 -20 55 -33 55 -4 0 -6 3 -5 7 2 4 -4 5 -12 2 -8 -4 -12 -11 -8 -17 4
-6 0 -8 -10 -4 -11 4 -14 2 -11 -7 8 -21 -26 -42 -74 -45 -7 -1 -11 -5 -8 -9
3 -4 -11 -9 -30 -9 -34 -1 -35 0 -28 30 4 18 15 39 25 48 10 9 16 19 12 23 -3
3 -1 6 5 6 6 0 9 7 6 15 -4 8 -1 15 4 15 11 0 27 59 25 93 0 9 3 17 8 17 5 0
8 44 7 98 -1 108 3 147 21 181 7 12 10 25 7 29 -3 3 1 13 10 23 12 14 15 32
11 83 -3 36 -1 66 4 68 7 3 21 90 20 133 -1 56 -10 98 -22 106 -8 5 -9 9 -3 9
7 0 15 7 18 16 4 9 2 13 -5 8 -6 -3 -3 6 6 20 10 15 24 25 31 22 22 -8 16 12
-6 24 -11 6 -20 15 -20 21 0 6 4 8 8 5 5 -3 9 13 10 34 1 22 -3 40 -8 40 -14
0 -12 26 3 42 14 14 17 27 18 88 0 19 5 43 11 54 8 14 7 17 -4 10 -11 -6 -11
-5 1 9 11 14 11 17 0 17 -11 0 -11 2 1 10 8 5 11 10 7 10 -4 0 -3 9 3 20 9 16
8 19 -6 13 -13 -5 -15 -3 -9 8 14 22 13 50 -1 45 -8 -3 -11 4 -9 20 1 13 -3
24 -9 24 -7 0 -7 3 1 8 7 4 11 21 9 37 -2 17 2 33 8 37 8 6 8 8 -1 8 -7 0 -10
7 -6 16 5 13 8 13 15 2 7 -9 8 -8 6 7 -1 11 6 34 16 50 9 17 14 21 11 10 -5
-15 -3 -17 6 -8 6 6 12 20 14 30 2 22 23 73 29 73 6 0 -2 -27 -13 -45 -3 -6 2
-2 12 8 9 11 17 24 17 31 0 6 9 17 20 24 11 7 20 23 20 37 0 14 7 28 15 31 8
4 15 10 15 16 0 5 -4 7 -8 4 -5 -3 -9 1 -9 8 0 9 7 12 16 9 13 -5 14 -3 4 7
-10 11 -8 17 9 32 12 10 17 18 12 18 -5 0 -10 9 -10 19 0 11 4 18 8 15 14 -9
27 30 16 49 -7 14 -7 17 1 13 11 -7 13 -2 13 51 0 18 5 31 10 30 6 -1 12 10
13 25 2 16 6 38 10 50 4 16 3 19 -3 10 -7 -11 -10 -9 -15 7 -2 11 0 22 7 25 6
2 3 5 -6 5 -10 1 -20 12 -24 26 -3 14 -10 25 -15 25 -5 0 -9 9 -9 21 0 14 -5
19 -14 16 -11 -4 -13 -1 -9 10 5 13 2 15 -11 10 -14 -5 -17 -3 -12 8 3 9 0 15
-10 15 -8 0 -13 -4 -10 -8 3 -5 -8 -6 -25 -4 -16 2 -29 9 -29 15 0 6 -7 2 -15
-9 -13 -18 -14 -18 -15 -1 0 10 -4 15 -10 12 -5 -3 -10 3 -10 14 0 30 11 52
23 44 6 -4 8 0 4 11 -4 9 -3 15 2 12 5 -3 15 8 22 26 11 27 14 29 20 12 7 -18
8 -18 9 1 2 21 5 37 9 45 2 3 4 16 5 29 2 14 8 27 14 29 6 2 8 10 5 18 -3 8 0
14 7 14 7 0 10 7 6 15 -3 8 -1 15 4 15 9 0 29 54 37 102 2 17 10 37 16 44 16
18 78 9 137 -18z m2452 -23 c3 -14 1 -25 -3 -25 -5 0 -9 11 -9 25 0 14 2 25 4
25 2 0 6 -11 8 -25z m38 18 c-8 -3 -18 -11 -22 -17 -5 -7 -8 -4 -8 7 0 11 7
17 23 16 15 0 17 -2 7 -6z m-3422 -15 c7 -7 25 -13 40 -14 42 -2 42 -3 42 -26
-1 -23 -1 -23 -16 2 -14 23 -14 23 -9 3 7 -27 -7 -30 -30 -7 -12 13 -19 14
-28 5 -8 -8 -7 -11 6 -11 9 0 17 -4 17 -10 0 -13 -6 -13 -31 0 -10 6 -19 17
-19 25 0 7 -6 16 -12 18 -7 3 -2 6 12 7 23 1 23 2 5 10 -14 6 -15 9 -4 9 8 1
20 -4 27 -11z m-108 -18 c-10 -6 -11 -10 -3 -10 9 0 10 -7 3 -24 -6 -17 -5
-26 3 -30 7 -2 -1 -4 -16 -3 -25 1 -27 4 -21 32 6 30 20 45 39 45 6 0 3 -5 -5
-10z m3510 -40 c0 -11 -4 -20 -8 -20 -4 0 -8 9 -8 20 0 11 4 20 8 20 4 0 8 -9
8 -20z m50 -16 c0 -8 -19 -13 -24 -6 -3 5 1 9 9 9 8 0 15 -2 15 -3z m-54 -91
c-3 -4 0 -13 7 -21 9 -13 9 -14 0 -8 -8 4 -13 1 -13 -9 0 -10 5 -13 13 -9 6 4
9 4 5 -1 -4 -4 0 -14 10 -22 10 -9 11 -12 2 -7 -29 14 -49 37 -43 48 13 20 12
36 -3 36 -8 0 -14 5 -14 10 0 7 7 7 21 0 11 -7 18 -14 15 -17z m-18 -68 c12
-14 18 -25 13 -25 -5 0 -16 11 -25 25 -9 14 -15 25 -13 25 2 0 13 -11 25 -25z
m-1898 5 c0 -5 -2 -10 -4 -10 -3 0 -8 5 -11 10 -3 6 -1 10 4 10 6 0 11 -4 11
-10z m-5258 -25 c1 -11 10 -23 18 -27 12 -5 12 -7 -2 -7 -10 -1 -18 -5 -18
-10 0 -5 8 -12 18 -14 12 -3 10 -5 -7 -6 -21 -1 -22 -3 -10 -18 10 -11 10 -14
2 -9 -9 5 -13 1 -14 -11 -1 -17 -2 -17 -6 0 -7 28 -20 20 -20 -13 0 -16 -8
-39 -18 -49 -10 -12 -15 -27 -11 -36 4 -11 2 -15 -6 -13 -7 3 -15 18 -16 34
-2 16 -8 35 -14 42 -8 9 -5 12 11 12 17 0 21 5 17 25 -3 15 0 24 7 22 7 -1 11
9 10 26 -1 18 2 25 9 21 7 -5 9 -1 5 9 -3 9 -3 16 1 16 17 -3 32 2 31 9 -2 13
1 25 5 21 2 -2 6 -13 8 -24z m7175 -90 c0 -8 -4 -12 -9 -9 -5 3 -6 10 -3 15 9
13 12 11 12 -6z m-57 -145 c0 -5 -6 -12 -12 -16 -7 -4 -10 -4 -6 1 4 4 3 14
-4 22 -8 11 -7 12 6 7 9 -3 16 -10 16 -14z m-7587 -5 c-3 -9 -8 -14 -10 -11
-3 3 -2 9 2 15 9 16 15 13 8 -4z m7554 -17 c-3 -8 -6 -5 -6 6 -1 11 2 17 5 13
3 -3 4 -12 1 -19z m-60 -20 c-3 -8 -6 -5 -6 6 -1 11 2 17 5 13 3 -3 4 -12 1
-19z m-7474 -69 c-4 -15 -8 -17 -14 -8 -6 11 4 28 18 29 0 0 -1 -9 -4 -21z
m-23 -19 c0 -5 -5 -10 -11 -10 -5 0 -7 5 -4 10 3 6 8 10 11 10 2 0 4 -4 4 -10z
m53 -24 c4 -11 1 -13 -10 -9 -10 4 -14 2 -10 -4 4 -6 0 -13 -8 -17 -20 -7 -19
8 1 28 19 20 20 20 27 2z m7511 -2 c3 -8 2 -12 -4 -9 -6 3 -10 10 -10 16 0 14
7 11 14 -7z m-104 -29 c5 3 11 1 14 -4 4 -5 -2 -8 -11 -6 -29 4 -34 -5 -17
-33 11 -19 12 -22 2 -10 -8 10 -19 14 -23 10 -5 -4 -5 -2 -2 4 4 7 0 15 -9 18
-8 3 -12 11 -9 17 4 6 13 8 21 5 8 -3 14 0 15 7 0 9 2 9 6 -1 2 -6 9 -10 13
-7z m-145 -4 c-3 -5 -1 -12 5 -16 19 -12 10 -24 -14 -19 -22 4 -24 1 -19 -28
3 -18 2 -30 -2 -26 -4 4 -9 25 -10 47 -1 28 2 38 10 34 7 -2 16 0 20 6 3 6 8
11 11 11 3 0 3 -4 -1 -9z m-7274 -26 c11 6 11 5 2 -5 -12 -14 -33 -6 -33 13 0
8 3 7 9 -2 5 -8 14 -10 22 -6z m7319 -11 c0 -8 -5 -12 -10 -9 -6 4 -8 11 -5
16 9 14 15 11 15 -7z m-177 -25 c5 -4 7 -22 3 -44 -9 -48 -15 -41 -21 26 -2
30 -1 47 2 39 3 -8 10 -18 16 -21z m81 6 c3 -8 3 -22 0 -30 -4 -8 -2 -15 4
-15 6 0 8 -9 5 -20 -7 -25 -19 -26 -19 -2 -1 9 -3 32 -7 50 -5 32 6 45 17 17z
m64 -10 c6 11 12 15 12 9 0 -15 -25 -36 -33 -27 -4 3 -7 13 -6 22 0 12 2 11 8
-4 8 -19 8 -19 19 0z m-365 -12 c-17 -6 -4 -33 16 -34 9 0 1 -5 -17 -10 -28
-8 -32 -12 -21 -25 6 -8 9 -17 5 -21 -3 -3 -6 -1 -6 6 0 27 -29 -17 -36 -54
-5 -29 -9 -34 -16 -22 -5 9 -16 14 -26 11 -14 -5 -14 -4 -2 4 8 6 18 8 22 6
10 -6 10 -6 -1 34 -9 30 0 44 14 22 4 -6 11 -5 19 3 8 6 12 15 9 20 -2 4 3 10
11 13 18 7 22 34 5 34 -8 0 -8 5 1 15 7 8 17 12 23 8 8 -5 8 -8 0 -10z m427 7
c0 -5 -4 -10 -10 -10 -5 0 -10 5 -10 10 0 6 5 10 10 10 6 0 10 -4 10 -10z
m-409 -23 c-10 -9 -11 -8 -5 6 3 10 9 15 12 12 3 -3 0 -11 -7 -18z m-88 -4 c5
15 10 15 26 5 11 -7 18 -14 16 -17 -3 -2 -12 2 -20 9 -14 12 -16 10 -10 -16 4
-22 3 -25 -4 -9 -8 19 -9 19 -16 2 -6 -13 -10 -15 -15 -7 -5 9 -10 6 -15 -9
-4 -13 -1 -28 6 -37 6 -8 9 -17 5 -21 -3 -3 -6 -1 -6 6 0 7 -5 9 -10 6 -6 -4
-8 -11 -5 -16 3 -5 -1 -6 -10 -2 -9 3 -12 9 -7 12 5 3 12 20 16 36 10 46 11
49 21 64 7 12 10 11 15 -4 6 -17 7 -17 13 -2z m123 -28 c1 -8 -2 -15 -6 -15
-5 0 -8 9 -7 20 1 21 10 18 13 -5z m294 15 c0 -5 -2 -10 -4 -10 -3 0 -8 5 -11
10 -3 6 -1 10 4 10 6 0 11 -4 11 -10z m17 -12 c-3 -8 -6 -5 -6 6 -1 11 2 17 5
13 3 -3 4 -12 1 -19z m48 3 c-3 -6 -11 -8 -17 -5 -6 4 -5 9 3 15 16 10 23 4
14 -10z m22 -13 c-3 -8 -6 -5 -6 6 -1 11 2 17 5 13 3 -3 4 -12 1 -19z m-569
-21 c0 -22 -34 -55 -45 -44 -3 3 5 10 16 17 12 6 19 15 16 21 -6 8 1 29 9 29
2 0 4 -11 4 -23z m157 -12 c1 -13 -2 -22 -6 -20 -3 3 -6 16 -6 30 0 32 12 22
12 -10z m359 -4 c-2 -3 -12 3 -22 13 -16 17 -16 18 5 5 12 -7 20 -15 17 -18z
m-54 15 c0 -2 -9 -6 -20 -9 -11 -3 -18 -1 -14 4 5 9 34 13 34 5z m-259 -33
c-12 -20 -14 -14 -5 12 4 9 9 14 11 11 3 -2 0 -13 -6 -23z m43 11 c3 -8 2 -12
-4 -9 -6 3 -10 10 -10 16 0 14 7 11 14 -7z m131 -4 c3 0 3 5 0 10 -3 6 -2 10
4 10 5 0 9 -9 8 -19 -1 -16 -4 -18 -22 -9 -11 6 -22 10 -25 9 -2 -1 -6 3 -8 9
-3 9 1 9 16 1 11 -6 23 -11 27 -11z m-145 -20 c0 -5 -5 -10 -11 -10 -5 0 -7 5
-4 10 3 6 8 10 11 10 2 0 4 -4 4 -10z m82 -22 c-8 -8 -9 -4 -5 13 4 13 8 18
11 10 2 -7 -1 -18 -6 -23z m-175 0 c-3 -11 1 -34 9 -50 9 -17 13 -32 11 -34
-2 -3 -10 9 -17 26 -7 16 -17 27 -22 24 -6 -4 -5 3 1 15 7 11 9 21 6 21 -4 0
-3 5 0 10 11 17 18 11 12 -12z m33 12 c0 -5 -5 -10 -11 -10 -5 0 -7 5 -4 10 3
6 8 10 11 10 2 0 4 -4 4 -10z m117 -12 c-3 -8 -6 -5 -6 6 -1 11 2 17 5 13 3
-3 4 -12 1 -19z m144 -1 c-10 -9 -11 -8 -5 6 3 10 9 15 12 12 3 -3 0 -11 -7
-18z m-60 4 c-7 -5 -10 -14 -7 -20 4 -6 0 -11 -9 -11 -13 0 -14 4 -5 20 6 11
16 20 23 20 8 0 8 -3 -2 -9z m-346 -31 c3 -5 -1 -10 -10 -10 -9 0 -13 5 -10
10 3 6 8 10 10 10 2 0 7 -4 10 -10z m232 -32 c-3 -7 -5 -2 -5 12 0 14 2 19 5
13 2 -7 2 -19 0 -25z m-167 10 c0 -4 -4 -8 -9 -8 -6 0 -12 4 -15 8 -3 5 1 9 9
9 8 0 15 -4 15 -9z m-80 -27 c8 -16 8 -21 1 -16 -6 3 -25 3 -43 0 -22 -5 -27
-9 -17 -16 9 -6 10 -9 2 -9 -20 0 -24 17 -9 33 8 8 12 18 8 23 -4 5 1 2 10 -5
15 -11 19 -11 24 3 7 19 7 19 24 -13z m43 9 c3 -11 1 -18 -4 -14 -5 3 -9 12
-9 20 0 20 7 17 13 -6z m-3443 -7 c0 -3 -9 -58 -20 -122 -14 -88 -20 -182 -24
-391 -4 -272 -6 -301 -18 -350 -4 -14 -10 -42 -13 -63 -3 -21 -10 -35 -15 -32
-6 3 -7 -1 -4 -9 7 -19 -13 -56 -31 -56 -7 0 -16 6 -18 13 -3 6 -6 1 -7 -13
-1 -14 -4 -19 -7 -12 -2 6 -10 9 -16 5 -12 -8 -16 -9 -52 -16 -11 -2 -14 -2
-6 0 12 4 12 6 0 15 -10 6 -7 7 11 3 20 -6 23 -5 13 6 -10 10 -18 10 -38 1
-36 -17 -53 -15 -58 6 -3 12 -5 10 -7 -8 -2 -25 -2 -25 -15 5 -8 17 -14 23
-15 15 0 -17 -50 -26 -50 -10 0 6 -11 5 -27 -3 -30 -14 -38 -15 -64 -3 -16 7
-73 -17 -63 -26 3 -4 1 -9 -5 -12 -6 -4 -8 4 -5 20 3 18 1 23 -7 18 -8 -5 -10
-2 -7 8 8 21 -47 14 -70 -8 -15 -15 -14 -16 6 -10 17 6 21 4 16 -7 -3 -10 -17
-14 -40 -11 -32 3 -34 2 -22 -14 12 -15 11 -16 -4 -3 -10 7 -15 17 -12 22 3 5
-2 9 -11 9 -9 0 -14 4 -10 9 3 5 1 12 -5 16 -6 4 -10 -6 -11 -22 0 -24 -1 -25
-8 -8 -5 11 -7 23 -4 28 2 4 -1 7 -7 7 -7 0 -10 -7 -6 -15 3 -8 1 -15 -4 -15
-6 0 -10 7 -10 16 0 14 -3 14 -16 3 -13 -11 -14 -9 -9 13 4 14 2 29 -3 32 -6
4 -8 -2 -5 -14 6 -22 -22 -29 -30 -7 -3 6 -6 0 -6 -15 -1 -29 -21 -40 -21 -13
0 13 -3 13 -20 3 -17 -11 -22 -10 -30 2 -9 13 -10 13 -10 0 -1 -9 -6 -5 -15
10 -8 14 -14 19 -15 12 0 -9 -7 -11 -21 -7 -19 6 -21 4 -16 -14 3 -11 1 -21
-4 -21 -5 0 -9 11 -9 25 0 27 -17 30 -37 5 -14 -18 -6 -35 11 -21 9 8 13 7 13
-3 0 -8 -7 -12 -16 -11 -9 2 -25 4 -36 5 -11 1 -14 4 -7 7 19 7 14 23 -7 23
-11 0 -23 5 -27 12 -5 8 0 9 16 5 16 -4 20 -3 12 5 -5 5 -20 7 -33 3 l-23 -8
22 -17 c19 -16 20 -19 5 -24 -9 -4 -18 -4 -21 -1 -3 3 1 5 9 5 9 1 6 7 -9 20
-13 10 -23 23 -22 27 0 4 -12 9 -27 10 l-28 2 30 -9 c17 -4 26 -8 22 -9 -4 0
-3 -10 3 -20 13 -25 -1 -34 -32 -21 -21 9 -20 10 7 5 l30 -6 -23 17 c-13 9
-35 17 -48 18 -23 1 -23 2 -7 15 17 12 16 13 -4 6 -14 -4 -23 -2 -23 4 0 6 -9
11 -21 11 -11 0 -17 -4 -14 -10 3 -6 -1 -7 -9 -4 -9 3 -16 1 -16 -4 0 -6 8
-13 18 -15 9 -2 0 -2 -20 0 -32 4 -38 2 -39 -14 -1 -16 -2 -16 -6 0 -2 9 -10
17 -16 17 -7 0 -19 12 -28 26 -14 22 -17 24 -22 10 -4 -10 -3 -14 3 -11 18 11
29 -29 13 -50 -14 -19 -14 -19 -8 8 5 18 3 27 -5 27 -6 0 -8 -4 -5 -10 3 -5 2
-10 -4 -10 -5 0 -12 6 -14 13 -3 7 -6 5 -6 -5 -1 -18 -31 -14 -31 4 0 5 5 6
10 3 12 -7 12 2 0 30 -7 16 -9 17 -9 3 -1 -20 -33 -32 -63 -22 -21 6 -22 5 -8
-12 14 -18 14 -18 -6 -1 -11 9 -24 14 -28 10 -17 -18 -33 -10 -29 16 3 23 2
23 -6 6 l-10 -20 -1 20 c-1 18 -2 18 -11 -3 -9 -23 -29 -22 -29 1 0 7 4 6 10
-3 8 -12 10 -11 10 7 0 16 -4 21 -15 17 -8 -4 -15 -11 -15 -17 0 -7 -4 -7 -12
1 -7 7 -16 12 -22 12 -5 0 -6 -3 -3 -7 4 -3 -2 -13 -14 -21 -11 -8 -23 -11
-27 -7 -3 3 0 10 7 14 9 6 6 10 -13 15 -14 3 -26 11 -26 17 0 6 7 9 14 6 10
-4 13 -1 9 9 -5 14 -7 14 -21 0 -13 -12 -13 -18 -2 -31 11 -13 10 -14 -4 -9
-11 4 -24 -2 -39 -19 -17 -19 -26 -23 -42 -16 -18 9 -18 9 3 5 18 -3 22 -1 18
10 -3 9 -1 12 4 9 6 -3 10 -1 10 5 0 8 -9 10 -23 6 -20 -5 -23 -2 -22 17 1 12
9 24 20 26 12 2 14 5 6 11 -8 4 -23 -4 -40 -20 -18 -19 -36 -27 -56 -25 -17 1
-29 7 -27 13 3 15 -11 15 -26 0 -7 -7 -13 -9 -13 -5 -1 4 -3 12 -4 17 -1 6 -3
15 -4 21 0 5 -6 7 -11 4 -6 -4 -8 -10 -6 -14 3 -3 -4 -7 -15 -7 -17 0 -19 5
-14 31 5 23 4 26 -4 15 -6 -8 -11 -13 -12 -10 0 3 -2 12 -4 21 -1 8 5 21 15
27 14 8 17 7 17 -6 0 -34 3 -43 13 -37 6 4 7 12 4 18 -4 7 -4 9 0 5 4 -3 20
-2 36 2 21 6 27 5 24 -4 -3 -8 7 -13 28 -14 18 -1 44 -3 58 -5 18 -1 25 3 24
15 -1 10 3 15 8 12 5 -3 7 -12 4 -20 -3 -8 0 -11 8 -8 8 3 19 -9 29 -33 9 -21
16 -33 16 -26 1 7 -4 24 -11 38 -10 21 -9 29 5 43 16 15 17 15 17 -1 0 -11 5
-15 11 -11 6 3 8 15 6 26 -4 14 -2 17 7 9 7 -6 16 -8 19 -4 13 12 7 -13 -5
-26 -9 -9 -9 -12 -1 -7 6 3 13 3 16 -1 2 -5 2 -2 0 6 -2 9 3 12 18 8 13 -3 28
1 37 9 12 13 16 13 23 2 7 -10 9 -8 10 7 1 15 2 16 6 4 3 -14 9 -15 34 -6 16
6 29 15 29 19 0 13 40 9 40 -4 0 -8 5 -6 11 4 5 10 16 15 24 12 8 -4 15 -1 15
6 0 8 9 6 28 -6 21 -14 24 -14 14 -2 -9 11 -10 18 -2 23 5 3 10 1 10 -4 0 -6
5 -11 11 -11 5 0 7 5 4 10 -3 6 3 10 14 10 12 0 21 4 21 10 0 5 3 9 8 8 14 -3
62 14 62 23 0 5 3 8 8 8 4 -1 23 -1 42 1 29 1 32 3 15 10 -15 7 -10 8 21 8 29
-1 48 5 65 20 12 12 31 22 40 22 10 0 19 5 21 12 2 6 20 12 40 12 26 1 34 5
30 15 -3 9 -1 12 6 7 6 -3 13 -2 17 3 3 5 14 8 25 6 13 -2 20 2 20 11 0 8 10
14 26 14 14 0 23 4 19 10 -3 6 1 10 11 10 9 0 23 8 31 18 9 10 11 11 7 2 -5
-10 1 -8 16 5 14 12 20 14 15 5 -8 -13 -7 -13 8 -1 9 7 17 10 17 6 0 -4 7 -2
15 5 8 7 12 17 8 23 -3 5 -1 7 5 3 6 -3 13 -2 17 4 6 10 56 34 92 45 12 3 20
12 17 18 -3 8 4 13 17 14 12 1 29 9 39 18 11 10 23 14 29 10 7 -3 8 0 5 9 -4
11 0 14 14 11 13 -2 19 2 18 13 -1 16 3 18 38 21 8 0 17 9 21 19 3 11 23 25
45 32 22 7 37 17 34 21 -3 5 2 9 11 9 8 0 18 7 22 16 4 12 8 13 14 3 5 -9 10
-5 14 13 5 20 15 28 41 32 19 4 34 13 34 21 0 8 5 17 12 21 7 4 8 3 4 -4 -5
-8 -2 -10 8 -6 9 3 13 10 10 15 -3 5 2 9 10 9 9 0 16 3 16 8 0 4 16 16 35 26
19 10 32 23 29 27 -11 18 7 30 24 17 10 -7 14 -9 10 -4 -11 13 30 46 58 46 14
0 23 4 20 8 -2 4 6 9 20 10 13 1 24 -1 24 -5z m3720 -8 c0 -2 -7 -5 -15 -9 -9
-3 -15 0 -15 9 0 9 6 12 15 9 8 -4 15 -7 15 -9z m-253 -17 c-3 -8 -6 -5 -6 6
-1 11 2 17 5 13 3 -3 4 -12 1 -19z m-19 -17 c3 -8 -1 -12 -9 -9 -7 2 -15 10
-17 17 -3 8 1 12 9 9 7 -2 15 -10 17 -17z m152 15 c0 -3 -4 -8 -10 -11 -5 -3
-10 -1 -10 4 0 6 5 11 10 11 6 0 10 -2 10 -4z m-199 -24 c-7 -2 -18 1 -23 6
-8 8 -4 9 13 5 13 -4 18 -8 10 -11z m156 -4 c-3 -8 -6 -5 -6 6 -1 11 2 17 5
13 3 -3 4 -12 1 -19z m300 0 c-3 -8 -6 -5 -6 6 -1 11 2 17 5 13 3 -3 4 -12 1
-19z m-497 -3 c0 -1 -11 -5 -25 -7 -16 -3 -25 -1 -25 7 0 8 9 10 25 7 14 -2
25 -6 25 -7z m174 -11 c3 -8 2 -12 -4 -9 -6 3 -10 10 -10 16 0 14 7 11 14 -7z
m-24 -14 c0 -5 -2 -10 -4 -10 -3 0 -8 5 -11 10 -3 6 -1 10 4 10 6 0 11 -4 11
-10z m-52 -37 c-10 -2 -26 -2 -35 0 -10 3 -2 5 17 5 19 0 27 -2 18 -5z m-121
-49 c0 -20 -4 -31 -11 -28 -15 6 -16 61 -2 61 7 0 12 -15 13 -33z m116 29 c-7
-2 -21 -2 -30 0 -10 3 -4 5 12 5 17 0 24 -2 18 -5z m-40 -40 c-7 -2 -19 -2
-25 0 -7 3 -2 5 12 5 14 0 19 -2 13 -5z m34 -16 c-12 -13 -26 -21 -31 -19 -5
3 2 13 15 23 34 26 43 23 16 -4z m-82 3 c3 -5 1 -10 -4 -10 -6 0 -11 5 -11 10
0 6 2 10 4 10 3 0 8 -4 11 -10z m-1998 -32 c-3 -8 -6 -5 -6 6 -1 11 2 17 5 13
3 -3 4 -12 1 -19z m1958 12 c3 -6 -1 -7 -9 -4 -18 7 -21 14 -7 14 6 0 13 -4
16 -10z m232 -52 c-3 -8 -6 -5 -6 6 -1 11 2 17 5 13 3 -3 4 -12 1 -19z m-97 0
c0 -5 4 -7 8 -4 4 2 8 -4 8 -15 0 -18 -2 -19 -12 -4 -6 9 -16 15 -20 14 -17
-3 -25 1 -20 9 7 11 36 11 36 0z m-55 -18 c-3 -5 -14 -10 -23 -10 -15 0 -15 2
-2 10 20 13 33 13 25 0z m20 -19 c-6 -5 -21 -11 -35 -15 -21 -5 -20 -3 5 9 35
17 42 18 30 6z m12 -63 c-2 -13 -4 -5 -4 17 -1 22 1 32 4 23 2 -10 2 -28 0
-40z m-20 22 c1 -13 -4 -20 -15 -20 -15 0 -15 2 -2 10 12 8 12 10 -5 11 l-20
0 20 9 c11 5 20 9 20 9 1 1 1 -8 2 -19z m-57 -44 c0 -2 -7 -6 -15 -10 -8 -3
-15 -1 -15 4 0 6 7 10 15 10 8 0 15 -2 15 -4z m97 -10 c-3 -8 -1 -17 6 -19 7
-2 -2 -4 -20 -3 -30 1 -37 16 -7 16 8 0 14 5 14 10 0 6 3 10 6 10 3 0 4 -6 1
-14z m-85 -38 c-8 -8 -9 -4 -5 13 4 13 8 18 11 10 2 -7 -1 -18 -6 -23z m-2586
-257 c-4 -5 -1 -11 5 -13 20 -7 22 -99 5 -163 -9 -33 -19 -71 -22 -84 -3 -13
-9 -32 -14 -41 -5 -10 -12 -32 -15 -51 -7 -38 -11 -44 -41 -53 -18 -6 -22 1
-38 69 -10 41 -15 78 -12 83 3 5 7 19 10 33 11 53 48 173 62 200 10 20 22 29
40 29 14 0 23 -4 20 -9z m-3015 -50 c-6 -10 -7 -22 -3 -26 4 -5 1 -5 -6 -1 -9
5 -9 12 -2 27 6 10 13 19 16 19 2 0 0 -8 -5 -19z m39 -46 c7 -8 17 -12 22 -9
5 3 12 -3 15 -15 4 -17 9 -19 24 -10 15 7 19 6 20 -6 2 -27 6 -55 8 -57 6 -7
11 -51 5 -46 -3 3 -7 14 -9 25 -1 10 -7 17 -12 16 -5 -1 -9 8 -9 20 1 13 -6
22 -17 23 -12 1 -13 1 -2 -3 17 -5 21 -23 4 -23 -5 0 -7 -4 -4 -10 3 -5 1 -10
-4 -10 -6 0 -11 8 -12 18 0 16 -1 16 -7 -1 -7 -16 -10 -16 -30 8 -12 14 -20
30 -16 36 3 6 -2 17 -12 25 -11 8 -14 14 -9 13 6 -1 17 -1 25 0 13 1 13 2 0
11 -8 5 -10 10 -4 10 6 0 17 -7 24 -15z m458 -40 c-3 -3 -9 2 -12 12 -6 14 -5
15 5 6 7 -7 10 -15 7 -18z m-471 -70 c0 -20 -4 -19 -17 5 -8 15 -8 18 3 14 8
-3 14 -11 14 -19z m68 -35 c-3 -5 -12 -10 -18 -10 -7 0 -6 4 3 10 19 12 23 12
15 0z m450 -40 c3 -5 1 -10 -4 -10 -6 0 -11 5 -11 10 0 6 2 10 4 10 3 0 8 -4
11 -10z m-118 -32 c-3 -8 -6 -5 -6 6 -1 11 2 17 5 13 3 -3 4 -12 1 -19z m70
16 c-3 -3 -12 -4 -19 -1 -8 3 -5 6 6 6 11 1 17 -2 13 -5z m68 -13 c-3 -6 -11
-11 -16 -11 -5 0 -4 6 3 14 14 16 24 13 13 -3z m855 -15 c0 -3 -4 -8 -10 -11
-5 -3 -10 -1 -10 4 0 6 5 11 10 11 6 0 10 -2 10 -4z m-97 -32 c-3 -9 -23 -13
-36 -6 -4 2 -5 7 -2 12 7 11 41 6 38 -6z m127 5 c0 -15 -18 -19 -23 -6 -3 8 1
14 9 14 8 0 14 -4 14 -8z m440 -13 c0 -2 -9 -2 -20 1 -11 3 -20 9 -20 15 0 5
9 4 20 -2 11 -6 20 -12 20 -14z m-990 10 c0 -2 -7 -7 -16 -10 -8 -3 -12 -2 -9
4 6 10 25 14 25 6z m1867 -493 c23 -21 45 -51 49 -68 4 -16 11 -36 17 -42 5
-7 6 -13 3 -13 -4 0 -4 -6 1 -12 11 -18 13 -36 13 -98 0 -71 -3 -104 -11 -110
-12 -9 -15 -85 -4 -83 6 1 22 4 36 8 18 4 31 1 43 -10 27 -27 6 -88 -33 -97
-8 -2 -26 -14 -39 -28 -13 -14 -20 -18 -16 -10 5 10 0 9 -14 -4 -12 -10 -19
-23 -15 -29 3 -5 1 -7 -5 -3 -6 3 -23 -9 -39 -28 -38 -47 -79 -62 -104 -40
-11 10 -19 22 -19 29 0 6 -11 18 -25 25 -14 7 -25 17 -25 22 0 5 -10 20 -22
33 -41 43 -43 49 -44 115 -1 36 2 56 5 46 7 -17 8 -17 14 -3 4 11 -1 18 -15
23 -16 5 -18 8 -7 15 12 7 12 9 0 9 -11 0 -11 3 -1 15 10 13 9 15 -9 15 -11 0
-21 5 -21 10 0 6 -10 15 -22 20 -14 5 -17 9 -8 10 13 0 13 1 0 10 -13 8 -12
10 3 10 10 0 15 4 12 10 -4 6 7 8 27 4 25 -4 29 -3 18 5 -8 6 -12 11 -9 11 12
0 113 -49 139 -67 13 -10 21 -13 17 -6 -4 6 -3 14 2 18 6 3 9 45 8 96 -2 77
-5 93 -21 105 -11 8 -16 14 -12 14 5 0 3 6 -3 14 -6 7 -9 22 -5 32 5 16 4 16
-5 4 -9 -12 -11 -11 -11 8 0 14 6 22 16 22 13 0 14 3 5 13 -8 11 -1 14 42 16
48 2 56 -1 94 -36z m2014 -166 c-10 -9 -11 -8 -5 6 3 10 9 15 12 12 3 -3 0
-11 -7 -18z m-38 -27 c-13 -5 -23 -14 -23 -20 0 -5 -7 -10 -15 -10 -7 0 -19
-8 -24 -17 -6 -10 -11 -13 -11 -6 0 15 61 63 80 62 8 0 5 -4 -7 -9z m-1144
-133 c-2 -1 -13 -9 -24 -17 -19 -14 -19 -14 -6 3 7 9 18 17 24 17 6 0 8 -1 6
-3z m-1249 -61 c0 -2 -7 -6 -15 -10 -8 -3 -15 -1 -15 4 0 6 7 10 15 10 8 0 15
-2 15 -4z m729 -15 c7 -5 10 -14 7 -20 -5 -8 0 -8 17 -2 18 7 24 6 24 -5 0 -9
-11 -14 -29 -14 -15 0 -28 5 -28 10 0 6 -7 10 -15 10 -16 0 -20 12 -8 23 8 9
15 9 32 -2z m-528 -368 c5 -52 2 -74 -11 -78 -13 -5 -13 -7 0 -15 12 -8 10
-10 -7 -10 -13 0 -23 -4 -23 -8 0 -15 -37 -52 -44 -45 -3 3 -6 -1 -6 -10 0 -9
-9 -21 -20 -27 -11 -6 -20 -17 -20 -25 0 -8 -4 -15 -10 -15 -5 0 -10 -8 -11
-17 0 -12 -2 -13 -6 -5 -4 10 -8 10 -19 1 -8 -6 -14 -17 -14 -23 0 -6 5 -4 10
4 6 9 10 10 10 3 0 -7 -9 -17 -20 -23 -11 -6 -20 -20 -20 -31 0 -12 -8 -23
-20 -26 -11 -3 -17 -10 -13 -16 4 -6 0 -8 -10 -4 -10 3 -17 2 -17 -4 0 -6 -4
-7 -10 -4 -5 3 -7 0 -5 -8 3 -7 -5 -25 -17 -39 -46 -50 -68 -78 -68 -86 0 -11
-77 -72 -92 -72 -10 0 -10 -2 1 -9 11 -7 10 -10 -5 -15 -11 -3 -26 -17 -34
-30 -8 -13 -45 -55 -82 -93 -122 -124 -146 -145 -153 -133 -5 8 -12 7 -24 -4
-14 -13 -20 -13 -31 -3 -10 10 -12 9 -7 -6 4 -11 3 -16 -3 -12 -6 3 -10 2 -10
-3 0 -8 -16 -9 -54 -3 -16 2 5 54 35 83 16 16 29 34 29 39 0 10 6 18 53 71 16
18 42 52 59 76 42 61 9 40 -62 -38 -30 -34 -70 -76 -89 -93 -19 -18 -55 -51
-79 -74 -25 -24 -49 -43 -53 -43 -5 0 -9 -4 -9 -8 0 -10 -99 -62 -118 -62 -6
0 -12 -4 -12 -8 0 -5 -23 -9 -52 -11 -28 -1 -56 -5 -61 -8 -5 -3 -13 0 -17 6
-4 7 -17 13 -28 14 -12 1 -22 1 -22 2 0 0 4 15 9 33 11 37 5 43 -9 10 -8 -22
-9 -22 -9 -2 -1 13 8 25 24 32 14 6 25 18 25 27 0 8 7 15 16 15 9 0 33 13 53
29 20 15 47 34 60 41 29 15 31 17 91 67 63 53 150 133 144 133 -3 0 8 12 25
26 17 14 29 29 27 33 -3 4 9 13 25 20 16 7 29 16 29 21 0 4 16 24 35 45 19 21
31 43 28 48 -3 6 -1 7 4 4 6 -4 23 11 38 33 15 22 32 40 38 40 6 0 8 3 4 6 -3
3 -2 11 4 18 27 33 77 99 99 131 80 115 164 139 207 61 19 -34 8 -52 -114
-185 -23 -25 -43 -53 -43 -62 0 -9 -7 -22 -15 -29 -8 -7 -15 -17 -15 -22 0 -5
-8 -18 -18 -29 -11 -11 -24 -38 -31 -60 -7 -22 -16 -37 -21 -34 -6 4 -10 1
-10 -6 0 -7 -14 -25 -32 -41 -17 -15 -29 -30 -26 -34 3 -3 22 11 41 31 20 20
49 44 66 53 31 18 297 267 440 414 81 83 100 98 102 81z m-4806 -803 c3 -6 -1
-7 -9 -4 -18 7 -21 14 -7 14 6 0 13 -4 16 -10z m-42 -20 c4 0 5 6 1 13 -4 6
-3 9 1 5 5 -5 10 -19 11 -33 3 -27 -5 -22 -36 20 -11 16 -11 17 0 8 8 -7 18
-13 23 -13z m51 -63 c7 -6 4 -7 -6 -3 -11 3 -21 -2 -27 -12 -5 -9 -13 -14 -16
-10 -4 4 0 14 9 23 9 9 16 22 17 28 0 7 3 5 6 -3 3 -8 11 -19 17 -23z m56 -23
c0 -3 -7 -1 -15 6 -8 7 -15 17 -15 22 0 5 7 3 15 -6 8 -8 15 -18 15 -22z
m1537 9 c16 -11 22 -11 25 -2 3 9 11 7 26 -7 53 -47 62 -54 67 -54 14 1 33
-18 44 -48 8 -18 16 -31 18 -28 3 2 -1 14 -7 26 -9 17 -9 25 1 34 8 7 10 7 6
0 -9 -16 16 -75 29 -70 8 3 11 -5 7 -25 -3 -22 0 -29 12 -29 9 0 13 -5 9 -11
-4 -8 1 -9 16 -4 15 5 20 4 16 -4 -4 -6 0 -11 8 -11 9 0 16 -6 16 -12 0 -9 4
-8 10 2 8 13 10 12 10 -3 0 -10 4 -16 9 -13 5 4 11 1 13 -4 2 -6 12 -13 23
-14 11 -2 19 -8 18 -14 -1 -6 5 -9 15 -7 9 1 34 -14 54 -34 21 -20 41 -36 45
-36 4 0 21 -12 37 -27 17 -16 36 -28 43 -28 7 0 13 -7 13 -15 0 -8 7 -15 15
-15 8 0 14 -3 13 -7 0 -5 2 -16 7 -26 6 -15 10 -16 17 -5 6 9 7 6 3 -9 -3 -12
-1 -24 5 -28 21 -13 62 -12 67 1 3 8 9 12 13 9 4 -3 11 2 14 11 3 8 10 13 14
10 5 -3 8 5 7 17 -3 27 25 77 42 77 8 0 18 11 25 25 6 13 14 22 19 20 4 -3 15
2 23 11 12 11 16 12 16 2 0 -10 3 -9 10 2 5 8 10 11 10 5 0 -5 5 -3 10 5 7 10
13 11 18 5 9 -13 22 -13 41 -1 9 6 16 6 18 -1 2 -5 16 -8 31 -6 21 4 24 2 12
-6 -13 -9 -13 -11 3 -11 9 0 17 5 17 10 0 18 28 11 44 -11 11 -16 26 -22 59
-23 32 -1 44 -5 43 -16 -1 -8 9 -16 22 -18 12 -2 22 -10 22 -18 0 -9 7 -14 18
-12 9 2 16 -2 15 -9 -2 -7 4 -10 12 -7 8 4 15 2 15 -4 0 -5 8 -13 17 -16 14
-6 14 -3 -3 16 -10 12 -26 28 -34 35 -12 11 -10 11 12 2 15 -7 25 -15 23 -20
-3 -4 8 -16 25 -25 21 -13 26 -21 17 -27 -8 -5 -5 -7 8 -4 11 2 19 8 18 14 -1
6 5 10 15 8 9 -2 17 -4 17 -5 0 -1 15 -3 32 -5 22 -2 31 1 26 9 -4 6 1 5 10
-3 16 -13 16 -14 0 -27 -17 -12 -17 -13 2 -10 11 2 21 9 21 17 1 8 3 19 4 24
1 6 1 18 0 29 -1 11 3 15 9 12 14 -9 14 0 0 26 -10 18 -9 20 5 15 13 -5 14 -3
3 13 -14 23 -23 25 -30 8 -4 -10 -6 -10 -6 0 -1 7 7 16 17 19 9 4 24 13 32 21
12 13 11 14 -10 8 -14 -3 -19 -3 -12 0 6 3 9 11 6 16 -4 6 -2 8 3 5 6 -4 14 0
17 9 4 9 2 13 -5 8 -8 -4 -7 0 0 15 10 18 9 21 -6 21 -15 0 -15 2 -3 9 8 6 18
7 22 5 4 -3 4 5 0 17 -5 12 -5 41 -2 65 5 33 4 44 -7 44 -7 0 -13 5 -13 10 0
6 4 10 9 10 4 0 6 12 3 28 -4 22 -2 25 9 15 7 -7 18 -13 23 -13 6 0 4 5 -4 11
-12 9 -11 10 8 6 15 -4 26 1 33 15 8 15 14 17 24 8 9 -8 15 -8 20 0 3 6 11 8
16 4 6 -3 18 -2 27 2 25 11 65 5 78 -12 14 -17 54 -27 54 -13 0 5 5 9 11 9 5
0 7 -5 3 -12 -11 -17 -12 -68 -2 -62 4 3 8 0 8 -6 0 -6 6 -8 13 -4 6 4 9 4 5
-1 -4 -4 -3 -14 3 -22 10 -11 15 -11 27 -1 13 11 15 10 9 -5 -4 -10 -3 -16 1
-13 8 5 133 -50 142 -63 8 -11 104 -10 118 2 10 8 14 5 19 -11 3 -12 9 -19 14
-16 10 6 41 -22 46 -40 2 -6 9 -32 15 -59 9 -34 17 -46 27 -42 11 4 11 3 2 -9
-7 -8 -10 -19 -7 -25 4 -5 -1 -17 -10 -26 -15 -15 -14 -15 12 -9 28 6 28 6 9
-9 -20 -15 -19 -16 11 -29 17 -7 29 -19 27 -25 -3 -7 7 -17 22 -23 14 -5 23
-14 20 -20 -3 -5 0 -10 8 -10 17 0 40 -47 31 -63 -4 -7 -4 -9 1 -5 11 11 35
-39 40 -82 2 -19 12 -62 22 -95 27 -88 25 -217 -5 -270 -31 -56 -18 -66 73
-56 44 5 74 5 80 -2 7 -6 6 -11 -3 -14 -6 -3 -10 -9 -7 -13 3 -5 16 -5 29 0
13 4 61 10 107 12 79 3 84 2 81 -17 -2 -16 1 -15 14 7 15 22 25 26 61 25 45 0
48 -3 34 -27 -14 -21 38 -52 56 -34 18 17 16 24 -5 24 -16 0 -28 29 -13 30 3
1 29 3 58 6 51 4 52 3 44 -18 -4 -12 -14 -24 -21 -26 -7 -3 -10 0 -6 7 4 6 2
11 -4 11 -6 0 -8 -11 -4 -27 4 -20 3 -24 -4 -14 -11 15 -47 7 -38 -8 7 -10
-51 -21 -112 -21 -24 0 -41 -3 -39 -7 3 -5 -10 -8 -29 -8 -19 0 -34 5 -34 10
0 6 -5 2 -11 -7 -11 -20 -59 -24 -60 -5 0 10 -2 10 -6 0 -2 -7 -11 -13 -19
-13 -10 0 -12 -5 -8 -12 6 -10 4 -10 -7 -2 -17 13 -49 14 -49 2 0 -5 -9 -4
-19 2 -14 7 -23 6 -33 -3 -7 -7 -26 -12 -43 -12 -16 0 -35 -5 -42 -11 -6 -6
-23 -9 -36 -7 -14 3 -36 -3 -51 -12 -14 -10 -26 -14 -26 -10 0 4 -6 2 -14 -4
-16 -13 -78 -22 -70 -10 3 5 -1 10 -8 10 -7 1 -20 3 -28 4 -8 1 -21 3 -27 4
-7 0 -13 9 -14 19 0 10 -3 12 -6 5 -9 -23 -25 -14 -18 10 7 22 7 22 -9 2 -15
-19 -16 -19 -9 -1 4 13 3 17 -5 12 -8 -5 -12 0 -12 13 0 11 -5 23 -10 26 -6 4
-8 11 -5 16 4 5 0 9 -8 9 -16 0 -30 27 -21 41 3 5 0 9 -6 9 -6 0 -8 5 -5 10 3
6 -1 10 -9 10 -8 0 -18 9 -21 21 -7 21 -50 43 -66 34 -5 -4 -6 2 -2 11 4 12 3
15 -5 10 -7 -4 -12 -1 -12 8 0 10 -6 13 -15 10 -9 -4 -15 0 -15 7 0 10 -3 10
-8 3 -4 -7 -15 -8 -27 -3 -11 4 -15 8 -9 8 15 1 13 28 -2 28 -7 0 -12 -5 -11
-11 1 -6 -3 -10 -10 -9 -7 2 -10 -4 -7 -15 4 -12 0 -11 -15 6 -18 21 -20 21
-30 5 -8 -14 -11 -15 -11 -3 -1 8 -7 2 -15 -15 -8 -17 -13 -22 -12 -11 1 10
-4 21 -12 24 -8 3 -11 0 -7 -7 9 -13 -26 -15 -52 -2 -60 30 -92 40 -93 28 0
-6 -7 2 -14 18 -11 24 -14 26 -16 10 -1 -16 -2 -17 -6 -3 -2 9 -10 15 -18 12
-7 -3 -16 3 -19 14 -5 14 -13 18 -26 15 -12 -3 -20 0 -20 7 0 10 -3 10 -15 0
-9 -7 -18 -10 -22 -6 -3 3 -1 6 5 6 7 0 12 5 12 11 0 5 -5 7 -11 3 -6 -3 -16
0 -21 7 -7 11 -9 9 -5 -6 3 -16 -1 -21 -17 -23 -17 -1 -18 1 -6 9 12 9 11 10
-7 6 -13 -3 -24 1 -27 9 -3 8 -12 11 -22 7 -11 -4 -15 -3 -10 5 3 6 1 14 -5
18 -8 4 -9 3 -5 -4 6 -11 -5 -16 -26 -13 -4 0 -5 -6 -2 -14 4 -8 10 -13 14
-10 5 3 6 -4 3 -15 -7 -25 -15 -25 -38 0 -10 11 -20 18 -23 15 -3 -3 -14 12
-24 32 -10 21 -16 30 -14 21 6 -20 -24 -34 -36 -16 -16 26 -9 -12 10 -51 20
-42 18 -61 -6 -61 -15 0 -15 -2 -2 -10 9 -6 10 -10 3 -10 -21 0 -25 21 -7 35
18 13 18 14 2 15 -21 0 -24 16 -5 23 6 3 2 4 -10 4 -18 -1 -21 -6 -17 -27 5
-20 3 -22 -6 -10 -9 12 -10 10 -4 -10 4 -14 11 -27 15 -28 17 -7 -3 -22 -28
-22 -15 0 -23 -3 -20 -7 4 -3 -6 -18 -21 -32 -16 -14 -38 -41 -51 -58 -12 -18
-27 -32 -34 -30 -7 1 -11 -4 -9 -10 1 -7 -7 -13 -18 -13 -11 0 -23 -7 -26 -15
-4 -8 -10 -13 -14 -10 -5 3 -11 1 -14 -3 -9 -15 -53 -6 -75 15 -18 16 -39 81
-36 108 7 50 48 141 75 165 9 8 20 25 24 38 4 12 12 20 17 17 5 -4 12 0 14 7
3 8 18 13 34 12 17 -1 28 3 29 12 1 8 3 20 4 27 2 17 25 18 25 1 0 -7 -4 -11
-9 -8 -4 3 -8 0 -8 -5 0 -6 9 -11 20 -11 12 0 20 7 20 18 0 13 2 14 9 3 6 -8
16 -11 31 -6 18 6 22 4 17 -9 -3 -8 -1 -18 5 -22 6 -4 8 -3 4 4 -3 5 0 12 6
15 17 6 39 -3 33 -13 -3 -5 -1 -11 5 -15 5 -3 10 -2 10 4 0 6 8 8 18 5 13 -4
14 -3 4 4 -11 7 -10 11 4 16 12 5 14 10 7 17 -13 13 -36 2 -28 -12 8 -11 -6
-12 -24 0 -7 5 -11 13 -7 19 9 15 -14 26 -27 13 -14 -14 -27 -14 -27 -1 0 6 7
10 15 10 8 0 15 4 15 10 0 5 -3 9 -7 9 -21 -3 -33 2 -27 12 4 8 9 7 15 -2 7
-12 9 -12 9 0 0 8 7 4 18 -9 18 -22 88 -38 76 -18 -3 5 -15 6 -26 3 -14 -5
-21 -1 -25 13 -3 11 -16 23 -29 26 -18 5 -24 14 -25 34 l-1 27 -10 -27 c-5
-16 -17 -28 -26 -27 -11 0 -12 2 -4 6 6 2 12 12 12 21 0 14 -2 15 -10 2 -5 -8
-12 -11 -16 -7 -4 4 -13 2 -21 -4 -15 -13 -18 1 -3 19 7 9 7 9 -2 2 -7 -5 -16
-10 -21 -10 -4 0 -5 5 -2 10 3 6 4 10 1 10 -3 0 -10 -10 -17 -21 -6 -12 -7
-19 -1 -15 14 9 22 -18 10 -35 -8 -11 -9 -10 -4 4 5 14 1 16 -22 11 -15 -4
-35 -11 -44 -16 -14 -7 -18 -4 -19 9 -1 17 -2 17 -6 1 -2 -10 -9 -18 -14 -18
-5 0 -9 -8 -9 -17 0 -15 -2 -16 -10 -3 -9 13 -10 13 -10 0 0 -12 -2 -12 -8 -2
-7 9 -18 5 -46 -17 -20 -16 -37 -33 -36 -37 1 -4 -14 -14 -32 -23 -31 -14 -63
-47 -63 -63 0 -4 -9 -14 -20 -22 -11 -9 -16 -16 -11 -16 5 0 3 -7 -4 -15 -6
-8 -9 -18 -6 -23 3 -6 -1 -16 -10 -23 -16 -13 -45 -64 -43 -75 0 -4 -5 -10
-13 -15 -7 -5 -14 -13 -14 -19 -3 -23 -5 -24 -14 -10 -6 10 -10 11 -10 3 0 -7
-7 -13 -16 -13 -14 0 -15 -2 -3 -17 8 -9 9 -14 3 -10 -6 3 -19 -8 -29 -26 -11
-18 -29 -42 -41 -54 -18 -18 -23 -19 -28 -8 -3 9 -12 12 -22 8 -11 -4 -15 -2
-11 4 4 6 0 13 -8 17 -8 3 -17 0 -21 -6 -4 -7 -3 -8 4 -4 7 4 12 2 12 -3 0
-18 -18 -12 -34 11 -11 16 -16 18 -17 8 -1 -8 -5 -4 -9 10 -7 21 -8 22 -9 5
-1 -16 -5 -14 -21 12 -11 19 -18 45 -16 63 2 16 -3 39 -11 50 -8 11 -11 20 -6
20 4 0 4 4 -2 8 -14 10 -75 122 -96 175 -15 40 -12 32 -33 100 -10 31 -23 57
-29 57 -7 0 -6 4 3 10 8 5 10 10 4 10 -6 0 -11 10 -10 23 1 12 -4 33 -11 47
-7 14 -13 34 -13 45 0 11 -9 35 -20 53 -13 22 -18 44 -15 67 2 20 0 33 -4 30
-5 -3 -7 4 -4 15 3 11 0 20 -6 20 -6 0 -11 5 -11 10 0 6 7 10 15 10 8 0 15 4
15 10 0 5 -7 7 -15 4 -13 -5 -14 -2 -5 21 7 19 7 31 0 40 -6 7 -7 20 -4 29 4
11 2 16 -7 14 -8 -2 -13 4 -12 12 3 17 -44 43 -60 33 -6 -3 -7 -1 -3 5 4 7 3
12 -2 12 -16 0 -62 52 -55 63 3 6 1 7 -5 3 -7 -4 -12 -1 -12 9 0 9 -4 14 -9
10 -5 -3 -12 -1 -16 5 -3 5 0 10 7 10 7 1 2 10 -12 22 -16 14 -19 19 -7 15 21
-8 22 1 0 25 -9 11 -11 18 -5 18 7 0 12 6 12 13 0 6 10 24 22 38 17 21 31 26
63 26 22 0 50 -7 62 -14z m2323 2 c0 -8 -4 -15 -10 -15 -5 0 -7 7 -4 15 4 8 8
15 10 15 2 0 4 -7 4 -15z m-3928 -30 c-2 -15 0 -25 7 -25 6 0 10 3 10 8 -1 4
-1 15 0 25 1 15 3 16 15 5 8 -8 10 -17 6 -23 -5 -6 -5 -17 0 -25 13 -21 13
-24 -8 -37 -15 -9 -21 -7 -32 11 -12 18 -11 19 2 9 8 -7 18 -10 21 -6 9 9 9
23 0 22 -26 -4 -42 3 -38 16 3 8 7 22 10 30 7 24 13 17 7 -10z m198 -8 c12 -4
12 -6 -2 -6 -10 -1 -22 9 -28 22 -9 19 -9 20 2 6 7 -9 20 -18 28 -22z m70 13
c0 -5 -4 -10 -10 -10 -5 0 -10 5 -10 10 0 6 5 10 10 10 6 0 10 -4 10 -10z
m-295 -9 c3 -5 0 -13 -6 -17 -7 -4 -9 -3 -5 4 3 5 0 13 -6 15 -9 4 -10 6 -1 6
6 1 14 -3 18 -8z m102 -41 c-3 -13 0 -20 9 -20 8 0 14 -4 14 -10 0 -13 -13
-13 -27 1 -10 10 -7 49 4 49 3 0 3 -9 0 -20z m-77 -43 c0 -6 -6 -3 -13 8 -11
14 -16 15 -22 5 -12 -20 23 -42 46 -29 11 5 19 15 19 21 0 7 4 7 13 0 12 -10
17 -12 40 -12 8 0 7 -4 -3 -10 -8 -5 -24 -7 -35 -4 -16 4 -17 3 -5 -5 8 -6 23
-8 34 -5 13 4 16 2 11 -6 -4 -6 -16 -10 -26 -7 -11 3 -23 -2 -29 -11 -8 -15
-9 -14 -10 6 0 19 -3 21 -19 12 -11 -5 -26 -10 -33 -9 -7 0 -4 4 7 8 19 8 19
8 -2 15 -25 8 -31 41 -10 49 14 5 37 -11 37 -26z m42 -89 c-19 -19 -22 -20
-22 -5 0 9 7 17 15 17 8 0 15 5 15 12 0 6 3 8 7 4 4 -3 -3 -16 -15 -28z m1815
16 c-3 -3 -12 -4 -19 -1 -8 3 -5 6 6 6 11 1 17 -2 13 -5z m-1871 -32 c-3 -5
-17 -12 -31 -14 -13 -3 -22 -1 -19 3 3 5 14 9 25 9 10 0 19 5 19 12 0 6 3 9 6
5 3 -3 3 -10 0 -15z m54 -19 c0 -3 -9 -3 -20 0 -17 4 -20 2 -15 -14 5 -14 3
-17 -9 -13 -19 7 -20 16 -5 31 10 10 49 7 49 -4z m-70 -7 c0 -2 -7 -7 -16 -10
-8 -3 -12 -2 -9 4 6 10 25 14 25 6z m97 -38 c-3 -8 -6 -5 -6 6 -1 11 2 17 5
13 3 -3 4 -12 1 -19z m-101 3 c-18 -7 -18 -8 -2 -14 9 -4 14 -11 11 -17 -13
-20 14 -9 29 12 l16 22 0 -22 c0 -12 -5 -22 -11 -22 -5 0 -7 -5 -3 -11 4 -8 0
-9 -15 -4 -22 7 -27 -12 -6 -27 6 -5 6 -8 -2 -8 -6 0 -15 5 -18 10 -4 6 -11 7
-17 4 -6 -4 -8 -2 -4 4 3 5 3 12 -1 15 -5 2 -3 3 4 1 6 -1 13 6 16 17 6 21 -9
27 -16 7 -2 -7 -4 -1 -4 15 0 21 4 27 21 26 20 0 20 -1 2 -8z m128 -34 c-3 -9
-12 -13 -20 -10 -12 4 -11 8 3 18 21 16 26 14 17 -8z m36 13 c0 -5 -2 -10 -4
-10 -3 0 -8 5 -11 10 -3 6 -1 10 4 10 6 0 11 -4 11 -10z m-87 -15 c-3 -9 -8
-14 -10 -11 -3 3 -2 9 2 15 9 16 15 13 8 -4z m116 -31 c-11 -14 -29 -10 -29 6
0 5 7 6 17 3 12 -5 14 -3 8 7 -5 9 -4 11 4 6 9 -6 9 -11 0 -22z m-28 -44 c5 0
9 6 10 13 0 10 2 10 6 0 2 -7 12 -13 21 -14 10 0 12 -3 5 -5 -7 -3 -9 -13 -5
-22 5 -15 4 -15 -12 1 -21 20 -32 22 -39 5 -3 -7 -6 2 -6 20 -1 17 -6 32 -12
32 -6 0 -9 -9 -6 -20 3 -12 0 -20 -7 -20 -8 0 -11 10 -8 29 3 20 8 28 18 24 8
-3 15 1 16 8 0 8 3 -1 5 -18 2 -18 8 -33 14 -33z m-104 15 c-7 -7 -16 -10 -22
-7 -5 3 -4 7 3 10 7 2 10 8 7 13 -4 5 1 6 9 3 12 -5 13 -9 3 -19z m150 3 c-3
-8 -6 -5 -6 6 -1 11 2 17 5 13 3 -3 4 -12 1 -19z m29 -4 c-4 -16 -3 -23 3 -20
5 4 13 1 17 -6 4 -7 4 -10 -1 -6 -4 4 -16 -2 -26 -14 -22 -25 -23 -19 -7 33
12 43 24 54 14 13z m2214 1 c0 -8 -4 -15 -10 -15 -5 0 -7 7 -4 15 4 8 8 15 10
15 2 0 4 -7 4 -15z m-2460 -14 c0 -4 -6 -8 -14 -8 -8 0 -12 6 -9 14 5 13 23 9
23 -6z m30 -12 c0 -5 -4 -9 -8 -9 -5 0 -9 7 -9 15 0 8 4 12 9 9 4 -3 8 -9 8
-15z m75 -9 c3 -5 1 -10 -4 -10 -6 0 -11 5 -11 10 0 6 2 10 4 10 3 0 8 -4 11
-10z m85 -19 c0 -6 -4 -13 -10 -16 -5 -3 -10 1 -10 9 0 9 5 16 10 16 6 0 10
-4 10 -9z m-30 -17 c0 -2 -7 -4 -15 -4 -8 0 -15 4 -15 10 0 5 7 7 15 4 8 -4
15 -8 15 -10z m-73 -16 c-3 -8 -6 -5 -6 6 -1 11 2 17 5 13 3 -3 4 -12 1 -19z
m138 2 c8 -13 -5 -13 -25 0 -13 8 -13 10 2 10 9 0 20 -4 23 -10z m-68 -42 c-3
-8 -6 -5 -6 6 -1 11 2 17 5 13 3 -3 4 -12 1 -19z m44 -3 c0 -5 -5 -11 -13 -13
-10 -3 -10 -1 1 6 11 8 10 11 -5 15 -16 5 -16 6 -1 4 10 -1 18 -6 18 -12z m32
-26 c-9 -9 -12 -7 -10 9 1 14 5 18 11 12 7 -7 6 -14 -1 -21z m-34 -16 c-7 -10
-14 -19 -15 -21 -1 -2 -4 4 -8 13 -3 9 -2 13 3 10 5 -3 12 -1 16 5 3 5 9 10
12 10 3 0 -1 -8 -8 -17z m-34 -32 c3 -5 2 -12 -3 -15 -5 -3 -9 1 -9 9 0 17 3
19 12 6z m-85 -86 c-7 -9 -15 -13 -19 -10 -3 3 1 10 9 15 21 14 24 12 10 -5z
m90 1 c0 -3 -4 -8 -10 -11 -5 -3 -10 -1 -10 4 0 6 5 11 10 11 6 0 10 -2 10 -4z
m23 -16 c3 -11 1 -20 -4 -20 -5 0 -9 9 -9 20 0 11 2 20 4 20 2 0 6 -9 9 -20z
m-26 -16 c-3 -3 -12 -4 -19 -1 -8 3 -5 6 6 6 11 1 17 -2 13 -5z m63 -14 c-8
-5 -19 -10 -25 -10 -5 0 -3 5 5 10 8 5 20 10 25 10 6 0 3 -5 -5 -10z m-135 -9
c3 -5 0 -13 -6 -17 -7 -4 -9 -3 -5 4 3 5 0 13 -6 15 -9 4 -10 6 -1 6 6 1 14
-3 18 -8z m7768 -35 c12 -2 42 -7 67 -11 25 -5 48 -8 53 -7 4 1 7 -5 7 -13 0
-18 -21 -20 -37 -4 -8 8 -14 5 -23 -11 -10 -18 -14 -20 -21 -9 -5 8 -9 10 -9
4 0 -5 -21 -11 -48 -13 -26 -1 -66 -4 -89 -7 -23 -2 -45 0 -48 5 -4 7 -13 7
-24 0 -12 -6 -22 -5 -31 3 -10 9 -11 9 -5 -2 7 -11 -2 -13 -51 -7 -32 3 -81
13 -109 20 -43 12 -52 12 -61 0 -10 -13 -12 -12 -18 1 -6 18 -65 12 -79 -8 -6
-8 -7 -6 -3 5 5 16 3 16 -17 5 -12 -6 -25 -16 -28 -21 -4 -4 -10 -3 -13 3 -4
6 -13 11 -19 11 -8 0 -7 -3 2 -9 8 -5 -6 -8 -38 -7 -28 0 -51 -3 -51 -9 0 -6
-3 -6 -8 1 -4 5 -23 9 -42 7 -50 -5 -71 -5 -103 0 -30 4 -49 17 -26 17 8 0 20
5 26 11 15 15 143 22 143 9 0 -6 7 -10 15 -10 8 0 15 4 15 8 0 4 14 9 30 10
17 1 30 -2 30 -8 0 -6 14 -3 32 6 24 13 36 14 50 5 21 -13 31 -14 24 -3 -6 10
75 9 92 -1 7 -5 12 -3 12 4 0 8 4 8 15 -1 11 -9 15 -9 15 -1 0 7 5 9 10 6 6
-3 13 0 16 8 5 15 34 19 34 5 0 -5 8 -5 18 0 9 5 68 10 131 11 63 0 116 3 119
6 3 2 9 2 14 -1 5 -3 19 -7 31 -8z m-7643 -34 c0 -4 -10 -9 -22 -9 -18 -2 -20
0 -8 7 18 12 30 13 30 2z m2550 -16 c0 -3 -4 -8 -10 -11 -5 -3 -10 -1 -10 4 0
6 5 11 10 11 6 0 10 -2 10 -4z m4087 -31 c0 -8 -4 -12 -9 -9 -5 3 -6 10 -3 15
9 13 12 11 12 -6z m-6562 -4 c-3 -6 3 -14 12 -20 10 -6 13 -11 8 -11 -6 0 -16
5 -23 12 -9 9 -15 9 -24 0 -9 -9 -8 -12 7 -12 10 0 16 -3 12 -6 -3 -3 -15 -3
-27 1 -22 7 -22 7 6 26 33 21 38 23 29 10z m6492 -9 c0 -10 -6 -19 -12 -19 -6
0 -12 9 -12 19 -1 10 4 18 12 18 8 0 13 -8 12 -18z m38 9 c3 -5 1 -12 -5 -16
-5 -3 -10 1 -10 9 0 18 6 21 15 7z m145 3 c0 -8 -19 -13 -24 -6 -3 5 1 9 9 9
8 0 15 -2 15 -3z m-6641 -65 c-8 -4 -10 -11 -7 -15 11 -11 -19 -34 -44 -34
-18 0 -20 -2 -8 -9 8 -6 18 -7 22 -5 5 3 15 -1 23 -10 19 -19 20 -32 0 -16
-12 10 -13 6 -9 -29 4 -34 2 -40 -11 -34 -11 3 -13 8 -6 12 7 4 3 13 -9 24
-11 9 -17 23 -14 31 3 8 0 17 -6 21 -8 5 -7 11 2 23 11 13 10 15 -4 9 -10 -3
-18 -3 -18 2 0 5 8 11 18 15 9 3 23 9 31 12 10 5 11 1 6 -16 -5 -16 -4 -20 5
-15 6 4 10 17 8 30 -4 18 -1 21 14 17 15 -4 16 -7 7 -13z m6466 11 c-3 -5 -12
-10 -18 -10 -7 0 -6 4 3 10 19 12 23 12 15 0z m-3889 -68 c-10 -11 -16 -12
-16 -4 0 19 4 27 13 25 4 -2 7 3 8 10 0 9 2 8 6 -1 3 -8 -2 -21 -11 -30z m141
13 c0 -8 -6 -15 -14 -15 -17 0 -17 17 0 23 6 3 12 6 13 6 0 1 1 -6 1 -14z
m-2713 -11 c3 -8 2 -12 -4 -9 -6 3 -10 10 -10 16 0 14 7 11 14 -7z m-94 0 c0
-8 -19 -13 -24 -6 -3 5 1 9 9 9 8 0 15 -2 15 -3z m2694 -40 c4 -9 4 -19 1 -22
-3 -3 -5 0 -5 6 0 7 -4 12 -10 12 -5 0 -6 -7 -3 -17 4 -10 2 -14 -4 -10 -7 5
-9 0 -6 -13 3 -11 0 -20 -6 -20 -6 0 -8 -7 -4 -17 4 -11 3 -14 -6 -9 -7 5 -9
15 -6 25 8 20 16 52 17 69 2 18 25 15 32 -4z m-2680 -33 c-4 -3 -9 0 -11 7 -3
6 -10 9 -15 6 -7 -4 -8 -2 -4 5 6 9 11 9 22 0 8 -6 12 -15 8 -18z m2687 -22
c-26 -28 -28 -48 -3 -26 27 25 35 21 16 -8 -8 -13 -13 -32 -10 -43 4 -13 1
-19 -9 -19 -10 0 -13 8 -11 24 3 13 0 23 -6 23 -5 0 -8 -7 -4 -15 3 -8 1 -15
-4 -15 -6 0 -10 5 -10 11 0 5 -6 7 -12 3 -7 -5 -3 5 10 20 12 16 22 37 22 47
0 9 8 19 18 21 26 6 26 2 3 -23z m-2673 -24 c-3 -3 -9 2 -12 12 -6 14 -5 15 5
6 7 -7 10 -15 7 -18z m3109 19 c-3 -3 -12 -4 -19 -1 -8 3 -5 6 6 6 11 1 17 -2
13 -5z m-410 -66 c-3 -8 -6 -5 -6 6 -1 11 2 17 5 13 3 -3 4 -12 1 -19z m-2664
-15 c-7 -3 -13 -9 -13 -15 0 -6 7 -8 15 -5 8 4 17 2 19 -2 3 -5 -5 -7 -17 -7
-12 1 -27 -2 -34 -6 -6 -5 -14 -4 -18 2 -4 6 -1 9 7 8 7 -2 13 4 12 12 -1 10
8 16 20 17 12 1 15 -1 9 -4z m6967 -3 c0 -5 -2 -10 -4 -10 -3 0 -8 5 -11 10
-3 6 -1 10 4 10 6 0 11 -4 11 -10z m-2480 -28 c0 -15 -2 -15 -10 -2 -13 20
-13 33 0 25 6 -3 10 -14 10 -23z m59 1 c2 -2 -5 -3 -16 -3 -11 0 -20 7 -20 15
0 12 3 12 16 3 9 -7 18 -14 20 -15z m2506 15 c5 4 5 1 1 -6 -6 -10 -11 -10
-22 -1 -8 6 -14 14 -14 16 0 3 6 0 13 -6 8 -6 18 -7 22 -3z m152 -30 c-3 -8
-6 -5 -6 6 -1 11 2 17 5 13 3 -3 4 -12 1 -19z m-367 -13 c0 -2 -9 -3 -19 -2
-11 0 -18 5 -15 9 4 6 34 0 34 -7z m163 -10 c-3 -8 -9 -15 -13 -15 -4 0 -10
-14 -14 -31 l-6 -32 -21 27 c-11 14 -25 24 -30 21 -5 -4 -9 -1 -9 4 0 6 9 11
21 11 15 0 19 5 15 16 -4 10 -2 13 7 7 21 -13 37 -12 37 3 0 9 4 13 10 9 5 -3
7 -12 3 -20z m-1113 5 c0 -5 -5 -10 -11 -10 -5 0 -7 5 -4 10 3 6 8 10 11 10 2
0 4 -4 4 -10z m1657 -22 c-3 -8 -6 -5 -6 6 -1 11 2 17 5 13 3 -3 4 -12 1 -19z
m-697 2 c0 -5 -2 -10 -4 -10 -3 0 -8 5 -11 10 -3 6 -1 10 4 10 6 0 11 -4 11
-10z m332 -14 c4 3 5 -2 1 -11 -5 -13 -7 -14 -14 -3 -7 11 -9 11 -9 -1 0 -11
-3 -11 -15 -1 -13 11 -14 10 -10 -3 4 -8 1 -18 -6 -23 -7 -4 -10 -3 -5 4 3 6
2 13 -4 17 -5 3 -10 2 -10 -3 0 -5 -6 -9 -14 -9 -11 0 -9 7 6 28 19 25 22 26
46 13 14 -7 29 -11 34 -8z m2171 7 c30 -4 36 -8 27 -18 -6 -8 -17 -12 -23 -9
-7 2 -25 0 -42 -6 l-30 -9 35 0 c54 1 62 0 55 -11 -3 -5 -21 -11 -38 -11 l-32
-1 30 -8 c29 -7 29 -8 5 -10 -14 -1 -37 -3 -52 -4 -36 -2 -40 -8 -32 -42 7
-27 7 -27 15 -6 12 31 49 30 49 -2 0 -13 -6 -29 -13 -35 -16 -12 -366 -41
-497 -41 -84 1 -85 1 -63 19 l22 18 -25 11 c-18 9 -24 9 -25 -1 -1 -6 -2 -19
-3 -27 0 -9 -13 -16 -30 -18 -19 -3 -26 0 -21 8 4 7 16 9 27 6 16 -4 14 1 -11
26 -24 23 -34 28 -44 19 -8 -6 -17 -8 -20 -4 -4 3 -14 0 -24 -8 -11 -9 -14
-10 -9 -1 7 11 -5 17 -28 13 -18 -4 -46 11 -40 21 4 7 2 8 -5 4 -8 -6 -9 -12
-2 -20 8 -9 7 -13 -4 -13 -8 0 -12 3 -10 7 2 3 0 12 -6 20 -5 10 -9 11 -9 3 0
-7 -7 -10 -15 -7 -8 4 -15 13 -15 22 0 13 -2 13 -18 -1 -24 -22 -32 -21 -32 3
0 11 4 20 10 20 5 0 7 -8 4 -17 -5 -16 -4 -16 8 -2 9 11 31 16 78 16 97 1 379
13 430 18 25 2 90 7 146 11 55 3 125 9 155 14 l54 8 -62 1 c-43 1 -63 5 -63
14 0 8 -17 12 -47 13 -114 3 -183 8 -195 15 -14 9 374 11 435 2z m-9311 -27
c-2 -9 4 -16 13 -16 9 0 13 5 10 10 -3 6 -1 10 4 10 18 0 12 -19 -9 -30 -17
-9 -22 -7 -30 15 -13 34 -13 38 3 32 6 -2 11 -11 9 -21z m6958 -8 c0 -21 -3
-29 -10 -22 -5 5 -7 19 -4 32 9 31 14 27 14 -10z m269 25 c-3 -19 3 -21 32
-13 26 8 30 7 25 -6 -3 -9 -1 -12 4 -9 6 3 10 -1 10 -9 0 -11 9 -16 29 -16 32
0 48 -14 30 -26 -8 -4 -9 -3 -5 4 5 8 -4 12 -28 12 -41 0 -68 9 -61 20 3 5 1
11 -4 14 -5 4 -12 2 -16 -4 -9 -15 -25 -12 -25 5 0 8 -3 14 -7 14 -25 -4 -34
4 -13 11 14 4 26 8 28 9 1 1 1 -2 1 -6z m678 1 c-3 -3 -12 -4 -19 -1 -8 3 -5
6 6 6 11 1 17 -2 13 -5z m664 -5 c7 -4 -53 -5 -132 -2 -79 3 -146 7 -149 10
-8 8 268 0 281 -8z m-8634 -11 c15 -6 31 -11 36 -10 4 1 7 -2 7 -8 0 -9 -29
-15 -52 -11 -5 0 -8 -4 -8 -10 0 -5 -5 -7 -12 -3 -7 4 -8 3 -4 -4 5 -8 1 -10
-11 -5 -13 4 -15 3 -8 -5 6 -6 23 -13 39 -16 16 -3 26 -2 22 1 -3 3 2 12 12
19 14 10 20 10 35 -3 11 -11 17 -12 17 -4 0 7 5 9 10 6 7 -4 4 -13 -8 -23 -22
-19 -26 -53 -5 -45 7 3 13 0 13 -6 0 -6 -4 -11 -10 -11 -5 0 -10 -7 -10 -15 0
-8 7 -15 15 -15 8 0 12 6 9 13 -3 9 6 13 31 13 34 0 51 -15 20 -17 -34 -3 -40
-5 -38 -16 5 -25 -33 -4 -49 27 -14 28 -18 31 -24 16 -5 -14 -9 -15 -16 -4 -7
10 -9 10 -7 -2 3 -28 -1 -73 -6 -69 -2 3 -7 16 -9 30 -2 13 -5 24 -6 24 -10 0
-5 39 7 50 8 8 10 15 5 15 -5 0 -15 -7 -22 -15 -7 -8 -22 -15 -34 -15 -18 1
-17 3 9 17 l30 17 -25 7 c-14 4 -20 8 -15 8 6 1 3 6 -5 11 -13 9 -13 10 0 10
13 0 13 1 0 11 -13 9 -13 10 0 8 46 -5 64 12 35 33 -15 11 0 9 32 -4z m6969
-16 c-9 -9 -37 8 -31 18 5 8 11 7 21 -1 8 -6 12 -14 10 -17z m411 21 c-4 -3
-2 -12 4 -20 7 -8 8 -13 1 -13 -12 0 -23 26 -15 34 4 3 9 6 11 6 3 0 2 -3 -1
-7z m-1302 -19 c17 -3 48 -6 70 -8 22 -2 76 -11 120 -21 44 -9 94 -18 110 -20
48 -5 92 -14 174 -36 77 -20 96 -27 143 -49 14 -7 32 -9 39 -5 7 5 10 4 5 -3
-3 -6 3 -13 14 -17 23 -7 74 -54 78 -70 1 -5 8 -18 16 -27 11 -12 12 -18 3
-22 -7 -2 -3 -5 9 -5 22 -1 72 13 114 32 14 6 28 12 31 14 3 1 3 -18 -1 -43
-4 -28 -17 -55 -33 -72 -26 -27 -36 -49 -18 -38 5 4 7 -3 4 -14 -6 -23 -74
-65 -123 -75 -19 -4 -40 -11 -45 -16 -15 -11 -184 -48 -248 -54 -29 -3 -63 -7
-77 -10 -48 -10 -340 -14 -340 -6 0 5 -8 8 -17 6 -10 -1 -23 2 -29 6 -7 5 -21
6 -35 1 -13 -5 -39 -5 -59 0 -42 10 -139 20 -200 20 -44 1 -44 1 -21 17 13 8
39 14 58 12 21 -2 33 1 29 7 -7 12 41 25 57 15 8 -5 8 -2 -1 9 -12 14 -9 15
25 8 20 -5 41 -7 45 -4 4 3 8 -1 9 -8 0 -9 2 -10 5 -1 4 8 13 9 27 4 12 -4 36
-6 52 -3 17 2 49 4 72 5 23 0 40 4 37 8 -6 10 44 20 79 15 15 -2 25 -1 22 2
-9 9 126 39 185 41 30 1 71 6 90 11 20 5 49 9 65 9 51 0 65 4 70 20 6 18 65
61 83 61 7 0 12 3 13 8 0 4 2 15 4 24 2 9 -4 19 -12 22 -8 3 -12 10 -9 15 4 5
-8 13 -26 16 -18 4 -39 11 -48 15 -34 18 -107 49 -140 60 -32 10 -54 15 -100
23 -9 2 -20 6 -25 9 -14 8 -83 20 -126 22 -20 1 -43 6 -50 13 -8 6 -34 13 -59
17 -25 3 -51 7 -57 8 -7 1 -13 4 -13 8 0 4 -14 4 -32 2 -22 -3 -35 0 -45 14
-7 10 -13 14 -13 10 0 -5 -7 -3 -15 4 -8 6 -19 9 -24 6 -5 -4 -25 0 -43 9 -33
14 -32 14 32 10 36 -3 79 -8 95 -11z m1169 -5 c-2 -4 0 -10 6 -14 5 -3 10 0
11 7 0 7 5 3 11 -10 8 -16 8 -26 0 -34 -8 -8 -9 -5 -5 10 4 18 2 20 -23 16
-16 -3 -25 -2 -21 2 4 4 2 13 -4 20 -8 10 -6 13 10 11 11 0 18 -4 15 -8z
m-207 -21 c-3 -8 -6 -5 -6 6 -1 11 2 17 5 13 3 -3 4 -12 1 -19z m467 11 c-2
-4 3 -15 12 -23 8 -9 11 -16 5 -16 -6 0 -16 9 -23 19 -9 14 -16 17 -24 10 -8
-7 -15 -6 -20 2 -4 8 -3 9 4 5 7 -4 12 -3 12 3 0 5 9 9 19 8 11 0 18 -4 15 -8z
m116 -36 c0 -16 -36 -17 -46 -1 -5 8 -2 9 9 5 10 -3 17 -2 17 3 0 6 -8 10 -17
10 -10 0 -25 5 -33 11 -12 8 -9 9 13 5 18 -4 27 -2 27 6 1 17 30 -22 30 -39z
m100 15 c0 -5 -5 -8 -11 -8 -8 0 -7 -6 2 -17 10 -11 10 -14 2 -9 -8 4 -13 2
-13 -4 0 -7 -8 -9 -20 -5 -11 3 -20 3 -20 -2 0 -4 -14 -9 -30 -10 l-31 -2 20
25 c11 14 17 33 14 42 -4 13 -2 12 11 -3 15 -19 16 -19 9 -1 -4 13 -3 17 5 12
7 -4 12 -3 12 2 0 6 10 5 25 -1 14 -7 25 -15 25 -19z m-599 5 c13 -16 12 -17
-3 -4 -10 7 -18 15 -18 17 0 8 8 3 21 -13z m-7121 -8 c-7 -9 -15 -13 -19 -10
-3 3 1 10 9 15 21 14 24 12 10 -5z m7340 -5 c20 -16 21 -19 5 -14 -11 4 -25
11 -31 15 -6 5 -15 5 -19 1 -5 -4 -5 -1 -1 6 10 16 17 15 46 -8z m-35 -20 c3
-5 1 -10 -4 -10 -6 0 -11 5 -11 10 0 6 2 10 4 10 3 0 8 -4 11 -10z m-7185 -49
c0 -4 -7 -8 -15 -8 -16 0 -20 9 -9 20 8 8 24 -1 24 -12z m-160 -15 c0 -8 6
-17 13 -19 8 -4 7 -6 -3 -6 -9 -1 -23 8 -33 19 -16 19 -16 20 3 20 11 0 20 -6
20 -14z m225 -5 c3 -5 2 -12 -3 -15 -5 -3 -9 1 -9 9 0 17 3 19 12 6z m8453
-21 c-11 -18 -28 -27 -28 -16 0 6 30 36 36 36 2 0 -1 -9 -8 -20z m33 7 c-6 -8
-7 -18 -3 -22 4 -5 1 -5 -6 -1 -10 6 -10 11 -1 22 6 8 14 14 16 14 3 0 0 -6
-6 -13z m-8601 -50 c0 -4 -7 -1 -16 8 -9 9 -19 13 -22 10 -4 -3 0 -10 8 -15
13 -8 13 -10 -1 -10 -17 0 -29 26 -22 47 5 13 53 -23 53 -40z m-93 11 c-3 -8
-6 -5 -6 6 -1 11 2 17 5 13 3 -3 4 -12 1 -19z m8616 15 c-7 -2 -21 -2 -30 0
-10 3 -4 5 12 5 17 0 24 -2 18 -5z m-8639 -11 c3 -5 -1 -9 -9 -9 -8 0 -12 4
-9 9 3 4 7 8 9 8 2 0 6 -4 9 -8z m380 -109 c3 -7 15 -13 26 -13 12 0 19 -4 15
-9 -3 -6 4 -8 15 -6 11 2 20 -1 20 -7 0 -6 11 -8 25 -6 14 3 25 1 25 -6 0 -6
5 -4 10 4 5 8 10 11 10 7 0 -5 5 -5 11 -1 33 20 496 20 516 0 3 -2 17 -1 32 4
16 4 35 3 46 -2 14 -8 16 -8 9 3 -7 12 -5 12 9 0 14 -11 17 -11 18 0 0 10 2
11 6 2 2 -7 9 -13 14 -13 6 0 8 4 5 9 -3 5 14 5 39 0 25 -5 52 -6 62 -2 10 4
14 2 10 -4 -4 -6 11 -9 38 -9 23 1 41 -2 39 -5 -4 -8 72 -3 86 6 12 7 12 -2 0
-30 -6 -13 -9 -15 -9 -5 -1 13 -2 13 -11 0 -9 -13 -10 -13 -10 0 0 13 -1 13
-10 0 -5 -8 -10 -10 -10 -3 0 13 -32 11 -37 -3 -2 -5 -25 -9 -53 -8 -31 0 -51
-4 -54 -12 -3 -8 -15 -10 -38 -5 -19 5 -43 4 -55 0 -23 -8 -42 -7 -58 3 -6 4
-17 3 -25 -3 -13 -7 -13 -9 -1 -9 8 0 12 -2 9 -5 -3 -3 -17 -1 -32 5 -15 5
-25 6 -21 1 3 -6 -13 -8 -40 -5 -32 4 -45 2 -45 -7 0 -7 -3 -10 -6 -6 -4 3
-20 -1 -36 -9 -15 -8 -34 -14 -41 -13 -26 3 -38 -1 -31 -13 5 -7 3 -8 -7 -2
-20 12 -38 14 -45 3 -3 -5 -15 -9 -27 -9 -15 0 -18 3 -10 8 21 13 -263 5 -287
-8 -12 -6 -28 -9 -36 -6 -8 3 -14 2 -14 -2 0 -5 -13 -9 -30 -10 -50 -3 -60 -5
-60 -12 0 -6 -12 -9 -47 -11 -10 0 -25 -3 -33 -6 -8 -3 -22 -7 -30 -8 -72 -11
-106 -18 -127 -26 -13 -5 -38 -11 -56 -14 -18 -4 -34 -11 -36 -17 -2 -7 -6 -7
-10 1 -5 7 -20 0 -43 -19 -19 -16 -38 -26 -42 -23 -3 3 -6 1 -6 -6 0 -7 -4
-10 -9 -7 -5 4 -23 -2 -41 -11 -23 -14 -30 -23 -27 -40 2 -13 1 -23 -2 -23
-11 0 -10 -39 1 -46 7 -5 8 -2 3 7 -7 11 -6 12 7 2 8 -7 18 -10 21 -6 4 3 7 1
7 -6 0 -7 5 -9 10 -6 6 3 10 1 10 -4 0 -6 6 -10 13 -9 6 2 11 -2 10 -8 -1 -6
8 -11 20 -10 12 1 24 -2 28 -6 3 -4 20 -4 37 1 22 7 30 6 26 -1 -4 -6 1 -8 15
-3 14 4 21 2 21 -7 0 -10 3 -9 10 2 8 12 10 12 10 -5 0 -13 3 -16 8 -8 4 7 17
11 29 10 12 0 19 -5 17 -9 -3 -4 6 -8 20 -8 14 0 26 -5 26 -11 0 -5 4 -8 9 -4
12 7 61 -15 61 -27 0 -5 -6 -6 -12 -3 -7 4 -4 0 6 -9 10 -8 22 -13 26 -11 13
8 60 13 59 7 -3 -22 2 -42 12 -42 6 0 8 7 5 16 -5 14 -4 15 9 4 12 -10 15 -10
16 1 0 10 2 10 5 2 3 -7 12 -9 20 -6 8 3 14 0 14 -6 0 -6 -9 -11 -20 -11 -15
0 -20 -7 -20 -25 0 -14 -4 -25 -9 -25 -4 0 -6 12 -3 26 4 24 3 25 -17 15 -11
-7 -21 -18 -21 -25 0 -7 -7 -13 -15 -13 -8 0 -15 4 -15 9 0 4 5 8 12 8 6 0 8
3 4 7 -4 5 -13 1 -19 -7 -7 -9 -18 -15 -24 -14 -7 1 -19 2 -25 3 -7 1 -2 8 10
15 23 12 23 13 -10 13 -18 0 -28 -2 -21 -4 7 -3 9 -11 6 -19 -4 -11 -8 -12
-13 -4 -5 9 -13 9 -27 2 -14 -8 -23 -8 -31 0 -7 7 -12 8 -12 2 0 -5 -12 -9
-27 -8 -16 1 -28 3 -28 4 0 1 -13 3 -30 5 -38 4 -57 9 -72 18 -7 4 -35 11 -63
14 -27 3 -47 9 -45 13 2 4 -7 5 -20 2 -15 -2 -25 0 -25 7 0 7 -4 10 -9 7 -5
-4 -11 -1 -13 4 -2 6 -13 12 -26 13 -12 0 -22 5 -22 10 0 4 -6 5 -12 1 -8 -5
-8 -2 1 10 8 9 10 16 5 15 -22 -4 -34 2 -34 17 0 8 -5 12 -11 8 -8 -5 -8 -1 0
14 6 11 11 30 11 42 0 12 5 18 10 15 6 -3 10 -1 10 4 0 6 -4 11 -9 11 -6 0 -8
9 -6 20 2 12 -3 21 -16 25 -18 6 -24 18 -20 39 1 5 -2 12 -8 15 -21 13 28 131
54 131 8 0 15 4 15 9 0 13 63 48 121 67 27 9 49 20 49 23 0 4 6 8 13 9 54 6
105 16 119 23 9 5 29 9 44 9 15 0 44 14 68 33 66 52 101 66 168 65 30 -1 49
-6 52 -15z m3289 1 c16 -3 39 -8 53 -10 62 -10 111 -20 146 -29 15 -4 36 -2
48 5 18 10 21 9 15 -1 -6 -9 -3 -10 10 -6 9 4 25 2 33 -5 13 -11 14 -11 7 2
-6 11 -3 10 12 -2 11 -10 27 -18 36 -18 9 0 19 -5 22 -11 4 -5 12 -8 18 -6 7
2 23 0 37 -6 14 -5 40 -9 59 -8 18 1 39 -3 46 -9 10 -8 15 -8 20 0 5 7 11 8
19 1 15 -13 56 -10 56 4 0 5 4 4 9 -4 5 -8 26 -15 46 -16 23 0 42 -7 49 -18 7
-9 15 -15 17 -12 3 2 16 6 31 9 20 3 25 1 21 -10 -3 -8 -10 -11 -17 -7 -6 4
-5 -1 3 -10 10 -13 18 -14 32 -6 13 6 19 6 19 -1 0 -9 -22 -15 -44 -11 -5 1
-41 4 -79 7 -39 3 -73 6 -76 9 -4 2 -36 7 -71 10 -36 4 -71 11 -78 17 -9 8
-11 7 -6 -5 7 -19 -24 -17 -36 2 -5 8 -10 9 -14 3 -3 -6 -18 -8 -34 -5 -15 3
-43 6 -62 8 -19 2 -35 4 -35 5 0 3 -110 21 -200 34 -16 2 -57 14 -90 27 -33
13 -63 22 -67 21 -7 -2 -12 13 -9 30 0 4 -5 5 -12 2 -8 -3 -13 3 -13 16 0 20
4 21 79 4z m-2164 -65 c-14 -28 -27 -31 -22 -5 3 12 11 23 18 23 10 0 11 -5 4
-18z m3216 -130 c2 -9 -3 -16 -11 -16 -10 0 -11 4 -3 13 7 8 6 14 -1 17 -6 3
-6 5 1 3 7 -1 13 -9 14 -17z m4865 -7 c0 -4 19 -6 43 -5 38 3 39 2 17 -8 -15
-6 -47 -8 -80 -3 -36 4 -49 9 -37 13 27 10 57 11 57 3z m-6272 -102 c6 0 12
-7 12 -15 0 -8 8 -15 18 -16 11 0 12 -2 4 -6 -10 -4 -10 -8 -1 -19 6 -8 8 -14
3 -14 -5 0 -2 -5 6 -11 11 -8 12 -12 3 -16 -17 -6 9 -33 32 -33 9 0 13 -4 10
-10 -3 -5 1 -10 11 -10 24 0 44 -31 33 -51 -4 -9 -7 -26 -4 -38 2 -11 -1 -24
-7 -27 -7 -5 -8 -2 -3 6 5 9 4 11 -4 6 -6 -4 -9 -12 -6 -17 7 -11 -46 -79 -61
-79 -7 0 -14 -7 -18 -15 -3 -8 -12 -15 -21 -15 -8 0 -15 -5 -15 -10 0 -6 -3
-9 -7 -8 -15 3 -83 -14 -83 -21 0 -4 -13 -6 -30 -5 -16 1 -30 -1 -30 -5 0 -4
-10 -7 -23 -9 -13 -1 -43 -9 -67 -18 -55 -20 -281 -28 -292 -10 -6 8 -8 8 -8
-1 0 -8 -19 -10 -60 -9 -39 2 -60 -1 -60 -8 0 -7 -4 -6 -8 2 -7 9 -15 10 -35
3 -19 -7 -26 -7 -24 1 1 6 -4 13 -12 16 -8 2 -11 0 -7 -6 4 -6 -9 -9 -34 -8
-28 2 -37 -1 -30 -9 7 -8 5 -12 -5 -12 -14 0 -19 10 -16 30 1 4 -8 2 -18 -5
-11 -7 -17 -17 -15 -23 3 -5 -2 -1 -10 9 -9 11 -16 15 -16 10 0 -6 -10 -10
-22 -9 -13 2 -22 8 -21 14 2 6 -2 11 -7 11 -6 0 -10 -7 -10 -16 0 -14 -2 -15
-17 -3 -9 8 -19 14 -22 14 -3 0 -5 5 -3 10 1 6 -4 2 -12 -8 -19 -25 -25 -4
-12 44 6 24 18 41 33 48 31 14 36 14 27 -1 -6 -10 -4 -10 8 0 16 13 75 12 96
-2 7 -4 12 -1 12 8 0 9 5 16 11 16 5 0 8 -4 5 -8 -2 -4 29 -7 70 -7 42 1 77
-3 80 -7 9 -15 23 2 17 20 -6 15 -5 15 10 3 15 -11 17 -11 17 1 0 10 10 14 30
13 17 -1 30 2 30 6 0 5 18 12 40 15 22 4 40 10 40 13 0 4 13 8 30 9 16 1 49
12 72 25 33 17 60 22 115 22 39 0 75 3 79 8 4 4 19 7 34 7 14 0 30 4 36 10 5
5 18 11 29 12 33 5 68 35 62 52 -4 9 -14 16 -22 16 -9 0 -14 4 -11 8 3 5 -3
18 -14 30 -51 55 -17 120 55 106 11 -2 26 -4 33 -4z m-3613 -189 c-3 -6 -11
-11 -16 -11 -5 0 -4 6 3 14 14 16 24 13 13 -3z m5649 2 c17 -2 37 -4 44 -5 6
-1 12 -5 12 -10 0 -5 4 -6 10 -3 5 3 27 -11 48 -32 24 -25 47 -39 65 -40 65
-2 68 -3 61 -15 -4 -7 -3 -8 5 -4 21 13 113 17 105 5 -3 -6 5 -3 20 6 17 11
26 13 26 6 0 -7 5 -9 13 -4 6 4 23 6 36 4 13 -1 28 3 32 11 7 10 9 10 9 -2 0
-13 1 -13 10 0 6 10 10 11 10 3 0 -9 7 -10 23 -4 12 4 39 6 60 3 20 -2 43 0
50 5 26 21 242 20 230 -1 -4 -6 -1 -6 8 1 20 16 44 11 74 -17 29 -27 31 -42 9
-74 -10 -16 -23 -23 -39 -22 -17 2 -22 -1 -17 -12 3 -10 1 -13 -6 -8 -6 3 -14
2 -17 -4 -5 -8 -11 -8 -19 -1 -8 7 -24 7 -50 0 -20 -6 -46 -7 -56 -4 -11 4
-20 2 -20 -4 0 -5 -10 -8 -22 -6 -12 3 -44 7 -72 10 -28 3 -54 11 -58 18 -6 9
-8 9 -8 -1 0 -9 -5 -10 -17 -4 -10 5 -24 7 -32 4 -10 -3 -11 0 -5 9 6 11 5 12
-7 2 -9 -7 -25 -11 -37 -8 -12 2 -24 0 -27 -4 -2 -5 -17 -6 -31 -3 -20 4 -25
2 -19 -8 6 -10 4 -11 -6 -4 -19 12 -33 12 -41 0 -4 -6 -13 -4 -24 5 -14 11
-16 11 -10 0 7 -10 4 -12 -12 -7 -11 4 -23 3 -26 -2 -3 -5 -21 -7 -40 -6 -20
2 -38 -1 -41 -7 -4 -5 -12 -6 -18 -2 -16 10 -38 13 -33 4 3 -4 -22 -13 -55
-20 -32 -8 -59 -17 -59 -22 0 -4 -10 -11 -22 -15 -13 -4 -26 -12 -30 -18 -5
-7 -8 -7 -8 3 0 10 -3 11 -14 2 -8 -6 -18 -11 -22 -10 -5 1 -11 1 -14 0 -3 -1
-27 -4 -55 -7 -56 -5 -101 -20 -127 -42 -9 -8 -21 -11 -27 -8 -5 4 -16 -2 -23
-11 -7 -10 -19 -18 -25 -19 -7 -1 -22 -2 -34 -2 -14 -2 -19 -7 -15 -17 6 -17
-19 -21 -29 -5 -4 6 -11 8 -16 4 -5 -3 -7 -10 -4 -15 3 -5 -1 -6 -10 -3 -9 4
-13 9 -10 12 3 3 -3 15 -14 26 -19 22 -36 70 -21 61 5 -3 14 3 19 14 13 24 14
42 2 22 -6 -9 -10 -1 -12 27 -3 28 -1 38 8 35 7 -3 10 3 7 19 -2 13 -2 17 2
10 4 -9 12 -5 26 13 16 20 23 23 34 14 13 -11 15 -10 13 7 -1 11 81 44 110 45
35 1 66 13 66 27 0 16 96 103 106 96 5 -3 9 -1 9 5 0 11 40 20 54 12 5 -2 23
-6 40 -8z m2471 -117 c68 -10 164 -19 218 -20 34 -1 56 -5 53 -11 -2 -6 16
-10 45 -9 30 1 46 -2 43 -8 -4 -6 3 -5 14 1 14 7 23 8 27 1 4 -6 10 -8 15 -5
5 3 11 1 15 -5 4 -6 11 -8 16 -4 5 3 42 -2 82 -11 39 -9 81 -18 91 -21 37 -7
91 -27 105 -38 12 -8 13 -8 7 2 -6 11 -4 11 10 3 11 -5 40 -19 65 -29 58 -24
180 -104 198 -130 8 -11 20 -18 28 -15 8 3 13 1 11 -4 -2 -5 10 -21 25 -35 17
-16 24 -29 17 -33 -6 -4 -5 -12 6 -22 10 -10 13 -25 9 -40 -3 -14 -2 -22 3
-19 10 6 -7 -49 -22 -73 -6 -10 -5 -12 2 -7 7 4 12 3 12 -3 0 -5 -8 -15 -17
-20 -14 -8 -15 -10 -3 -11 16 0 -35 -50 -52 -50 -4 0 -7 -5 -5 -12 1 -7 -2
-12 -8 -13 -5 0 -25 -10 -42 -23 -18 -13 -33 -20 -33 -17 0 4 -12 -3 -26 -14
-15 -12 -33 -21 -40 -21 -7 0 -25 -5 -41 -12 -15 -6 -30 -12 -33 -13 -69 -21
-92 -24 -132 -17 -24 5 -52 8 -61 6 -9 -1 -14 2 -11 8 3 5 -2 8 -12 6 -12 -2
-18 2 -16 11 2 11 0 12 -10 4 -7 -5 -23 -13 -35 -15 -17 -5 -24 0 -32 23 -8
23 -7 29 3 29 8 0 17 7 20 16 3 8 10 12 16 9 6 -3 7 1 4 9 -3 9 -2 16 4 16 6
0 13 -6 15 -12 3 -8 6 -6 6 5 1 10 -6 17 -16 17 -13 1 -11 5 9 15 14 8 32 28
39 44 7 16 16 28 20 25 4 -2 11 5 14 17 4 12 12 18 21 15 8 -3 14 1 14 8 0 19
53 36 111 36 47 0 47 0 40 28 -4 15 -11 26 -14 24 -4 -1 -21 12 -39 28 -17 17
-43 33 -57 37 -14 3 -32 10 -38 16 -7 5 -24 7 -38 5 -14 -3 -27 -2 -30 2 -4 6
-17 8 -97 13 -14 1 -24 6 -20 11 3 5 -2 7 -11 3 -9 -3 -19 -2 -22 4 -4 5 -10
7 -15 4 -5 -3 -11 -1 -15 5 -4 6 -11 8 -16 5 -5 -4 -9 -1 -9 4 0 6 -3 10 -7 9
-13 -2 -67 14 -88 28 -11 7 -36 14 -55 16 -19 2 -38 7 -41 12 -4 4 -21 9 -38
11 -17 1 -35 6 -39 10 -4 5 -1 5 7 0 10 -5 12 -4 7 4 -5 7 -13 8 -23 2 -10 -5
-25 -3 -41 5 -14 7 -29 11 -34 8 -4 -3 -8 0 -8 7 0 9 -3 10 -11 2 -7 -7 -22
-7 -47 -1 -20 5 -52 11 -69 11 -18 1 -33 4 -33 7 0 3 -10 7 -22 8 -26 2 -63
10 -63 12 0 5 -81 18 -114 19 -18 1 -22 5 -17 19 5 14 3 13 -10 -3 -16 -20
-16 -20 -11 3 4 19 3 21 -9 11 -8 -6 -14 -8 -14 -4 0 4 -8 1 -17 -6 -16 -13
-17 -12 -5 3 13 16 11 17 -15 14 -43 -6 -64 16 -40 41 5 4 7 2 5 -6 -1 -7 2
-15 9 -18 7 -3 10 5 9 21 -2 14 1 23 6 20 5 -3 7 -12 4 -20 -3 -8 -4 -14 -2
-14 3 0 12 -3 20 -6 12 -5 15 -2 10 12 -5 16 -4 16 5 4 6 -8 11 -11 11 -6 0 5
7 3 15 -4 13 -11 14 -10 9 4 -3 9 -11 16 -17 16 -6 0 -7 3 -4 6 4 4 13 2 21
-5 9 -8 21 -9 37 -2 29 12 95 25 127 25 12 0 22 3 22 6 0 7 133 4 185 -4z
m-7398 -28 c-3 -8 -6 -5 -6 6 -1 11 2 17 5 13 3 -3 4 -12 1 -19z m5920 0 c-3
-8 -6 -5 -6 6 -1 11 2 17 5 13 3 -3 4 -12 1 -19z m-5882 -19 c11 -17 -1 -21
-15 -4 -8 9 -8 15 -2 15 6 0 14 -5 17 -11z m-74 -26 c-12 -20 -14 -14 -5 12 4
9 9 14 11 11 3 -2 0 -13 -6 -23z m-41 13 c0 -3 -4 -8 -10 -11 -5 -3 -10 -1
-10 4 0 6 5 11 10 11 6 0 10 -2 10 -4z m1913 -76 c3 -11 1 -18 -4 -14 -5 3 -9
12 -9 20 0 20 7 17 13 -6z m2627 -160 c0 -5 -4 -10 -10 -10 -5 0 -10 5 -10 10
0 6 5 10 10 10 6 0 10 -4 10 -10z m93 -97 c-7 -2 -21 -2 -30 0 -10 3 -4 5 12
5 17 0 24 -2 18 -5z m1893 -13 c13 0 24 -6 24 -12 0 -10 2 -10 8 0 9 13 55 17
111 8 22 -3 43 1 60 12 25 16 25 16 12 -1 -13 -16 -12 -17 13 -7 21 8 27 7 23
-2 -2 -7 -11 -11 -18 -10 -8 2 -10 0 -6 -4 11 -11 38 -14 31 -3 -3 5 0 9 6 9
6 0 8 6 5 13 -4 6 2 2 13 -10 24 -27 32 -29 32 -8 0 8 -5 15 -12 15 -6 0 -9 3
-5 6 3 4 22 -4 41 -16 35 -21 57 -20 55 3 0 9 -2 9 -6 0 -6 -17 -20 -16 -26 1
-4 10 3 12 30 9 21 -2 32 0 29 6 -5 8 48 -1 57 -10 1 -1 12 3 25 10 14 7 22 8
22 1 0 -5 -7 -10 -15 -10 -24 0 -17 -16 7 -17 12 -1 26 3 30 10 12 20 16 3 8
-38 -4 -22 -8 -35 -9 -29 0 6 -8 11 -16 11 -9 0 -14 -6 -11 -14 8 -19 2 -16
-20 9 -10 12 -13 18 -5 13 9 -5 12 -4 8 3 -4 5 -15 9 -24 8 -20 -3 -30 -26
-12 -26 10 0 10 -3 2 -11 -9 -9 -16 -7 -29 5 -9 9 -19 14 -22 11 -4 -3 0 -11
8 -16 12 -9 12 -10 -3 -5 -10 3 -23 6 -28 6 -14 0 -11 28 4 33 9 4 9 6 -1 6
-8 1 -16 -8 -19 -18 -4 -17 -8 -18 -24 -8 -15 9 -24 9 -40 -1 -12 -8 -18 -9
-14 -3 3 6 1 11 -4 11 -6 0 -11 -7 -11 -17 0 -15 -2 -15 -19 1 -14 13 -21 14
-27 5 -5 -8 -3 -10 7 -4 11 6 11 5 2 -5 -11 -12 -37 -5 -29 8 2 4 -10 8 -27 9
-24 1 -27 -1 -13 -6 17 -6 17 -8 4 -14 -10 -3 -19 0 -22 9 -3 8 -13 14 -23 14
-14 0 -15 -2 -5 -9 11 -6 9 -9 -6 -13 -16 -4 -19 -2 -15 10 4 10 2 13 -5 8 -7
-4 -12 -15 -13 -24 -1 -11 -4 -8 -9 8 l-8 25 -1 -26 c-1 -15 -7 -26 -15 -26
-11 0 -12 5 -5 18 5 10 9 24 8 31 0 7 -4 3 -9 -9 -6 -15 -18 -23 -33 -23 -14
0 -36 -9 -51 -21 -30 -24 -36 -11 -6 16 11 10 18 20 16 22 -2 2 -18 -10 -36
-27 -40 -38 -50 -38 -45 0 2 17 0 30 -5 30 -6 0 -10 -4 -10 -10 0 -5 -10 -10
-22 -10 -16 0 -19 3 -10 8 7 5 10 16 7 24 -6 16 18 47 38 49 7 1 22 0 35 -1
13 -1 25 6 29 16 4 11 8 13 11 6 2 -7 15 -12 28 -12z m71 14 c-3 -3 -12 -4
-19 -1 -8 3 -5 6 6 6 11 1 17 -2 13 -5z m-1991 -22 c-2 -4 11 -8 30 -8 20 0
39 -6 43 -12 4 -7 15 -10 24 -6 10 3 17 1 17 -6 0 -7 8 -9 20 -5 13 4 20 2 20
-7 0 -10 3 -9 10 2 8 13 10 12 10 -4 0 -16 2 -17 17 -5 11 10 14 10 9 2 -5
-10 3 -13 28 -13 22 0 36 -5 36 -12 0 -9 4 -8 10 2 8 13 11 13 19 1 5 -8 24
-15 42 -17 45 -4 67 -9 75 -17 4 -4 1 -7 -7 -8 -8 -1 -3 -4 11 -8 14 -5 29 -5
35 -2 5 3 18 6 27 6 15 1 15 -1 5 -14 -10 -12 -9 -14 6 -8 9 3 17 2 17 -3 0
-5 12 -10 28 -12 15 -2 26 -8 24 -15 -1 -7 2 -13 8 -13 6 0 10 5 10 11 0 8 4
9 13 0 8 -6 17 -8 20 -4 4 3 16 -2 27 -12 18 -17 20 -17 14 -2 -3 9 -2 17 4
17 6 0 12 -6 15 -12 3 -10 9 -10 27 0 28 17 43 4 35 -31 -4 -16 -15 -27 -28
-29 -15 -2 -21 -9 -19 -22 2 -11 -1 -15 -8 -11 -6 4 -8 16 -4 27 5 18 3 20
-12 13 -44 -18 -60 -17 -70 7 -5 13 -9 17 -7 11 4 -20 -25 -15 -30 5 -3 12 -5
9 -6 -8 -2 -24 -2 -24 -16 -6 -13 17 -15 18 -15 3 0 -19 -2 -20 -24 -11 -9 3
-13 11 -9 17 3 6 1 7 -5 3 -7 -4 -12 -14 -12 -22 0 -9 5 -12 12 -8 7 4 8 3 4
-5 -6 -9 -11 -9 -21 -1 -8 7 -19 9 -25 5 -5 -3 -10 2 -10 12 0 15 -2 16 -10 3
-8 -12 -10 -12 -11 5 l0 20 -9 -20 c-7 -17 -9 -17 -9 -2 -1 9 -5 17 -11 17 -6
0 -9 -3 -9 -7 3 -21 -3 -22 -23 -3 -15 13 -24 16 -29 9 -5 -8 -8 -8 -13 0 -4
6 -11 9 -16 6 -5 -3 -11 -1 -15 5 -3 5 -1 10 4 10 6 0 11 4 11 9 0 10 -26 9
-36 -2 -15 -15 -26 -6 -13 10 12 15 12 16 -6 9 -32 -12 -37 -12 -42 4 -4 13
-3 13 7 0 10 -13 11 -13 7 0 -2 8 -12 14 -22 12 -11 -2 -15 1 -9 9 5 9 2 10
-10 6 -11 -4 -16 -2 -14 6 2 6 -2 12 -7 12 -6 0 -9 -5 -7 -12 2 -8 -3 -10 -13
-7 -8 3 -13 9 -10 13 8 15 -32 39 -49 29 -10 -6 -16 -5 -16 2 0 5 5 10 12 10
6 0 9 3 6 6 -4 3 -16 0 -29 -6 -19 -11 -21 -10 -16 4 4 9 5 16 3 16 -3 0 -12
3 -22 7 -13 5 -15 3 -9 -7 6 -9 4 -11 -5 -5 -10 6 -10 11 4 20 15 12 15 13 -2
17 -25 7 -24 38 0 38 11 0 17 -4 14 -8z m1761 -48 c-8 -15 -17 -22 -21 -16 -3
6 1 17 9 25 8 9 15 22 16 29 0 9 2 9 5 1 3 -6 -1 -24 -9 -39z m757 10 c8 -21
8 -24 -5 -24 -5 0 -7 5 -4 10 3 6 -1 10 -10 10 -9 0 -13 5 -10 10 9 15 22 12
29 -6z m-251 -31 c-7 -2 -19 -2 -25 0 -7 3 -2 5 12 5 14 0 19 -2 13 -5z
m-1509 -137 c-4 -10 2 -12 22 -8 20 4 25 2 19 -8 -6 -9 3 -11 36 -6 27 3 34 2
19 -2 -17 -5 -21 -10 -12 -16 6 -4 17 -4 22 -1 12 7 12 3 4 -19 -3 -9 -10 -16
-16 -16 -5 0 -6 5 -3 10 3 6 2 10 -4 10 -5 0 -12 -6 -14 -12 -3 -7 -6 -2 -7
12 -1 23 -2 23 -10 5 -5 -11 -9 -14 -9 -7 -1 7 -5 10 -11 7 -5 -3 -10 2 -10
12 0 14 -2 15 -9 4 -7 -11 -9 -11 -14 0 -4 10 -6 8 -6 -4 -1 -23 -21 -12 -21
12 0 9 5 22 12 29 16 16 19 15 12 -2z m200 -52 c3 -8 2 -12 -4 -9 -6 3 -10 1
-10 -6 0 -7 -2 -10 -5 -7 -5 5 4 38 10 38 2 0 6 -7 9 -16z m-73 -37 c-10 -9
-11 -8 -5 6 3 10 9 15 12 12 3 -3 0 -11 -7 -18z m3310 -1418 c13 -25 4 -86
-14 -92 -13 -5 -45 9 -64 29 -19 19 -16 57 7 82 24 25 51 18 71 -19z"/>
<path d="M6876 9432 c-2 -4 -1 -14 4 -22 7 -11 9 -9 7 8 -1 24 -3 26 -11 14z"/>
<path d="M6806 7045 c-9 -26 -7 -32 5 -12 6 10 9 21 6 23 -2 3 -7 -2 -11 -11z"/>
<path d="M3341 7930 c-13 -11 -19 -20 -14 -20 5 0 13 3 17 7 12 13 46 10 46
-4 0 -8 -4 -12 -8 -9 -5 3 -9 -1 -9 -9 0 -11 4 -12 13 -4 14 11 38 3 30 -10
-3 -4 1 -8 9 -8 8 0 15 6 15 14 0 7 -3 12 -7 12 -22 -4 -24 3 -7 23 12 15 13
18 3 10 -13 -10 -19 -9 -29 3 -16 20 -30 19 -59 -5z"/>
<path d="M3728 7923 c7 -3 16 -2 19 1 4 3 -2 6 -13 5 -11 0 -14 -3 -6 -6z"/>
<path d="M3634 7909 c-4 -8 -3 -9 5 -5 6 4 14 0 17 -8 7 -17 24 -12 24 6 0 6
-3 8 -7 5 -3 -4 -12 -2 -19 4 -8 7 -14 6 -20 -2z"/>
<path d="M3697 7905 c-4 -8 -2 -17 3 -20 6 -4 10 3 10 14 0 25 -6 27 -13 6z"/>
<path d="M3453 7887 c-2 -18 -1 -18 18 -2 23 22 23 21 1 21 -11 0 -19 -8 -19
-19z"/>
<path d="M3515 7880 c3 -5 10 -10 16 -10 5 0 9 5 9 10 0 6 -7 10 -16 10 -8 0
-12 -4 -9 -10z"/>
<path d="M3820 7854 c0 -8 5 -12 10 -9 6 4 8 11 5 16 -9 14 -15 11 -15 -7z"/>
<path d="M3880 7859 c0 -5 5 -7 10 -4 6 3 10 8 10 11 0 2 -4 4 -10 4 -5 0 -10
-5 -10 -11z"/>
<path d="M4020 7859 c-12 -8 -9 -9 10 -4 23 5 23 5 8 -8 -10 -8 -15 -17 -12
-20 3 -3 14 2 25 11 14 12 15 18 6 24 -16 10 -19 10 -37 -3z"/>
<path d="M4088 7863 c7 -3 16 -2 19 1 4 3 -2 6 -13 5 -11 0 -14 -3 -6 -6z"/>
<path d="M3795 7850 c-3 -5 -1 -10 4 -10 6 0 11 5 11 10 0 6 -2 10 -4 10 -3 0
-8 -4 -11 -10z"/>
<path d="M4346 7842 c-3 -5 1 -9 9 -9 8 0 12 4 9 9 -3 4 -7 8 -9 8 -2 0 -6 -4
-9 -8z"/>
<path d="M4856 7804 c-8 -22 -4 -25 11 -9 7 8 9 16 4 19 -5 3 -12 -1 -15 -10z"/>
<path d="M4707 7786 c-3 -8 0 -16 7 -19 6 -3 13 4 13 14 2 22 -12 25 -20 5z"/>
<path d="M3185 8000 c-3 -5 -1 -10 4 -10 6 0 11 5 11 10 0 6 -2 10 -4 10 -3 0
-8 -4 -11 -10z"/>
<path d="M3206 7981 c-14 -15 -15 -24 -7 -38 10 -17 10 -17 11 3 0 11 5 25 12
32 6 6 9 14 6 17 -2 3 -13 -4 -22 -14z"/>
<path d="M4875 5620 c3 -5 8 -10 11 -10 2 0 4 5 4 10 0 6 -5 10 -11 10 -5 0
-7 -4 -4 -10z"/>
<path d="M4681 5354 c0 -11 3 -14 6 -6 3 7 2 16 -1 19 -3 4 -6 -2 -5 -13z"/>
<path d="M3893 5086 c-9 -11 -6 -13 17 -12 22 0 26 4 18 13 -13 16 -20 16 -35
-1z"/>
<path d="M3950 5090 c0 -5 5 -10 10 -10 6 0 10 5 10 10 0 6 -4 10 -10 10 -5 0
-10 -4 -10 -10z"/>
<path d="M3616 4891 c-4 -5 3 -7 14 -4 23 6 26 13 6 13 -8 0 -17 -4 -20 -9z"/>
<path d="M3611 4704 c0 -11 3 -14 6 -6 3 7 2 16 -1 19 -3 4 -6 -2 -5 -13z"/>
<path d="M3680 4704 c0 -5 5 -15 12 -22 8 -8 8 -15 0 -24 -8 -11 -7 -14 7 -14
13 0 17 5 13 16 -8 23 -32 56 -32 44z"/>
<path d="M3799 4685 c16 -31 40 -59 46 -54 2 3 -9 21 -26 40 -16 19 -25 25
-20 14z"/>
<path d="M3658 4543 c7 -3 16 -2 19 1 4 3 -2 6 -13 5 -11 0 -14 -3 -6 -6z"/>
<path d="M5190 4370 c0 -5 4 -10 9 -10 6 0 13 5 16 10 3 6 -1 10 -9 10 -9 0
-16 -4 -16 -10z"/>
<path d="M7885 4790 c-3 -5 -1 -10 4 -10 6 0 11 5 11 10 0 6 -2 10 -4 10 -3 0
-8 -4 -11 -10z"/>
<path d="M1141 4606 c-8 -10 -8 -16 3 -25 11 -10 14 -7 12 14 -1 29 0 29 -15
11z"/>
<path d="M10278 4273 c7 -3 16 -2 19 1 4 3 -2 6 -13 5 -11 0 -14 -3 -6 -6z"/>
<path d="M9846 4243 c-6 -14 -5 -15 5 -6 7 7 10 15 7 18 -3 3 -9 -2 -12 -12z"/>
<path d="M10315 4250 c3 -5 20 -10 36 -10 18 0 28 4 24 10 -3 6 -20 10 -36 10
-18 0 -28 -4 -24 -10z"/>
<path d="M10092 4184 c10 -10 20 -16 22 -13 3 3 -5 11 -17 18 -21 13 -21 12
-5 -5z"/>
<path d="M9932 4174 c-7 -8 -8 -14 -3 -14 10 0 25 19 20 25 -2 1 -10 -3 -17
-11z"/>
<path d="M1172 4286 c4 -5 0 -15 -8 -23 -8 -8 -12 -19 -9 -24 8 -12 25 -11 25
2 0 5 -5 7 -12 3 -7 -4 -8 -3 -4 5 4 6 11 9 16 6 17 -11 19 13 2 26 -9 7 -14
10 -10 5z"/>
<path d="M7333 3458 c-4 -7 1 -9 15 -6 16 4 22 0 26 -16 4 -18 4 -17 3 3 -2
25 -32 38 -44 19z"/>
<path d="M7390 3435 c0 -5 5 -17 10 -25 5 -8 10 -10 10 -5 0 6 -5 17 -10 25
-5 8 -10 11 -10 5z"/>
<path d="M8400 3016 c0 -2 7 -7 16 -10 8 -3 12 -2 9 4 -6 10 -25 14 -25 6z"/>
<path d="M7860 2989 c0 -5 -4 -7 -10 -4 -5 3 -10 1 -10 -4 0 -6 7 -11 15 -11
8 0 15 7 15 15 0 8 -2 15 -5 15 -3 0 -5 -5 -5 -11z"/>
<path d="M8165 2980 c3 -5 8 -10 11 -10 2 0 4 5 4 10 0 6 -5 10 -11 10 -5 0
-7 -4 -4 -10z"/>
<path d="M7870 2920 c0 -5 5 -10 10 -10 6 0 10 5 10 10 0 6 -4 10 -10 10 -5 0
-10 -4 -10 -10z"/>
<path d="M6655 2810 c3 -5 8 -10 11 -10 2 0 4 5 4 10 0 6 -5 10 -11 10 -5 0
-7 -4 -4 -10z"/>
<path d="M7750 10795 c0 -5 5 -17 10 -25 5 -8 10 -10 10 -5 0 6 -5 17 -10 25
-5 8 -10 11 -10 5z"/>
<path d="M7913 10640 c1 -11 5 -20 9 -20 11 0 10 28 -1 35 -6 3 -9 -4 -8 -15z"/>
<path d="M7915 10600 c3 -5 8 -10 11 -10 2 0 4 5 4 10 0 6 -5 10 -11 10 -5 0
-7 -4 -4 -10z"/>
<path d="M7991 10574 c0 -11 3 -14 6 -6 3 7 2 16 -1 19 -3 4 -6 -2 -5 -13z"/>
<path d="M8012 10555 c4 -4 3 -14 -4 -22 -8 -10 -8 -17 0 -25 6 -6 8 -18 5
-27 -3 -12 -1 -11 11 3 18 23 21 46 5 46 -5 0 -8 4 -4 9 3 5 0 13 -7 17 -7 4
-10 4 -6 -1z m12 -41 c3 -8 2 -12 -4 -9 -6 3 -10 10 -10 16 0 14 7 11 14 -7z"/>
<path d="M8081 10388 c-1 -9 11 -26 25 -37 15 -12 22 -21 15 -21 -6 0 -11 -5
-11 -10 0 -6 10 -4 23 5 13 8 27 12 30 8 4 -3 7 0 7 7 0 11 3 11 12 2 8 -8 8
-15 0 -25 -12 -14 -6 -27 12 -27 6 0 4 5 -4 10 -8 5 -10 10 -4 10 26 0 21 -15
-14 -46 -20 -18 -32 -33 -26 -34 7 0 14 7 18 15 3 8 12 12 21 9 10 -4 15 -2
13 7 -2 8 4 14 12 14 8 0 14 -6 12 -13 -1 -8 2 -11 8 -7 8 5 7 11 -1 21 -6 8
-8 14 -3 14 5 0 2 6 -6 13 -8 7 -20 22 -27 34 -10 17 -9 24 2 33 8 7 15 17 15
23 0 5 -9 -2 -20 -15 -11 -14 -28 -28 -39 -31 -21 -5 -54 17 -64 43 -4 12 -6
12 -6 -2z"/>
<path d="M7390 10370 c0 -5 5 -10 11 -10 5 0 7 5 4 10 -3 6 -8 10 -11 10 -2 0
-4 -4 -4 -10z"/>
<path d="M8128 10363 c6 -2 18 -2 25 0 6 3 1 5 -13 5 -14 0 -19 -2 -12 -5z"/>
<path d="M9200 10319 c0 -5 5 -7 10 -4 6 3 10 1 10 -4 0 -6 -5 -11 -12 -11 -6
0 -9 -2 -6 -5 3 -3 13 -3 22 1 13 5 14 9 5 20 -14 17 -29 18 -29 3z"/>
<path d="M8136 10305 c-9 -9 -16 -22 -16 -28 0 -7 4 -6 10 3 6 10 10 11 10 3
0 -14 26 -18 34 -5 2 4 -2 15 -9 25 -12 16 -14 16 -29 2z"/>
<path d="M9124 10313 c4 -7 2 -22 -5 -34 -6 -12 -7 -19 -1 -15 6 3 12 0 15 -6
2 -7 4 1 3 19 -1 17 -5 35 -10 40 -5 4 -6 3 -2 -4z"/>
<path d="M9233 10275 c0 -8 4 -15 9 -15 5 0 6 -4 3 -10 -3 -5 -1 -10 4 -10 19
0 12 -18 -10 -25 -11 -4 -18 -9 -15 -12 3 -3 17 2 30 11 31 20 42 21 26 1 -8
-9 -8 -15 -2 -15 16 0 21 23 10 44 -8 14 -12 15 -18 6 -5 -8 -10 -3 -14 14 -7
28 -23 36 -23 11z"/>
<path d="M9209 10261 c6 -10 7 -22 3 -26 -4 -5 -2 -5 5 -2 13 8 6 47 -9 47 -5
0 -4 -8 1 -19z"/>
<path d="M9030 10266 c0 -2 7 -9 15 -16 13 -11 14 -10 9 4 -5 14 -24 23 -24
12z"/>
<path d="M8900 10240 c0 -5 4 -10 9 -10 6 0 13 5 16 10 3 6 -1 10 -9 10 -9 0
-16 -4 -16 -10z"/>
<path d="M9333 10223 c9 -2 17 -8 17 -12 0 -4 7 -8 15 -8 30 0 14 22 -18 23
-17 1 -24 -1 -14 -3z"/>
<path d="M9170 10209 c0 -5 5 -7 10 -4 6 3 10 8 10 11 0 2 -4 4 -10 4 -5 0
-10 -5 -10 -11z"/>
<path d="M9076 10175 c-3 -9 -11 -13 -17 -9 -8 5 -9 3 -4 -5 6 -10 11 -9 23 3
9 8 13 18 10 21 -3 3 -8 -1 -12 -10z"/>
<path d="M9380 10181 c0 -5 5 -13 10 -16 6 -3 10 -2 10 4 0 5 -4 13 -10 16 -5
3 -10 2 -10 -4z"/>
<path d="M9445 10180 c-3 -5 -1 -10 5 -10 7 0 6 -5 -2 -14 -9 -10 -15 -11 -20
-2 -4 6 -8 -2 -8 -19 l0 -29 16 22 c8 12 21 22 29 22 8 0 11 7 8 20 -6 22 -18
26 -28 10z"/>
<path d="M9001 10154 c0 -11 3 -14 6 -6 3 7 2 16 -1 19 -3 4 -6 -2 -5 -13z"/>
<path d="M7545 10100 c-3 -5 -1 -10 4 -10 6 0 11 5 11 10 0 6 -2 10 -4 10 -3
0 -8 -4 -11 -10z"/>
<path d="M9467 10104 c-3 -6 8 -21 25 -34 25 -19 30 -20 25 -6 -4 10 -7 20 -7
22 0 2 -6 4 -14 4 -8 0 -16 5 -18 12 -3 8 -7 8 -11 2z"/>
<path d="M8777 10094 c-17 -18 2 -26 33 -14 3 1 10 2 15 0 6 -1 4 4 -3 12 -11
11 -14 10 -21 -1 -6 -9 -10 -10 -12 -2 -3 7 -8 9 -12 5z"/>
<path d="M9394 10093 c3 -4 16 -7 28 -8 14 -1 25 -10 29 -26 7 -23 7 -23 8 -2
1 12 -4 25 -11 29 -15 9 -63 15 -54 7z"/>
<path d="M9265 10071 c-3 -5 -2 -12 3 -15 5 -3 9 1 9 9 0 17 -3 19 -12 6z"/>
<path d="M9471 10054 c0 -11 3 -14 6 -6 3 7 2 16 -1 19 -3 4 -6 -2 -5 -13z"/>
<path d="M8740 10050 c-23 -7 -23 -8 -3 -9 12 -1 25 4 28 9 3 6 5 10 3 9 -2
-1 -14 -5 -28 -9z"/>
<path d="M8796 10047 c3 -10 9 -15 12 -12 3 3 0 11 -7 18 -10 9 -11 8 -5 -6z"/>
<path d="M9237 10039 c7 -7 15 -10 18 -7 3 3 -2 9 -12 12 -14 6 -15 5 -6 -5z"/>
<path d="M8855 10030 c3 -5 8 -10 11 -10 2 0 4 5 4 10 0 6 -5 10 -11 10 -5 0
-7 -4 -4 -10z"/>
<path d="M8725 10020 c3 -5 0 -10 -7 -10 -11 0 -10 -2 0 -9 11 -7 11 -9 -2
-14 -8 -3 -18 -2 -21 4 -4 5 -11 7 -16 3 -6 -4 -6 -11 1 -19 13 -15 4 -39 -10
-30 -13 8 -32 -33 -23 -48 4 -6 8 -27 10 -46 3 -40 13 -55 13 -20 0 19 2 21
10 9 8 -13 10 -13 11 3 1 9 2 23 3 30 1 14 48 10 57 -5 4 -7 9 -7 13 0 3 5 -1
12 -9 16 -8 3 -15 13 -15 21 0 10 5 13 12 9 7 -4 8 -3 4 5 -4 6 -11 9 -16 6
-14 -9 -37 5 -37 22 0 18 42 63 60 64 7 0 3 4 -8 9 -28 12 -37 12 -30 0z m-30
-79 c-3 -6 4 -15 15 -21 22 -12 27 -32 8 -29 -22 4 -51 -13 -38 -21 8 -5 7 -9
-3 -13 -10 -4 -14 0 -12 11 1 9 -2 22 -7 29 -5 7 -5 14 2 18 6 3 7 11 4 17 -4
6 -2 8 4 4 6 -3 13 -2 17 4 3 5 8 10 11 10 3 0 3 -4 -1 -9z"/>
<path d="M8671 9916 c-9 -10 -9 -16 -1 -21 17 -10 37 12 24 25 -8 8 -15 6 -23
-4z"/>
<path d="M9461 10019 c0 -9 5 -22 12 -28 10 -8 14 -7 14 4 0 8 -4 12 -8 9 -4
-2 -10 4 -12 13 -4 15 -5 15 -6 2z"/>
<path d="M9506 10014 c-3 -8 -2 -12 4 -9 16 10 12 -11 -5 -25 -11 -9 -12 -16
-5 -25 8 -9 8 -15 0 -20 -5 -3 -10 -14 -9 -23 0 -13 3 -11 11 6 8 15 17 20 29
17 9 -3 20 -1 24 5 4 6 1 11 -6 9 -27 -3 -37 1 -35 16 1 8 5 18 9 21 10 10 9
44 -2 44 -5 0 -12 -7 -15 -16z"/>
<path d="M8757 9984 c3 -8 9 -11 14 -8 5 3 9 0 9 -5 0 -6 5 -11 10 -11 7 0 8
6 2 17 -12 20 -43 27 -35 7z"/>
<path d="M8815 9989 c-4 -6 -5 -12 -2 -15 2 -3 7 2 10 11 7 17 1 20 -8 4z"/>
<path d="M8847 9983 c3 -7 6 -13 8 -13 2 0 5 6 8 13 3 8 -1 14 -8 14 -7 0 -11
-6 -8 -14z"/>
<path d="M8341 9975 c0 -5 4 -19 8 -29 7 -19 8 -19 13 2 4 12 2 20 -2 17 -5
-3 -11 1 -13 7 -3 7 -5 9 -6 3z"/>
<path d="M8732 9960 c-7 -12 -8 -20 -2 -20 5 0 10 5 10 11 0 5 4 7 10 4 6 -3
7 1 4 9 -8 20 -7 20 -22 -4z"/>
<path d="M9468 9938 c-3 -7 -1 -24 3 -38 l8 -25 -2 25 c-1 14 2 31 6 38 5 6 4
12 -1 12 -6 0 -12 -6 -14 -12z"/>
<path d="M9520 9890 c-8 -5 -12 -12 -9 -15 4 -3 12 1 19 10 14 17 11 19 -10 5z"/>
<path d="M8731 9854 c0 -11 3 -14 6 -6 3 7 2 16 -1 19 -3 4 -6 -2 -5 -13z"/>
<path d="M8573 9828 c3 -9 1 -19 -6 -22 -9 -5 -9 -7 1 -12 6 -3 9 -11 6 -16
-5 -8 5 -9 29 -5 30 5 35 3 30 -11 -4 -14 -3 -15 5 -2 8 10 8 18 0 27 -7 9 -7
13 1 13 6 0 11 5 11 10 0 6 -9 10 -20 10 -13 0 -18 -5 -14 -15 4 -8 1 -15 -5
-15 -6 0 -11 6 -11 14 0 7 -8 20 -17 27 -15 12 -16 12 -10 -3z"/>
<path d="M8880 9830 c0 -6 7 -10 15 -10 8 0 15 2 15 4 0 2 -7 6 -15 10 -8 3
-15 1 -15 -4z"/>
<path d="M8705 9820 c3 -5 8 -10 11 -10 2 0 4 5 4 10 0 6 -5 10 -11 10 -5 0
-7 -4 -4 -10z"/>
<path d="M8726 9804 c-4 -9 -4 -19 -1 -22 2 -3 7 3 11 12 4 9 4 19 1 22 -2 3
-7 -3 -11 -12z"/>
<path d="M8457 9803 c-4 -3 -1 -13 6 -21 10 -13 8 -14 -12 -7 -21 6 -22 5 -10
-8 13 -14 38 -15 59 -2 6 3 10 1 10 -4 0 -6 -5 -11 -11 -11 -6 0 -8 -9 -4 -21
5 -15 4 -19 -4 -15 -6 4 -11 2 -11 -3 0 -6 6 -11 14 -11 7 0 16 -14 20 -31 3
-18 13 -37 21 -43 9 -6 17 -24 19 -39 1 -15 6 -30 10 -35 4 -4 7 -2 6 3 -5 21
0 27 13 16 10 -8 14 -7 14 4 0 7 -5 13 -11 12 -6 -1 -12 11 -14 27 -3 27 -2
28 32 24 20 -2 36 -2 36 2 0 8 -52 30 -60 25 -5 -3 -11 2 -14 11 -3 8 -2 12 4
9 6 -3 10 3 10 14 0 11 -5 23 -12 27 -8 5 -9 2 -4 -11 5 -14 4 -16 -7 -7 -8 7
-17 9 -20 5 -4 -3 -7 -2 -7 4 0 12 41 31 56 26 6 -2 10 -17 8 -33 -4 -34 15
-41 37 -13 8 9 9 14 4 11 -6 -4 -17 -2 -25 3 -12 8 -12 12 -2 16 6 2 12 12 11
21 0 11 -3 12 -6 5 -5 -14 -40 -1 -56 21 -6 7 -7 4 -3 -6 3 -10 1 -18 -3 -18
-5 0 -11 5 -13 10 -2 6 -17 12 -33 13 -21 2 -30 8 -29 20 2 17 -7 22 -19 10z
m86 -137 c-3 -4 -9 -2 -14 5 -13 22 -11 31 5 17 8 -7 12 -17 9 -22z m17 -22
c0 -8 -5 -12 -10 -9 -6 4 -8 11 -5 16 9 14 15 11 15 -7z"/>
<path d="M8788 9803 c7 -3 16 -2 19 1 4 3 -2 6 -13 5 -11 0 -14 -3 -6 -6z"/>
<path d="M9526 9802 c-2 -4 -1 -14 5 -22 7 -12 9 -10 9 8 0 23 -5 28 -14 14z"/>
<path d="M8665 9770 c-3 -5 -1 -10 5 -10 7 0 10 -6 7 -14 -3 -8 0 -19 6 -25
12 -9 13 1 8 52 -1 10 -19 9 -26 -3z"/>
<path d="M8740 9771 c0 -7 -5 -9 -12 -5 -7 5 -8 3 -3 -5 5 -9 10 -10 18 -2 6
6 8 14 4 18 -4 3 -7 1 -7 -6z"/>
<path d="M7650 9742 c0 -5 7 -9 15 -9 8 0 15 4 15 9 0 4 -7 8 -15 8 -8 0 -15
-4 -15 -8z"/>
<path d="M8710 9740 c0 -5 5 -10 11 -10 5 0 7 5 4 10 -3 6 -8 10 -11 10 -2 0
-4 -4 -4 -10z"/>
<path d="M8849 9729 c0 -2 -2 -11 -4 -20 -1 -9 3 -16 10 -16 7 0 12 6 11 13
-2 13 -15 31 -17 23z"/>
<path d="M8655 9700 c3 -5 8 -10 11 -10 2 0 4 5 4 10 0 6 -5 10 -11 10 -5 0
-7 -4 -4 -10z"/>
<path d="M8463 9677 c-3 -6 -1 -7 5 -3 6 3 12 -2 14 -11 3 -16 5 -15 10 3 5
22 -17 30 -29 11z"/>
<path d="M8688 9660 c2 -16 6 -30 8 -30 2 0 4 14 4 30 0 17 -4 30 -8 30 -5 0
-7 -13 -4 -30z"/>
<path d="M8720 9651 c0 -10 19 -25 25 -20 1 2 -3 10 -11 17 -8 7 -14 8 -14 3z"/>
<path d="M8588 9603 c6 -2 18 -2 25 0 6 3 1 5 -13 5 -14 0 -19 -2 -12 -5z"/>
<path d="M8675 9591 c-3 -5 -2 -12 3 -15 5 -3 9 1 9 9 0 17 -3 19 -12 6z"/>
<path d="M8525 9580 c3 -5 8 -10 11 -10 2 0 4 5 4 10 0 6 -5 10 -11 10 -5 0
-7 -4 -4 -10z"/>
<path d="M8624 9578 c-5 -7 -9 -17 -9 -23 0 -5 -6 -11 -12 -11 -7 -1 -15 -2
-18 -3 -9 -2 25 -61 35 -61 14 0 12 9 -6 28 -15 15 -15 17 6 34 14 11 17 18 9
18 -11 0 -11 2 1 10 8 5 12 12 8 15 -3 4 -10 0 -14 -7z"/>
<path d="M8650 9540 c-9 -6 -10 -10 -3 -10 6 0 15 5 18 10 8 12 4 12 -15 0z"/>
<path d="M8560 9505 c0 -8 2 -15 4 -15 2 0 6 7 10 15 3 8 1 15 -4 15 -6 0 -10
-7 -10 -15z"/>
<path d="M8648 9493 c7 -3 16 -2 19 1 4 3 -2 6 -13 5 -11 0 -14 -3 -6 -6z"/>
<path d="M9470 9487 c0 -10 -8 -17 -20 -17 -11 0 -20 -4 -20 -9 0 -5 9 -7 21
-4 21 6 36 29 25 40 -3 4 -6 -1 -6 -10z"/>
<path d="M8653 9470 c-30 -12 -29 -18 2 -12 14 2 25 8 25 13 0 5 -1 9 -2 8 -2
0 -13 -4 -25 -9z"/>
<path d="M8728 9473 c7 -3 16 -2 19 1 4 3 -2 6 -13 5 -11 0 -14 -3 -6 -6z"/>
<path d="M8570 9460 c-20 -12 -10 -19 14 -10 11 3 15 9 10 13 -6 3 -16 2 -24
-3z"/>
<path d="M8689 9450 c-4 -25 -24 -33 -45 -18 -5 4 -23 3 -40 -2 l-29 -10 33 3
c39 4 61 -15 42 -38 -7 -9 -10 -18 -6 -22 3 -3 6 -1 6 6 0 7 5 9 10 6 6 -4 8
-11 5 -16 -4 -5 -2 -9 2 -9 5 0 14 9 21 20 10 16 10 20 0 18 -7 -2 -13 4 -13
12 0 8 5 15 12 15 19 0 24 11 14 36 l-9 24 -3 -25z"/>
<path d="M9480 9450 c0 -5 5 -10 10 -10 6 0 10 5 10 10 0 6 -4 10 -10 10 -5 0
-10 -4 -10 -10z"/>
<path d="M8747 9434 c-11 -11 -8 -26 3 -19 6 3 10 1 10 -6 0 -7 3 -10 6 -6 3
3 2 13 -3 22 -5 8 -12 12 -16 9z"/>
<path d="M8934 9428 c-4 -7 -4 -10 1 -6 4 4 15 2 24 -5 14 -11 14 -10 2 6 -16
20 -18 21 -27 5z"/>
<path d="M9445 9431 c-3 -5 -1 -12 5 -16 5 -3 10 1 10 9 0 18 -6 21 -15 7z"/>
<path d="M9400 9421 c0 -7 -4 -9 -10 -6 -5 3 -10 1 -10 -4 0 -6 4 -11 9 -11
13 0 25 20 17 27 -3 4 -6 1 -6 -6z"/>
<path d="M8710 9401 c0 -5 5 -13 10 -16 6 -3 10 -2 10 4 0 5 -4 13 -10 16 -5
3 -10 2 -10 -4z"/>
<path d="M8588 9393 c7 -3 16 -2 19 1 4 3 -2 6 -13 5 -11 0 -14 -3 -6 -6z"/>
<path d="M8740 9371 c0 -7 -5 -9 -12 -5 -7 4 -8 3 -4 -4 4 -7 4 -17 0 -23 -4
-8 -9 -7 -15 2 -4 7 -11 11 -14 8 -3 -4 1 -12 9 -18 12 -10 18 -8 32 14 9 14
14 28 10 32 -3 3 -6 1 -6 -6z"/>
<path d="M8760 9369 c0 -5 5 -7 10 -4 6 3 10 8 10 11 0 2 -4 4 -10 4 -5 0 -10
-5 -10 -11z"/>
<path d="M8895 9371 c-3 -5 -1 -12 5 -16 6 -4 8 -11 4 -16 -3 -5 -10 -7 -15
-4 -15 10 -10 -2 8 -16 10 -8 14 -9 10 -2 -10 16 11 27 27 14 9 -8 13 -7 13 4
0 8 -2 13 -5 10 -3 -2 -14 1 -25 6 -16 9 -17 13 -6 20 9 6 10 9 2 9 -6 0 -14
-4 -18 -9z"/>
<path d="M9361 9364 c0 -11 3 -14 6 -6 3 7 2 16 -1 19 -3 4 -6 -2 -5 -13z"/>
<path d="M9399 9353 c-13 -16 -12 -17 4 -4 9 7 17 15 17 17 0 8 -8 3 -21 -13z"/>
<path d="M8845 9349 c-4 -6 -5 -12 -2 -15 2 -3 7 2 10 11 7 17 1 20 -8 4z"/>
<path d="M9396 9318 c3 -4 0 -8 -7 -8 -7 0 -10 -3 -6 -6 3 -3 16 1 28 9 22 16
22 16 1 14 -11 0 -18 -5 -16 -9z"/>
<path d="M9013 9305 c-10 -10 -9 -16 2 -25 8 -7 20 -10 27 -7 8 3 6 6 -5 6
-14 1 -17 6 -12 21 7 23 5 25 -12 5z"/>
<path d="M9425 9300 c3 -5 13 -10 21 -10 8 0 14 5 14 10 0 6 -9 10 -21 10 -11
0 -17 -4 -14 -10z"/>
<path d="M8680 9289 c0 -5 5 -7 10 -4 6 3 10 8 10 11 0 2 -4 4 -10 4 -5 0 -10
-5 -10 -11z"/>
<path d="M8925 9280 c-3 -6 1 -7 9 -4 18 7 21 14 7 14 -6 0 -13 -4 -16 -10z"/>
<path d="M9199 9288 c-7 -25 -5 -36 6 -31 8 2 11 11 8 19 -5 12 -12 18 -14 12z"/>
<path d="M8757 9273 c-3 -5 8 -8 25 -9 20 -1 25 2 16 7 -16 11 -35 11 -41 2z"/>
<path d="M8880 9276 c0 -2 7 -6 15 -10 8 -3 15 -1 15 4 0 6 -7 10 -15 10 -8 0
-15 -2 -15 -4z"/>
<path d="M9075 9269 c-4 -6 -5 -12 -2 -15 2 -3 7 2 10 11 7 17 1 20 -8 4z"/>
<path d="M8656 9259 c2 -5 11 -6 19 -2 8 3 15 0 15 -6 0 -20 -5 -26 -20 -26
-8 0 -13 -5 -10 -10 3 -6 10 -8 15 -6 6 2 15 4 22 4 7 0 11 5 10 11 -1 6 9 10
23 9 23 -2 23 -2 5 6 -11 5 -14 10 -7 10 6 1 12 4 12 9 0 4 -20 7 -44 8 -25 0
-43 -3 -40 -7z"/>
<path d="M8950 9260 c-9 -6 -10 -10 -3 -10 6 0 15 5 18 10 8 12 4 12 -15 0z"/>
<path d="M9371 9256 c-7 -8 -8 -17 -3 -20 6 -3 15 1 21 8 7 8 8 17 3 20 -6 3
-15 -1 -21 -8z"/>
<path d="M9218 9249 c-6 -4 -13 -16 -14 -26 -2 -15 0 -14 16 5 10 13 22 22 25
22 3 -1 11 1 18 3 6 3 2 4 -11 4 -12 -1 -28 -4 -34 -8z"/>
<path d="M9325 9250 c4 -6 11 -8 16 -5 14 9 11 15 -7 15 -8 0 -12 -5 -9 -10z"/>
<path d="M8757 9230 c-3 -13 0 -20 9 -20 8 0 14 -5 14 -11 0 -5 5 -7 10 -4 6
4 4 13 -6 23 -15 15 -15 16 2 23 17 7 17 8 -2 8 -14 1 -24 -7 -27 -19z"/>
<path d="M8885 9240 c3 -5 11 -10 16 -10 6 0 7 5 4 10 -3 6 -11 10 -16 10 -6
0 -7 -4 -4 -10z"/>
<path d="M9272 9241 c-11 -6 -10 -10 0 -19 11 -8 14 -7 14 9 0 10 0 19 -1 19
0 0 -6 -4 -13 -9z"/>
<path d="M8810 9230 c0 -5 5 -10 11 -10 5 0 7 5 4 10 -3 6 -8 10 -11 10 -2 0
-4 -4 -4 -10z"/>
<path d="M9120 9216 c0 -8 4 -17 9 -20 5 -4 7 3 4 14 -6 23 -13 26 -13 6z"/>
<path d="M8877 9209 c6 -6 9 -19 6 -28 -4 -12 -3 -13 5 -2 7 10 11 10 17 1 4
-7 1 -16 -6 -21 -11 -7 -12 -9 -1 -9 8 0 16 9 19 19 3 11 12 22 20 26 24 9 29
-4 7 -20 -10 -8 -14 -15 -8 -15 16 0 31 21 31 42 0 13 -4 15 -17 8 -10 -5 -20
-6 -24 -3 -3 3 -6 1 -6 -5 0 -7 -5 -12 -11 -12 -5 0 -7 5 -3 12 4 7 3 8 -4 4
-7 -4 -12 -2 -12 3 0 6 -5 11 -12 11 -9 0 -9 -3 -1 -11z"/>
<path d="M9150 9201 c0 -25 16 -36 24 -15 4 10 2 13 -6 8 -8 -5 -9 -2 -5 9 3
10 2 17 -3 17 -6 0 -10 -9 -10 -19z"/>
<path d="M9310 9210 c-8 -5 -10 -10 -5 -10 6 0 17 5 25 10 8 5 11 10 5 10 -5
0 -17 -5 -25 -10z"/>
<path d="M9227 9194 c6 -15 23 -19 23 -5 0 5 -7 11 -14 14 -10 4 -13 1 -9 -9z"/>
<path d="M8689 9172 c-12 -30 -11 -33 2 -29 6 1 14 -4 17 -12 3 -8 0 -11 -7
-7 -6 4 -11 1 -11 -8 0 -9 7 -16 15 -16 8 0 15 -5 15 -11 0 -5 -4 -7 -10 -4
-5 3 -10 1 -10 -4 0 -6 6 -11 13 -11 8 0 7 -4 -3 -10 -12 -8 -12 -12 -2 -18 7
-5 10 -17 6 -28 -5 -16 -4 -16 5 -4 6 8 11 12 12 8 1 -5 3 -12 4 -18 1 -5 3
-13 4 -16 0 -4 7 -1 14 5 8 6 16 9 19 6 2 -3 5 2 5 9 0 8 -3 14 -6 14 -15 -3
-41 15 -41 28 0 8 8 14 18 14 16 1 16 1 0 14 -20 14 -24 36 -8 36 6 0 10 -7
10 -15 0 -11 7 -14 25 -9 15 4 25 2 25 -5 0 -20 30 1 36 26 5 19 9 21 15 11
13 -19 11 -40 -3 -32 -6 4 -8 3 -5 -3 4 -6 0 -13 -8 -17 -8 -3 -15 -11 -15
-18 0 -9 3 -8 10 2 6 10 10 11 10 3 0 -30 18 -10 26 30 8 36 13 42 34 42 14 0
34 -4 45 -9 l20 -9 -20 20 c-11 11 -24 18 -30 15 -15 -9 -45 -10 -51 -1 -8 14
-34 -2 -34 -22 0 -10 -5 -19 -11 -19 -5 0 -8 4 -5 9 3 5 -1 12 -10 15 -9 3
-12 11 -8 18 5 8 2 9 -10 5 -11 -4 -15 -3 -10 4 4 8 -1 9 -17 4 -18 -5 -21 -4
-9 4 8 6 23 8 34 5 13 -4 16 -2 11 6 -4 6 -16 9 -27 7 -28 -8 -54 3 -36 14 8
5 5 8 -11 6 -14 -1 -27 -10 -32 -25z m38 -16 c0 -8 -6 -12 -14 -9 -7 3 -13 11
-13 19 0 7 6 11 13 8 8 -3 14 -11 14 -18z m37 -22 c9 -3 13 -11 9 -17 -4 -6 0
-8 10 -4 10 3 17 2 17 -3 0 -17 -26 -11 -45 10 -19 21 -17 24 9 14z m-9 -123
c3 -5 2 -12 -3 -15 -5 -3 -9 1 -9 9 0 17 3 19 12 6z"/>
<path d="M9277 9194 c-3 -4 1 -13 10 -19 14 -11 15 -15 4 -28 -11 -14 -9 -16
8 -14 33 2 39 47 6 47 -7 0 -15 5 -17 11 -2 5 -7 7 -11 3z"/>
<path d="M8972 9150 c0 -14 2 -19 5 -12 2 6 2 18 0 25 -3 6 -5 1 -5 -13z"/>
<path d="M9225 9160 c-3 -5 1 -10 9 -10 9 0 16 5 16 10 0 6 -4 10 -9 10 -6 0
-13 -4 -16 -10z"/>
<path d="M9096 9148 c3 -5 10 -6 15 -3 13 9 11 12 -6 12 -8 0 -12 -4 -9 -9z"/>
<path d="M9180 9136 c0 -2 8 -10 18 -17 15 -13 16 -12 3 4 -13 16 -21 21 -21
13z"/>
<path d="M8912 9099 c2 -7 10 -15 17 -17 8 -3 12 1 9 9 -2 7 -10 15 -17 17 -8
3 -12 -1 -9 -9z"/>
<path d="M9161 9054 c0 -11 3 -14 6 -6 3 7 2 16 -1 19 -3 4 -6 -2 -5 -13z"/>
<path d="M9075 8970 c10 -11 20 -20 23 -20 3 0 -3 9 -13 20 -10 11 -20 20 -23
20 -3 0 3 -9 13 -20z"/>
<path d="M8692 8950 c0 -14 2 -19 5 -12 2 6 2 18 0 25 -3 6 -5 1 -5 -13z"/>
<path d="M8710 8940 c0 -5 5 -10 11 -10 5 0 7 5 4 10 -3 6 -8 10 -11 10 -2 0
-4 -4 -4 -10z"/>
<path d="M8177 8891 c-3 -12 -1 -34 6 -47 17 -39 31 -3 14 38 -13 31 -14 32
-20 9z"/>
<path d="M8700 8893 c0 -16 -2 -16 -11 -3 -9 12 -10 12 -7 1 7 -24 28 -25 28
-2 0 12 -2 21 -5 21 -3 0 -5 -8 -5 -17z"/>
<path d="M8675 8850 c3 -5 8 -10 11 -10 2 0 4 5 4 10 0 6 -5 10 -11 10 -5 0
-7 -4 -4 -10z"/>
<path d="M8065 8831 c-3 -5 -1 -12 5 -16 5 -3 10 1 10 9 0 18 -6 21 -15 7z"/>
<path d="M8160 8806 c0 -39 15 -56 23 -26 3 11 1 20 -5 20 -5 0 -6 9 -3 20 4
11 2 20 -4 20 -6 0 -11 -15 -11 -34z"/>
<path d="M8666 8653 c-6 -14 -5 -15 5 -6 7 7 10 15 7 18 -3 3 -9 -2 -12 -12z"/>
<path d="M8092 8419 c-5 -13 -7 -31 -4 -39 4 -9 9 -2 13 20 9 41 3 53 -9 19z"/>
<path d="M8067 8344 c-5 -22 -14 -53 -22 -67 -16 -32 -12 -34 13 -9 10 10 16
24 14 32 -3 7 0 10 6 6 5 -3 13 1 16 10 3 8 2 12 -3 9 -6 -3 -11 9 -13 27 l-3
33 -8 -41z"/>
<path d="M8283 7604 c-8 -4 -9 -13 -3 -30 5 -13 6 -23 2 -23 -37 6 -75 -21
-65 -46 4 -11 0 -14 -13 -9 -11 4 -16 4 -13 0 4 -4 -4 -19 -17 -33 -13 -14
-24 -30 -24 -34 0 -15 43 -10 86 10 49 23 60 37 43 57 -10 13 -8 19 16 39 23
21 25 26 11 31 -19 7 -21 30 -3 37 6 3 8 5 2 5 -5 0 -15 -2 -22 -4z"/>
<path d="M8195 7390 c-4 -6 -10 -8 -15 -5 -4 3 -11 -2 -14 -11 -5 -12 -1 -14
17 -9 12 4 29 13 37 21 12 12 12 14 -2 14 -9 0 -20 -5 -23 -10z"/>
</g>
</svg>
